G04 #@! TF.GenerationSoftware,KiCad,Pcbnew,8.0.5-8.0.5-0~ubuntu22.04.1*
G04 #@! TF.CreationDate,2024-10-01T13:57:59+02:00*
G04 #@! TF.ProjectId,wire-cutter,77697265-2d63-4757-9474-65722e6b6963,rev?*
G04 #@! TF.SameCoordinates,Original*
G04 #@! TF.FileFunction,Copper,L2,Bot*
G04 #@! TF.FilePolarity,Positive*
%FSLAX46Y46*%
G04 Gerber Fmt 4.6, Leading zero omitted, Abs format (unit mm)*
G04 Created by KiCad (PCBNEW 8.0.5-8.0.5-0~ubuntu22.04.1) date 2024-10-01 13:57:59*
%MOMM*%
%LPD*%
G01*
G04 APERTURE LIST*
G04 Aperture macros list*
%AMRoundRect*
0 Rectangle with rounded corners*
0 $1 Rounding radius*
0 $2 $3 $4 $5 $6 $7 $8 $9 X,Y pos of 4 corners*
0 Add a 4 corners polygon primitive as box body*
4,1,4,$2,$3,$4,$5,$6,$7,$8,$9,$2,$3,0*
0 Add four circle primitives for the rounded corners*
1,1,$1+$1,$2,$3*
1,1,$1+$1,$4,$5*
1,1,$1+$1,$6,$7*
1,1,$1+$1,$8,$9*
0 Add four rect primitives between the rounded corners*
20,1,$1+$1,$2,$3,$4,$5,0*
20,1,$1+$1,$4,$5,$6,$7,0*
20,1,$1+$1,$6,$7,$8,$9,0*
20,1,$1+$1,$8,$9,$2,$3,0*%
G04 Aperture macros list end*
G04 #@! TA.AperFunction,ComponentPad*
%ADD10R,1.700000X1.700000*%
G04 #@! TD*
G04 #@! TA.AperFunction,ComponentPad*
%ADD11O,1.700000X1.700000*%
G04 #@! TD*
G04 #@! TA.AperFunction,ComponentPad*
%ADD12R,2.000000X2.000000*%
G04 #@! TD*
G04 #@! TA.AperFunction,ComponentPad*
%ADD13C,2.000000*%
G04 #@! TD*
G04 #@! TA.AperFunction,ComponentPad*
%ADD14R,3.000000X3.000000*%
G04 #@! TD*
G04 #@! TA.AperFunction,ComponentPad*
%ADD15C,3.000000*%
G04 #@! TD*
G04 #@! TA.AperFunction,ComponentPad*
%ADD16R,3.500000X3.500000*%
G04 #@! TD*
G04 #@! TA.AperFunction,ComponentPad*
%ADD17RoundRect,0.750000X-0.750000X-1.000000X0.750000X-1.000000X0.750000X1.000000X-0.750000X1.000000X0*%
G04 #@! TD*
G04 #@! TA.AperFunction,ComponentPad*
%ADD18RoundRect,0.875000X-0.875000X-0.875000X0.875000X-0.875000X0.875000X0.875000X-0.875000X0.875000X0*%
G04 #@! TD*
G04 #@! TA.AperFunction,ComponentPad*
%ADD19R,1.508000X1.508000*%
G04 #@! TD*
G04 #@! TA.AperFunction,ComponentPad*
%ADD20C,1.508000*%
G04 #@! TD*
G04 #@! TA.AperFunction,ViaPad*
%ADD21C,0.600000*%
G04 #@! TD*
G04 #@! TA.AperFunction,Conductor*
%ADD22C,0.200000*%
G04 #@! TD*
G04 #@! TA.AperFunction,Conductor*
%ADD23C,1.000000*%
G04 #@! TD*
G04 APERTURE END LIST*
D10*
G04 #@! TO.P,EXTRUDER2,1,Pin_1*
G04 #@! TO.N,Net-(EXTRUDER1-M1B)*
X78420000Y-60960000D03*
D11*
G04 #@! TO.P,EXTRUDER2,2,Pin_2*
G04 #@! TO.N,Net-(EXTRUDER1-M1A)*
X75880000Y-60960000D03*
G04 #@! TO.P,EXTRUDER2,3,Pin_3*
G04 #@! TO.N,Net-(EXTRUDER1-M2A)*
X73340000Y-60960000D03*
G04 #@! TO.P,EXTRUDER2,4,Pin_4*
G04 #@! TO.N,Net-(EXTRUDER1-M2B)*
X70800000Y-60960000D03*
G04 #@! TD*
D10*
G04 #@! TO.P,5VOUT1,1,Pin_1*
G04 #@! TO.N,+5V*
X119765000Y-120870000D03*
G04 #@! TD*
D12*
G04 #@! TO.P,U4,1,3V3*
G04 #@! TO.N,Net-(DISPLAY1-Pin_1)*
X73120000Y-99050000D03*
D13*
G04 #@! TO.P,U4,2,GND*
G04 #@! TO.N,Earth*
X75660000Y-99050000D03*
G04 #@! TO.P,U4,3,D15*
G04 #@! TO.N,unconnected-(U4-D15-Pad3)*
X78200000Y-99050000D03*
G04 #@! TO.P,U4,4,D2*
G04 #@! TO.N,unconnected-(U4-D2-Pad4)*
X80740000Y-99050000D03*
G04 #@! TO.P,U4,5,D4*
G04 #@! TO.N,unconnected-(U4-D4-Pad5)*
X83280000Y-99050000D03*
G04 #@! TO.P,U4,6,RX2*
G04 #@! TO.N,Net-(EXTRUDER1-UART)*
X85820000Y-99050000D03*
G04 #@! TO.P,U4,7,TX2*
G04 #@! TO.N,Net-(EXTRUDER1-SPRD)*
X88360000Y-99050000D03*
G04 #@! TO.P,U4,8,D5*
G04 #@! TO.N,Net-(EC11-Pin_2)*
X90900000Y-99050000D03*
G04 #@! TO.P,U4,9,D18*
G04 #@! TO.N,Net-(EC11-Pin_3)*
X93440000Y-99050000D03*
G04 #@! TO.P,U4,10,D19*
G04 #@! TO.N,Net-(EC11-Pin_4)*
X95980000Y-99050000D03*
G04 #@! TO.P,U4,11,D21*
G04 #@! TO.N,Net-(DISPLAY1-Pin_4)*
X98520000Y-99050000D03*
G04 #@! TO.P,U4,12,RX0*
G04 #@! TO.N,unconnected-(U4-RX0-Pad12)*
X101060000Y-99050000D03*
G04 #@! TO.P,U4,13,TX0*
G04 #@! TO.N,unconnected-(U4-TX0-Pad13)*
X103600000Y-99050000D03*
G04 #@! TO.P,U4,14,D22*
G04 #@! TO.N,Net-(DISPLAY1-Pin_3)*
X106140000Y-99050000D03*
G04 #@! TO.P,U4,15,D23*
G04 #@! TO.N,Net-(EXTRUDER1-STEP)*
X108680000Y-99050000D03*
G04 #@! TO.P,U4,16,EN*
G04 #@! TO.N,unconnected-(U4-EN-Pad16)*
X108680000Y-73650000D03*
G04 #@! TO.P,U4,17,VP*
G04 #@! TO.N,unconnected-(U4-VP-Pad17)*
X106140000Y-73650000D03*
G04 #@! TO.P,U4,18,VN*
G04 #@! TO.N,unconnected-(U4-VN-Pad18)*
X103600000Y-73650000D03*
G04 #@! TO.P,U4,19,D34*
G04 #@! TO.N,unconnected-(U4-D34-Pad19)*
X101060000Y-73650000D03*
G04 #@! TO.P,U4,20,D35*
G04 #@! TO.N,Net-(LINMOT2-DIAG)*
X98520000Y-73650000D03*
G04 #@! TO.P,U4,21,D32*
G04 #@! TO.N,unconnected-(U4-D32-Pad21)*
X95980000Y-73650000D03*
G04 #@! TO.P,U4,22,D33*
G04 #@! TO.N,Net-(LINMOT1-DIAG)*
X93440000Y-73650000D03*
G04 #@! TO.P,U4,23,D25*
G04 #@! TO.N,Net-(LINMOT1-STEP)*
X90900000Y-73650000D03*
G04 #@! TO.P,U4,24,D26*
G04 #@! TO.N,Net-(LINMOT1-DIR)*
X88360000Y-73650000D03*
G04 #@! TO.P,U4,25,D27*
G04 #@! TO.N,Net-(EXTRUDER1-DIR)*
X85820000Y-73650000D03*
G04 #@! TO.P,U4,26,D14*
G04 #@! TO.N,unconnected-(U4-D14-Pad26)*
X83280000Y-73650000D03*
G04 #@! TO.P,U4,27,D12*
G04 #@! TO.N,unconnected-(U4-D12-Pad27)*
X80740000Y-73650000D03*
G04 #@! TO.P,U4,28,D13*
G04 #@! TO.N,unconnected-(U4-D13-Pad28)*
X78200000Y-73650000D03*
G04 #@! TO.P,U4,29,GND*
G04 #@! TO.N,Earth*
X75660000Y-73650000D03*
G04 #@! TO.P,U4,30,VIN*
G04 #@! TO.N,+5V*
X73120000Y-73650000D03*
G04 #@! TD*
D10*
G04 #@! TO.P,LIN2,1,Pin_1*
G04 #@! TO.N,Net-(LIN2-Pin_1)*
X114910000Y-60960000D03*
D11*
G04 #@! TO.P,LIN2,2,Pin_2*
G04 #@! TO.N,Net-(LIN2-Pin_2)*
X112370000Y-60960000D03*
G04 #@! TO.P,LIN2,3,Pin_3*
G04 #@! TO.N,Net-(LIN2-Pin_3)*
X109830000Y-60960000D03*
G04 #@! TO.P,LIN2,4,Pin_4*
G04 #@! TO.N,Net-(LIN2-Pin_4)*
X107290000Y-60960000D03*
G04 #@! TD*
D14*
G04 #@! TO.P,12V_INPUT1,1,Pin_1*
G04 #@! TO.N,Earth*
X73500000Y-132330000D03*
D15*
G04 #@! TO.P,12V_INPUT1,2,Pin_2*
G04 #@! TO.N,+12V*
X73500000Y-127250000D03*
G04 #@! TD*
D16*
G04 #@! TO.P,12V_INPUT2,1*
G04 #@! TO.N,+12V*
X75810000Y-116000000D03*
D17*
G04 #@! TO.P,12V_INPUT2,2*
G04 #@! TO.N,Earth*
X69810000Y-116000000D03*
D18*
G04 #@! TO.P,12V_INPUT2,3*
G04 #@! TO.N,N/C*
X72810000Y-120700000D03*
G04 #@! TD*
D10*
G04 #@! TO.P,POWER1,1,Pin_1*
G04 #@! TO.N,Earth*
X91580000Y-115560000D03*
D11*
G04 #@! TO.P,POWER1,2,Pin_2*
G04 #@! TO.N,Net-(DISPLAY1-Pin_1)*
X89040000Y-115560000D03*
G04 #@! TO.P,POWER1,3,Pin_3*
G04 #@! TO.N,+5V*
X86500000Y-115560000D03*
G04 #@! TO.P,POWER1,4,Pin_4*
G04 #@! TO.N,+12V*
X83960000Y-115560000D03*
G04 #@! TD*
D10*
G04 #@! TO.P,LIN1,1,Pin_1*
G04 #@! TO.N,Net-(LIN1-Pin_1)*
X96650000Y-60960000D03*
D11*
G04 #@! TO.P,LIN1,2,Pin_2*
G04 #@! TO.N,Net-(LIN1-Pin_2)*
X94110000Y-61120000D03*
G04 #@! TO.P,LIN1,3,Pin_3*
G04 #@! TO.N,Net-(LIN1-Pin_3)*
X91570000Y-61120000D03*
G04 #@! TO.P,LIN1,4,Pin_4*
G04 #@! TO.N,Net-(LIN1-Pin_4)*
X89030000Y-61120000D03*
G04 #@! TD*
D10*
G04 #@! TO.P,ADDRESS_SELECTOR1,1,Pin_1*
G04 #@! TO.N,+5V*
X64240000Y-36540000D03*
D11*
G04 #@! TO.P,ADDRESS_SELECTOR1,2,Pin_2*
G04 #@! TO.N,Net-(ADDRESS_SELECTOR1-Pin_2)*
X64240000Y-39080000D03*
G04 #@! TO.P,ADDRESS_SELECTOR1,3,Pin_3*
G04 #@! TO.N,Earth*
X64240000Y-41620000D03*
G04 #@! TD*
D19*
G04 #@! TO.P,LINMOT2,1,GND*
G04 #@! TO.N,Earth*
X104750000Y-33920000D03*
D20*
G04 #@! TO.P,LINMOT2,2,VIO*
G04 #@! TO.N,+5V*
X104750000Y-36460000D03*
G04 #@! TO.P,LINMOT2,3,M1B*
G04 #@! TO.N,Net-(LIN2-Pin_1)*
X104750000Y-39000000D03*
G04 #@! TO.P,LINMOT2,4,M1A*
G04 #@! TO.N,Net-(LIN2-Pin_2)*
X104750000Y-41540000D03*
G04 #@! TO.P,LINMOT2,5,M2A*
G04 #@! TO.N,Net-(LIN2-Pin_3)*
X104750000Y-44080000D03*
G04 #@! TO.P,LINMOT2,6,M2B*
G04 #@! TO.N,Net-(LIN2-Pin_4)*
X104750000Y-46620000D03*
G04 #@! TO.P,LINMOT2,7,GND*
G04 #@! TO.N,Earth*
X104750000Y-49160000D03*
G04 #@! TO.P,LINMOT2,8,VM*
G04 #@! TO.N,+12V*
X104750000Y-51700000D03*
G04 #@! TO.P,LINMOT2,9,DIR*
G04 #@! TO.N,Net-(LINMOT1-DIR)*
X117450000Y-33920000D03*
G04 #@! TO.P,LINMOT2,10,STEP*
G04 #@! TO.N,Net-(LINMOT1-STEP)*
X117450000Y-36460000D03*
G04 #@! TO.P,LINMOT2,11,PDN*
G04 #@! TO.N,unconnected-(LINMOT2-PDN-Pad11)*
X117450000Y-39000000D03*
G04 #@! TO.P,LINMOT2,12,UART*
G04 #@! TO.N,Net-(EXTRUDER1-UART)*
X117450000Y-41540000D03*
G04 #@! TO.P,LINMOT2,13,SPRD*
G04 #@! TO.N,Net-(EXTRUDER1-SPRD)*
X117450000Y-44080000D03*
G04 #@! TO.P,LINMOT2,14,MS2*
G04 #@! TO.N,Earth*
X117450000Y-46620000D03*
G04 #@! TO.P,LINMOT2,15,MS1*
X117450000Y-49160000D03*
G04 #@! TO.P,LINMOT2,16,~{EN}*
X117450000Y-51700000D03*
G04 #@! TO.P,LINMOT2,17,INDEX*
G04 #@! TO.N,unconnected-(LINMOT2-INDEX-Pad17)*
X112370000Y-51700000D03*
G04 #@! TO.P,LINMOT2,18,DIAG*
G04 #@! TO.N,Net-(LINMOT2-DIAG)*
X114910000Y-51700000D03*
G04 #@! TD*
D10*
G04 #@! TO.P,12VIN1,1,Pin_1*
G04 #@! TO.N,+12V*
X79715000Y-120870000D03*
G04 #@! TD*
D19*
G04 #@! TO.P,LINMOT1,1,GND*
G04 #@! TO.N,Earth*
X86680000Y-33920000D03*
D20*
G04 #@! TO.P,LINMOT1,2,VIO*
G04 #@! TO.N,+5V*
X86680000Y-36460000D03*
G04 #@! TO.P,LINMOT1,3,M1B*
G04 #@! TO.N,Net-(LIN1-Pin_1)*
X86680000Y-39000000D03*
G04 #@! TO.P,LINMOT1,4,M1A*
G04 #@! TO.N,Net-(LIN1-Pin_2)*
X86680000Y-41540000D03*
G04 #@! TO.P,LINMOT1,5,M2A*
G04 #@! TO.N,Net-(LIN1-Pin_3)*
X86680000Y-44080000D03*
G04 #@! TO.P,LINMOT1,6,M2B*
G04 #@! TO.N,Net-(LIN1-Pin_4)*
X86680000Y-46620000D03*
G04 #@! TO.P,LINMOT1,7,GND*
G04 #@! TO.N,Earth*
X86680000Y-49160000D03*
G04 #@! TO.P,LINMOT1,8,VM*
G04 #@! TO.N,+12V*
X86680000Y-51700000D03*
G04 #@! TO.P,LINMOT1,9,DIR*
G04 #@! TO.N,Net-(LINMOT1-DIR)*
X99380000Y-33920000D03*
G04 #@! TO.P,LINMOT1,10,STEP*
G04 #@! TO.N,Net-(LINMOT1-STEP)*
X99380000Y-36460000D03*
G04 #@! TO.P,LINMOT1,11,PDN*
G04 #@! TO.N,unconnected-(LINMOT1-PDN-Pad11)*
X99380000Y-39000000D03*
G04 #@! TO.P,LINMOT1,12,UART*
G04 #@! TO.N,Net-(EXTRUDER1-UART)*
X99380000Y-41540000D03*
G04 #@! TO.P,LINMOT1,13,SPRD*
G04 #@! TO.N,Net-(EXTRUDER1-SPRD)*
X99380000Y-44080000D03*
G04 #@! TO.P,LINMOT1,14,MS2*
G04 #@! TO.N,Earth*
X99380000Y-46620000D03*
G04 #@! TO.P,LINMOT1,15,MS1*
X99380000Y-49160000D03*
G04 #@! TO.P,LINMOT1,16,~{EN}*
X99380000Y-51700000D03*
G04 #@! TO.P,LINMOT1,17,INDEX*
G04 #@! TO.N,unconnected-(LINMOT1-INDEX-Pad17)*
X94300000Y-51700000D03*
G04 #@! TO.P,LINMOT1,18,DIAG*
G04 #@! TO.N,Net-(LINMOT1-DIAG)*
X96840000Y-51700000D03*
G04 #@! TD*
D19*
G04 #@! TO.P,EXTRUDER1,1,GND*
G04 #@! TO.N,Earth*
X68090000Y-33920000D03*
D20*
G04 #@! TO.P,EXTRUDER1,2,VIO*
G04 #@! TO.N,+5V*
X68090000Y-36460000D03*
G04 #@! TO.P,EXTRUDER1,3,M1B*
G04 #@! TO.N,Net-(EXTRUDER1-M1B)*
X68090000Y-39000000D03*
G04 #@! TO.P,EXTRUDER1,4,M1A*
G04 #@! TO.N,Net-(EXTRUDER1-M1A)*
X68090000Y-41540000D03*
G04 #@! TO.P,EXTRUDER1,5,M2A*
G04 #@! TO.N,Net-(EXTRUDER1-M2A)*
X68090000Y-44080000D03*
G04 #@! TO.P,EXTRUDER1,6,M2B*
G04 #@! TO.N,Net-(EXTRUDER1-M2B)*
X68090000Y-46620000D03*
G04 #@! TO.P,EXTRUDER1,7,GND*
G04 #@! TO.N,Earth*
X68090000Y-49160000D03*
G04 #@! TO.P,EXTRUDER1,8,VM*
G04 #@! TO.N,+12V*
X68090000Y-51700000D03*
G04 #@! TO.P,EXTRUDER1,9,DIR*
G04 #@! TO.N,Net-(EXTRUDER1-DIR)*
X80790000Y-33920000D03*
G04 #@! TO.P,EXTRUDER1,10,STEP*
G04 #@! TO.N,Net-(EXTRUDER1-STEP)*
X80790000Y-36460000D03*
G04 #@! TO.P,EXTRUDER1,11,PDN*
G04 #@! TO.N,unconnected-(EXTRUDER1-PDN-Pad11)*
X80790000Y-39000000D03*
G04 #@! TO.P,EXTRUDER1,12,UART*
G04 #@! TO.N,Net-(EXTRUDER1-UART)*
X80790000Y-41540000D03*
G04 #@! TO.P,EXTRUDER1,13,SPRD*
G04 #@! TO.N,Net-(EXTRUDER1-SPRD)*
X80790000Y-44080000D03*
G04 #@! TO.P,EXTRUDER1,14,MS2*
G04 #@! TO.N,Earth*
X80790000Y-46620000D03*
G04 #@! TO.P,EXTRUDER1,15,MS1*
G04 #@! TO.N,Net-(ADDRESS_SELECTOR1-Pin_2)*
X80790000Y-49160000D03*
G04 #@! TO.P,EXTRUDER1,16,~{EN}*
G04 #@! TO.N,Earth*
X80790000Y-51700000D03*
G04 #@! TO.P,EXTRUDER1,17,INDEX*
G04 #@! TO.N,unconnected-(EXTRUDER1-INDEX-Pad17)*
X75710000Y-51700000D03*
G04 #@! TO.P,EXTRUDER1,18,DIAG*
G04 #@! TO.N,unconnected-(EXTRUDER1-DIAG-Pad18)*
X78250000Y-51700000D03*
G04 #@! TD*
D10*
G04 #@! TO.P,DISPLAY1,1,Pin_1*
G04 #@! TO.N,Net-(DISPLAY1-Pin_1)*
X106440000Y-115560000D03*
D11*
G04 #@! TO.P,DISPLAY1,2,Pin_2*
G04 #@! TO.N,Earth*
X103900000Y-115560000D03*
G04 #@! TO.P,DISPLAY1,3,Pin_3*
G04 #@! TO.N,Net-(DISPLAY1-Pin_3)*
X101360000Y-115560000D03*
G04 #@! TO.P,DISPLAY1,4,Pin_4*
G04 #@! TO.N,Net-(DISPLAY1-Pin_4)*
X98820000Y-115560000D03*
G04 #@! TD*
D10*
G04 #@! TO.P,J3,1,Pin_1*
G04 #@! TO.N,Earth*
X119765000Y-138380000D03*
G04 #@! TD*
G04 #@! TO.P,J1,1,Pin_1*
G04 #@! TO.N,Earth*
X79715000Y-138380000D03*
G04 #@! TD*
G04 #@! TO.P,EC11,1,Pin_1*
G04 #@! TO.N,Earth*
X112740000Y-114930000D03*
D11*
G04 #@! TO.P,EC11,2,Pin_2*
G04 #@! TO.N,Net-(EC11-Pin_2)*
X112740000Y-112390000D03*
G04 #@! TO.P,EC11,3,Pin_3*
G04 #@! TO.N,Net-(EC11-Pin_3)*
X112740000Y-109850000D03*
G04 #@! TO.P,EC11,4,Pin_4*
G04 #@! TO.N,Net-(EC11-Pin_4)*
X112740000Y-107310000D03*
G04 #@! TD*
D21*
G04 #@! TO.N,+5V*
X70340000Y-70870000D03*
X64015000Y-64545000D03*
G04 #@! TO.N,Net-(EXTRUDER1-UART)*
X119750000Y-70600000D03*
X117550000Y-72810000D03*
G04 #@! TO.N,Net-(LINMOT1-DIAG)*
X94190000Y-70450000D03*
G04 #@! TO.N,Net-(LINMOT1-DIR)*
X115860000Y-68440000D03*
G04 #@! TD*
D22*
G04 #@! TO.N,Net-(EC11-Pin_2)*
X112740000Y-112390000D02*
X104240000Y-112390000D01*
X104240000Y-112390000D02*
X90900000Y-99050000D01*
G04 #@! TO.N,Net-(EC11-Pin_4)*
X104240000Y-107310000D02*
X95980000Y-99050000D01*
X112740000Y-107310000D02*
X104240000Y-107310000D01*
G04 #@! TO.N,Net-(EC11-Pin_3)*
X112740000Y-109850000D02*
X104240000Y-109850000D01*
X104240000Y-109850000D02*
X93440000Y-99050000D01*
G04 #@! TO.N,+5V*
X87734000Y-37514000D02*
X103696000Y-37514000D01*
X103696000Y-37514000D02*
X104750000Y-36460000D01*
X86680000Y-36460000D02*
X87734000Y-37514000D01*
X64015000Y-64545000D02*
X70340000Y-70870000D01*
D23*
G04 #@! TO.N,Net-(EXTRUDER1-M1B)*
X73700000Y-44610000D02*
X68090000Y-39000000D01*
X78420000Y-60960000D02*
X73700000Y-56240000D01*
X73700000Y-56240000D02*
X73700000Y-44610000D01*
D22*
G04 #@! TO.N,Net-(EXTRUDER1-DIR)*
X82610000Y-70440000D02*
X82610000Y-35740000D01*
X82610000Y-35740000D02*
X80790000Y-33920000D01*
X85820000Y-73650000D02*
X82610000Y-70440000D01*
D23*
G04 #@! TO.N,Net-(EXTRUDER1-M1A)*
X75880000Y-60520000D02*
X72240000Y-56880000D01*
X72240000Y-56880000D02*
X72240000Y-45690000D01*
X75880000Y-60960000D02*
X75880000Y-60520000D01*
X72240000Y-45690000D02*
X68090000Y-41540000D01*
D22*
G04 #@! TO.N,Net-(EXTRUDER1-UART)*
X117550000Y-72800000D02*
X117550000Y-72810000D01*
X119750000Y-70600000D02*
X117550000Y-72800000D01*
D23*
G04 #@! TO.N,Net-(EXTRUDER1-M2B)*
X70800000Y-60960000D02*
X68620000Y-60960000D01*
X65990000Y-46620000D02*
X68090000Y-46620000D01*
X64200000Y-56540000D02*
X64200000Y-48410000D01*
X68620000Y-60960000D02*
X64200000Y-56540000D01*
X64200000Y-48410000D02*
X65990000Y-46620000D01*
D22*
G04 #@! TO.N,Net-(EXTRUDER1-STEP)*
X107240000Y-97610000D02*
X108680000Y-99050000D01*
X71820000Y-71280000D02*
X71820000Y-74188478D01*
X81844000Y-61256000D02*
X71820000Y-71280000D01*
X81844000Y-37514000D02*
X81844000Y-61256000D01*
X80790000Y-36460000D02*
X81844000Y-37514000D01*
X71820000Y-74188478D02*
X95241522Y-97610000D01*
X95241522Y-97610000D02*
X107240000Y-97610000D01*
D23*
G04 #@! TO.N,Net-(EXTRUDER1-M2A)*
X73340000Y-60110000D02*
X70720000Y-57490000D01*
X70720000Y-46710000D02*
X68090000Y-44080000D01*
X70720000Y-57490000D02*
X70720000Y-46710000D01*
D22*
X73340000Y-60960000D02*
X73340000Y-60110000D01*
G04 #@! TO.N,Net-(LINMOT1-DIAG)*
X96840000Y-51700000D02*
X97800000Y-52660000D01*
X97800000Y-66840000D02*
X94190000Y-70450000D01*
X97800000Y-52660000D02*
X97800000Y-66840000D01*
G04 #@! TO.N,Net-(LINMOT1-STEP)*
X115964000Y-52136582D02*
X115330000Y-52770582D01*
X114980000Y-50279418D02*
X115964000Y-51263418D01*
X92220000Y-72330000D02*
X90900000Y-73650000D01*
X116060000Y-62110000D02*
X105840000Y-72330000D01*
X116060000Y-59810000D02*
X116060000Y-62110000D01*
X114980000Y-38930000D02*
X114980000Y-50279418D01*
X105840000Y-72330000D02*
X92220000Y-72330000D01*
X117450000Y-36460000D02*
X114980000Y-38930000D01*
X115964000Y-51263418D02*
X115964000Y-52136582D01*
X115330000Y-59080000D02*
X116060000Y-59810000D01*
X115330000Y-52770582D02*
X115330000Y-59080000D01*
G04 #@! TO.N,Net-(LINMOT1-DIR)*
X119960000Y-64340000D02*
X119960000Y-36430000D01*
X119960000Y-36430000D02*
X117450000Y-33920000D01*
X115860000Y-68440000D02*
X119960000Y-64340000D01*
D23*
G04 #@! TO.N,Net-(LIN1-Pin_2)*
X94110000Y-61120000D02*
X90660000Y-57670000D01*
X90660000Y-57670000D02*
X90660000Y-45520000D01*
X90660000Y-45520000D02*
X86680000Y-41540000D01*
G04 #@! TO.N,Net-(LIN1-Pin_4)*
X83930000Y-56020000D02*
X83930000Y-49370000D01*
X89030000Y-61120000D02*
X83930000Y-56020000D01*
X83930000Y-49370000D02*
X86680000Y-46620000D01*
G04 #@! TO.N,Net-(LIN1-Pin_1)*
X92310000Y-56620000D02*
X92310000Y-44630000D01*
X96650000Y-60960000D02*
X92310000Y-56620000D01*
X92310000Y-44630000D02*
X86680000Y-39000000D01*
G04 #@! TO.N,Net-(LIN1-Pin_3)*
X91570000Y-61120000D02*
X89090000Y-58640000D01*
X89090000Y-58640000D02*
X89090000Y-46490000D01*
X89090000Y-46490000D02*
X86680000Y-44080000D01*
G04 #@! TO.N,Net-(LIN2-Pin_3)*
X107250000Y-46580000D02*
X104750000Y-44080000D01*
X109830000Y-60960000D02*
X107250000Y-58380000D01*
X107250000Y-58380000D02*
X107250000Y-46580000D01*
G04 #@! TO.N,Net-(LIN2-Pin_4)*
X107290000Y-60960000D02*
X102610000Y-56280000D01*
X102610000Y-48760000D02*
X104750000Y-46620000D01*
X102610000Y-56280000D02*
X102610000Y-48760000D01*
D22*
G04 #@! TO.N,Net-(LIN2-Pin_1)*
X114910000Y-60960000D02*
X113856000Y-59906000D01*
D23*
X113856000Y-59656000D02*
X110540000Y-56340000D01*
X110540000Y-44790000D02*
X104750000Y-39000000D01*
X110540000Y-56340000D02*
X110540000Y-44790000D01*
D22*
X113856000Y-59906000D02*
X113856000Y-59656000D01*
D23*
G04 #@! TO.N,Net-(LIN2-Pin_2)*
X112370000Y-60960000D02*
X108800000Y-57390000D01*
X108800000Y-57390000D02*
X108800000Y-45590000D01*
X108800000Y-45590000D02*
X104750000Y-41540000D01*
G04 #@! TD*
G04 #@! TA.AperFunction,Conductor*
G04 #@! TO.N,Earth*
G36*
X81928834Y-62122915D02*
G01*
X81984767Y-62164787D01*
X82009184Y-62230251D01*
X82009500Y-62239097D01*
X82009500Y-70353330D01*
X82009499Y-70353348D01*
X82009499Y-70519054D01*
X82009498Y-70519054D01*
X82050423Y-70671784D01*
X82050424Y-70671787D01*
X82056198Y-70681787D01*
X82056199Y-70681789D01*
X82129477Y-70808712D01*
X82129481Y-70808717D01*
X82248349Y-70927585D01*
X82248355Y-70927590D01*
X83258584Y-71937819D01*
X83292069Y-71999142D01*
X83287085Y-72068834D01*
X83245213Y-72124767D01*
X83179749Y-72149184D01*
X83170903Y-72149500D01*
X83155665Y-72149500D01*
X82910383Y-72190429D01*
X82675197Y-72271169D01*
X82675188Y-72271172D01*
X82456493Y-72389524D01*
X82260257Y-72542261D01*
X82101230Y-72715010D01*
X82041342Y-72751001D01*
X81971504Y-72748900D01*
X81918770Y-72715010D01*
X81841198Y-72630745D01*
X81759744Y-72542262D01*
X81563509Y-72389526D01*
X81563507Y-72389525D01*
X81563506Y-72389524D01*
X81344811Y-72271172D01*
X81344802Y-72271169D01*
X81109616Y-72190429D01*
X80864335Y-72149500D01*
X80615665Y-72149500D01*
X80370383Y-72190429D01*
X80135197Y-72271169D01*
X80135188Y-72271172D01*
X79916493Y-72389524D01*
X79720257Y-72542261D01*
X79561230Y-72715010D01*
X79501342Y-72751001D01*
X79431504Y-72748900D01*
X79378770Y-72715010D01*
X79301198Y-72630745D01*
X79219744Y-72542262D01*
X79023509Y-72389526D01*
X79023507Y-72389525D01*
X79023506Y-72389524D01*
X78804811Y-72271172D01*
X78804802Y-72271169D01*
X78569616Y-72190429D01*
X78324335Y-72149500D01*
X78075665Y-72149500D01*
X77830383Y-72190429D01*
X77595197Y-72271169D01*
X77595188Y-72271172D01*
X77376493Y-72389524D01*
X77180257Y-72542261D01*
X77011837Y-72725213D01*
X77011829Y-72725224D01*
X77011455Y-72725797D01*
X77011242Y-72725978D01*
X77008690Y-72729258D01*
X77008014Y-72728732D01*
X76958304Y-72771147D01*
X76894865Y-72781302D01*
X76883434Y-72780116D01*
X76151127Y-73512423D01*
X76135245Y-73453147D01*
X76068102Y-73336853D01*
X75973147Y-73241898D01*
X75856853Y-73174755D01*
X75797575Y-73158872D01*
X76530057Y-72426390D01*
X76530056Y-72426389D01*
X76483229Y-72389943D01*
X76264614Y-72271635D01*
X76264603Y-72271630D01*
X76029493Y-72190916D01*
X75784293Y-72150000D01*
X75535707Y-72150000D01*
X75290506Y-72190916D01*
X75055396Y-72271630D01*
X75055390Y-72271632D01*
X74836761Y-72389949D01*
X74789942Y-72426388D01*
X74789942Y-72426390D01*
X75522424Y-73158871D01*
X75463147Y-73174755D01*
X75346853Y-73241898D01*
X75251898Y-73336853D01*
X75184755Y-73453147D01*
X75168872Y-73512424D01*
X74436564Y-72780116D01*
X74425135Y-72781302D01*
X74356423Y-72768637D01*
X74311910Y-72728802D01*
X74311317Y-72729265D01*
X74308768Y-72725991D01*
X74308535Y-72725782D01*
X74308166Y-72725218D01*
X74308165Y-72725217D01*
X74308164Y-72725215D01*
X74139744Y-72542262D01*
X73943509Y-72389526D01*
X73943507Y-72389525D01*
X73943506Y-72389524D01*
X73724811Y-72271172D01*
X73724802Y-72271169D01*
X73489616Y-72190429D01*
X73244335Y-72149500D01*
X72995665Y-72149500D01*
X72750383Y-72190429D01*
X72584763Y-72247287D01*
X72514964Y-72250437D01*
X72454543Y-72215351D01*
X72422682Y-72153168D01*
X72420500Y-72130006D01*
X72420500Y-71580097D01*
X72440185Y-71513058D01*
X72456819Y-71492416D01*
X81797819Y-62151416D01*
X81859142Y-62117931D01*
X81928834Y-62122915D01*
G37*
G04 #@! TD.AperFunction*
G04 #@! TA.AperFunction,Conductor*
G36*
X103667409Y-38134185D02*
G01*
X103713164Y-38186989D01*
X103723108Y-38256147D01*
X103701945Y-38309623D01*
X103659423Y-38370349D01*
X103659419Y-38370357D01*
X103566655Y-38569291D01*
X103566653Y-38569295D01*
X103566653Y-38569297D01*
X103542642Y-38658902D01*
X103509839Y-38781324D01*
X103509838Y-38781331D01*
X103490708Y-38999997D01*
X103490708Y-39000002D01*
X103509838Y-39218668D01*
X103509839Y-39218675D01*
X103526240Y-39279885D01*
X103566653Y-39430703D01*
X103566654Y-39430706D01*
X103566655Y-39430708D01*
X103659419Y-39629642D01*
X103659423Y-39629650D01*
X103785322Y-39809452D01*
X103785327Y-39809458D01*
X103940541Y-39964672D01*
X103940547Y-39964677D01*
X104120349Y-40090576D01*
X104120351Y-40090577D01*
X104120354Y-40090579D01*
X104180227Y-40118498D01*
X104264120Y-40157618D01*
X104316560Y-40203790D01*
X104335712Y-40270983D01*
X104315496Y-40337865D01*
X104264120Y-40382382D01*
X104120357Y-40449419D01*
X104120349Y-40449423D01*
X103940547Y-40575322D01*
X103940541Y-40575327D01*
X103785327Y-40730541D01*
X103785322Y-40730547D01*
X103659423Y-40910349D01*
X103659419Y-40910357D01*
X103566655Y-41109291D01*
X103509839Y-41321324D01*
X103509838Y-41321331D01*
X103490708Y-41539997D01*
X103490708Y-41540002D01*
X103503465Y-41685826D01*
X103509839Y-41758674D01*
X103566653Y-41970703D01*
X103566654Y-41970706D01*
X103566655Y-41970708D01*
X103659419Y-42169642D01*
X103659423Y-42169650D01*
X103785322Y-42349452D01*
X103785327Y-42349458D01*
X103940541Y-42504672D01*
X103940547Y-42504677D01*
X104120349Y-42630576D01*
X104120351Y-42630577D01*
X104120354Y-42630579D01*
X104179384Y-42658105D01*
X104264120Y-42697618D01*
X104316560Y-42743790D01*
X104335712Y-42810983D01*
X104315496Y-42877865D01*
X104264120Y-42922382D01*
X104120357Y-42989419D01*
X104120349Y-42989423D01*
X103940547Y-43115322D01*
X103940541Y-43115327D01*
X103785327Y-43270541D01*
X103785322Y-43270547D01*
X103659423Y-43450349D01*
X103659419Y-43450357D01*
X103566655Y-43649291D01*
X103509839Y-43861324D01*
X103509838Y-43861331D01*
X103490708Y-44079997D01*
X103490708Y-44080002D01*
X103509838Y-44298668D01*
X103509839Y-44298675D01*
X103514505Y-44316088D01*
X103566653Y-44510703D01*
X103566654Y-44510706D01*
X103566655Y-44510708D01*
X103659419Y-44709642D01*
X103659423Y-44709650D01*
X103785322Y-44889452D01*
X103785327Y-44889458D01*
X103940541Y-45044672D01*
X103940547Y-45044677D01*
X104120349Y-45170576D01*
X104120351Y-45170577D01*
X104120354Y-45170579D01*
X104204963Y-45210032D01*
X104264120Y-45237618D01*
X104316560Y-45283790D01*
X104335712Y-45350983D01*
X104315496Y-45417865D01*
X104264120Y-45462382D01*
X104120357Y-45529419D01*
X104120349Y-45529423D01*
X103940547Y-45655322D01*
X103940541Y-45655327D01*
X103785327Y-45810541D01*
X103785322Y-45810547D01*
X103659423Y-45990349D01*
X103659419Y-45990357D01*
X103566655Y-46189291D01*
X103566653Y-46189295D01*
X103566653Y-46189297D01*
X103558453Y-46219901D01*
X103509839Y-46401323D01*
X103509838Y-46401328D01*
X103509562Y-46404493D01*
X103509050Y-46405800D01*
X103508900Y-46406654D01*
X103508728Y-46406623D01*
X103484107Y-46469561D01*
X103473715Y-46481363D01*
X102705687Y-47249392D01*
X101972221Y-47982858D01*
X101972218Y-47982861D01*
X101902538Y-48052540D01*
X101832859Y-48122219D01*
X101723371Y-48286079D01*
X101723364Y-48286092D01*
X101647950Y-48468160D01*
X101647947Y-48468170D01*
X101609500Y-48661456D01*
X101609500Y-56378544D01*
X101647947Y-56571829D01*
X101647950Y-56571839D01*
X101661011Y-56603369D01*
X101661012Y-56603372D01*
X101723364Y-56753906D01*
X101723366Y-56753911D01*
X101723368Y-56753914D01*
X101832861Y-56917782D01*
X101972218Y-57057139D01*
X101972220Y-57057140D01*
X101979286Y-57064206D01*
X101979285Y-57064206D01*
X101979289Y-57064209D01*
X105908108Y-60993029D01*
X105941593Y-61054352D01*
X105943955Y-61069901D01*
X105954936Y-61195403D01*
X105954938Y-61195413D01*
X106016094Y-61423655D01*
X106016096Y-61423659D01*
X106016097Y-61423663D01*
X106090707Y-61583664D01*
X106115965Y-61637830D01*
X106115967Y-61637834D01*
X106220097Y-61786546D01*
X106251505Y-61831401D01*
X106418599Y-61998495D01*
X106515384Y-62066265D01*
X106612165Y-62134032D01*
X106612167Y-62134033D01*
X106612170Y-62134035D01*
X106826337Y-62233903D01*
X106826343Y-62233904D01*
X106826344Y-62233905D01*
X106881285Y-62248626D01*
X107054592Y-62295063D01*
X107231034Y-62310500D01*
X107289999Y-62315659D01*
X107290000Y-62315659D01*
X107290001Y-62315659D01*
X107348966Y-62310500D01*
X107525408Y-62295063D01*
X107753663Y-62233903D01*
X107967830Y-62134035D01*
X108161401Y-61998495D01*
X108328495Y-61831401D01*
X108458425Y-61645842D01*
X108513002Y-61602217D01*
X108582500Y-61595023D01*
X108644855Y-61626546D01*
X108661575Y-61645842D01*
X108791500Y-61831395D01*
X108791505Y-61831401D01*
X108958599Y-61998495D01*
X109055384Y-62066265D01*
X109152165Y-62134032D01*
X109152167Y-62134033D01*
X109152170Y-62134035D01*
X109366337Y-62233903D01*
X109366343Y-62233904D01*
X109366344Y-62233905D01*
X109421285Y-62248626D01*
X109594592Y-62295063D01*
X109771034Y-62310500D01*
X109829999Y-62315659D01*
X109830000Y-62315659D01*
X109830001Y-62315659D01*
X109888966Y-62310500D01*
X110065408Y-62295063D01*
X110293663Y-62233903D01*
X110507830Y-62134035D01*
X110701401Y-61998495D01*
X110868495Y-61831401D01*
X110998425Y-61645842D01*
X111053002Y-61602217D01*
X111122500Y-61595023D01*
X111184855Y-61626546D01*
X111201575Y-61645842D01*
X111331500Y-61831395D01*
X111331505Y-61831401D01*
X111498599Y-61998495D01*
X111595384Y-62066265D01*
X111692165Y-62134032D01*
X111692167Y-62134033D01*
X111692170Y-62134035D01*
X111906337Y-62233903D01*
X111906343Y-62233904D01*
X111906344Y-62233905D01*
X111961285Y-62248626D01*
X112134592Y-62295063D01*
X112311034Y-62310500D01*
X112369999Y-62315659D01*
X112370000Y-62315659D01*
X112370001Y-62315659D01*
X112428966Y-62310500D01*
X112605408Y-62295063D01*
X112833663Y-62233903D01*
X113047830Y-62134035D01*
X113241401Y-61998495D01*
X113363329Y-61876566D01*
X113424648Y-61843084D01*
X113494340Y-61848068D01*
X113550274Y-61889939D01*
X113567189Y-61920917D01*
X113616202Y-62052328D01*
X113616206Y-62052335D01*
X113702452Y-62167544D01*
X113702455Y-62167547D01*
X113817664Y-62253793D01*
X113817671Y-62253797D01*
X113952517Y-62304091D01*
X113952516Y-62304091D01*
X113959444Y-62304835D01*
X114012127Y-62310500D01*
X114710902Y-62310499D01*
X114777940Y-62330183D01*
X114823695Y-62382987D01*
X114833639Y-62452146D01*
X114804614Y-62515702D01*
X114798582Y-62522180D01*
X105627584Y-71693181D01*
X105566261Y-71726666D01*
X105539903Y-71729500D01*
X92306669Y-71729500D01*
X92306653Y-71729499D01*
X92299057Y-71729499D01*
X92140943Y-71729499D01*
X92033587Y-71758265D01*
X91988210Y-71770424D01*
X91988209Y-71770425D01*
X91938096Y-71799359D01*
X91938095Y-71799360D01*
X91894689Y-71824420D01*
X91851285Y-71849479D01*
X91851282Y-71849481D01*
X91739478Y-71961286D01*
X91503548Y-72197215D01*
X91442225Y-72230700D01*
X91375604Y-72226815D01*
X91269616Y-72190429D01*
X91024335Y-72149500D01*
X90775665Y-72149500D01*
X90530383Y-72190429D01*
X90295197Y-72271169D01*
X90295188Y-72271172D01*
X90076493Y-72389524D01*
X89880257Y-72542261D01*
X89721230Y-72715010D01*
X89661342Y-72751001D01*
X89591504Y-72748900D01*
X89538770Y-72715010D01*
X89461198Y-72630745D01*
X89379744Y-72542262D01*
X89183509Y-72389526D01*
X89183507Y-72389525D01*
X89183506Y-72389524D01*
X88964811Y-72271172D01*
X88964802Y-72271169D01*
X88729616Y-72190429D01*
X88484335Y-72149500D01*
X88235665Y-72149500D01*
X87990383Y-72190429D01*
X87755197Y-72271169D01*
X87755188Y-72271172D01*
X87536493Y-72389524D01*
X87340257Y-72542261D01*
X87181230Y-72715010D01*
X87121342Y-72751001D01*
X87051504Y-72748900D01*
X86998770Y-72715010D01*
X86921198Y-72630745D01*
X86839744Y-72542262D01*
X86643509Y-72389526D01*
X86643507Y-72389525D01*
X86643506Y-72389524D01*
X86424811Y-72271172D01*
X86424802Y-72271169D01*
X86189616Y-72190429D01*
X85944335Y-72149500D01*
X85695665Y-72149500D01*
X85450386Y-72190428D01*
X85344392Y-72226815D01*
X85274593Y-72229964D01*
X85216450Y-72197214D01*
X83246819Y-70227583D01*
X83213334Y-70166260D01*
X83210500Y-70139902D01*
X83210500Y-57014782D01*
X83230185Y-56947743D01*
X83282989Y-56901988D01*
X83352147Y-56892044D01*
X83415703Y-56921069D01*
X83422181Y-56927101D01*
X87648108Y-61153028D01*
X87681593Y-61214351D01*
X87683955Y-61229900D01*
X87694936Y-61355403D01*
X87694938Y-61355413D01*
X87756094Y-61583655D01*
X87756096Y-61583659D01*
X87756097Y-61583663D01*
X87785092Y-61645842D01*
X87855965Y-61797830D01*
X87855967Y-61797834D01*
X87955328Y-61939735D01*
X87991505Y-61991401D01*
X88158599Y-62158495D01*
X88202246Y-62189057D01*
X88352165Y-62294032D01*
X88352167Y-62294033D01*
X88352170Y-62294035D01*
X88566337Y-62393903D01*
X88794592Y-62455063D01*
X88982918Y-62471539D01*
X89029999Y-62475659D01*
X89030000Y-62475659D01*
X89030001Y-62475659D01*
X89069234Y-62472226D01*
X89265408Y-62455063D01*
X89493663Y-62393903D01*
X89707830Y-62294035D01*
X89901401Y-62158495D01*
X90068495Y-61991401D01*
X90198425Y-61805842D01*
X90253002Y-61762217D01*
X90322500Y-61755023D01*
X90384855Y-61786546D01*
X90401575Y-61805842D01*
X90531500Y-61991395D01*
X90531505Y-61991401D01*
X90698599Y-62158495D01*
X90742246Y-62189057D01*
X90892165Y-62294032D01*
X90892167Y-62294033D01*
X90892170Y-62294035D01*
X91106337Y-62393903D01*
X91334592Y-62455063D01*
X91522918Y-62471539D01*
X91569999Y-62475659D01*
X91570000Y-62475659D01*
X91570001Y-62475659D01*
X91609234Y-62472226D01*
X91805408Y-62455063D01*
X92033663Y-62393903D01*
X92247830Y-62294035D01*
X92441401Y-62158495D01*
X92608495Y-61991401D01*
X92738425Y-61805842D01*
X92793002Y-61762217D01*
X92862500Y-61755023D01*
X92924855Y-61786546D01*
X92941575Y-61805842D01*
X93071500Y-61991395D01*
X93071505Y-61991401D01*
X93238599Y-62158495D01*
X93282246Y-62189057D01*
X93432165Y-62294032D01*
X93432167Y-62294033D01*
X93432170Y-62294035D01*
X93646337Y-62393903D01*
X93874592Y-62455063D01*
X94062918Y-62471539D01*
X94109999Y-62475659D01*
X94110000Y-62475659D01*
X94110001Y-62475659D01*
X94149234Y-62472226D01*
X94345408Y-62455063D01*
X94573663Y-62393903D01*
X94787830Y-62294035D01*
X94981401Y-62158495D01*
X95146793Y-61993102D01*
X95208114Y-61959619D01*
X95277805Y-61964603D01*
X95333739Y-62006474D01*
X95350654Y-62037452D01*
X95356202Y-62052328D01*
X95356206Y-62052335D01*
X95442452Y-62167544D01*
X95442455Y-62167547D01*
X95557664Y-62253793D01*
X95557671Y-62253797D01*
X95692517Y-62304091D01*
X95692516Y-62304091D01*
X95699444Y-62304835D01*
X95752127Y-62310500D01*
X97075500Y-62310499D01*
X97142539Y-62330184D01*
X97188294Y-62382987D01*
X97199500Y-62434499D01*
X97199500Y-66539902D01*
X97179815Y-66606941D01*
X97163181Y-66627583D01*
X94171465Y-69619298D01*
X94110142Y-69652783D01*
X94097668Y-69654837D01*
X94010750Y-69664630D01*
X93840478Y-69724210D01*
X93687737Y-69820184D01*
X93560184Y-69947737D01*
X93464211Y-70100476D01*
X93404631Y-70270745D01*
X93404630Y-70270750D01*
X93384435Y-70449996D01*
X93384435Y-70450003D01*
X93404630Y-70629249D01*
X93404631Y-70629254D01*
X93464211Y-70799523D01*
X93544820Y-70927811D01*
X93560184Y-70952262D01*
X93687738Y-71079816D01*
X93840478Y-71175789D01*
X93994878Y-71229816D01*
X94010745Y-71235368D01*
X94010750Y-71235369D01*
X94189996Y-71255565D01*
X94190000Y-71255565D01*
X94190004Y-71255565D01*
X94369249Y-71235369D01*
X94369252Y-71235368D01*
X94369255Y-71235368D01*
X94539522Y-71175789D01*
X94692262Y-71079816D01*
X94819816Y-70952262D01*
X94915789Y-70799522D01*
X94975368Y-70629255D01*
X94985161Y-70542329D01*
X95012226Y-70477918D01*
X95020690Y-70468543D01*
X98168713Y-67320521D01*
X98168716Y-67320520D01*
X98280520Y-67208716D01*
X98330639Y-67121904D01*
X98359577Y-67071785D01*
X98400501Y-66919057D01*
X98400501Y-66760943D01*
X98400501Y-66753348D01*
X98400500Y-66753330D01*
X98400500Y-52783200D01*
X98420185Y-52716161D01*
X98472989Y-52670406D01*
X98542147Y-52660462D01*
X98595623Y-52681625D01*
X98750603Y-52790143D01*
X98750605Y-52790144D01*
X98949466Y-52882874D01*
X98949475Y-52882878D01*
X99161407Y-52939664D01*
X99161417Y-52939666D01*
X99379999Y-52958790D01*
X99380001Y-52958790D01*
X99598582Y-52939666D01*
X99598592Y-52939664D01*
X99810524Y-52882878D01*
X99810533Y-52882874D01*
X100009392Y-52790145D01*
X100072442Y-52745995D01*
X99509409Y-52182962D01*
X99572993Y-52165925D01*
X99687007Y-52100099D01*
X99780099Y-52007007D01*
X99845925Y-51892993D01*
X99862962Y-51829409D01*
X100425995Y-52392442D01*
X100470145Y-52329392D01*
X100562874Y-52130533D01*
X100562878Y-52130524D01*
X100619664Y-51918592D01*
X100619666Y-51918582D01*
X100638790Y-51700000D01*
X100638790Y-51699999D01*
X100619666Y-51481417D01*
X100619664Y-51481407D01*
X100562878Y-51269475D01*
X100562874Y-51269466D01*
X100470144Y-51070605D01*
X100470142Y-51070601D01*
X100425996Y-51007555D01*
X99862962Y-51570589D01*
X99845925Y-51507007D01*
X99780099Y-51392993D01*
X99687007Y-51299901D01*
X99572993Y-51234075D01*
X99509409Y-51217037D01*
X100072443Y-50654003D01*
X100009392Y-50609854D01*
X99864697Y-50542382D01*
X99812258Y-50496210D01*
X99793106Y-50429016D01*
X99813322Y-50362135D01*
X99864697Y-50317618D01*
X100009392Y-50250145D01*
X100072442Y-50205995D01*
X99509410Y-49642962D01*
X99572993Y-49625925D01*
X99687007Y-49560099D01*
X99780099Y-49467007D01*
X99845925Y-49352993D01*
X99862962Y-49289409D01*
X100425995Y-49852442D01*
X100470145Y-49789392D01*
X100562874Y-49590533D01*
X100562878Y-49590524D01*
X100619664Y-49378592D01*
X100619666Y-49378582D01*
X100638790Y-49160000D01*
X100638790Y-49159999D01*
X100619666Y-48941417D01*
X100619664Y-48941407D01*
X100562878Y-48729475D01*
X100562874Y-48729466D01*
X100470144Y-48530605D01*
X100470142Y-48530601D01*
X100425996Y-48467555D01*
X99862962Y-49030589D01*
X99845925Y-48967007D01*
X99780099Y-48852993D01*
X99687007Y-48759901D01*
X99572993Y-48694075D01*
X99509409Y-48677037D01*
X100072443Y-48114003D01*
X100009392Y-48069854D01*
X99864697Y-48002382D01*
X99812258Y-47956210D01*
X99793106Y-47889016D01*
X99813322Y-47822135D01*
X99864697Y-47777618D01*
X100009392Y-47710145D01*
X100072443Y-47665995D01*
X99509410Y-47102962D01*
X99572993Y-47085925D01*
X99687007Y-47020099D01*
X99780099Y-46927007D01*
X99845925Y-46812993D01*
X99862962Y-46749409D01*
X100425995Y-47312442D01*
X100470145Y-47249392D01*
X100562874Y-47050533D01*
X100562878Y-47050524D01*
X100619664Y-46838592D01*
X100619666Y-46838582D01*
X100638790Y-46620000D01*
X100638790Y-46619999D01*
X100619666Y-46401417D01*
X100619664Y-46401407D01*
X100562878Y-46189475D01*
X100562874Y-46189466D01*
X100470144Y-45990605D01*
X100470142Y-45990601D01*
X100425996Y-45927555D01*
X99862962Y-46490589D01*
X99845925Y-46427007D01*
X99780099Y-46312993D01*
X99687007Y-46219901D01*
X99572993Y-46154075D01*
X99509409Y-46137037D01*
X100072443Y-45574003D01*
X100009392Y-45529854D01*
X99865288Y-45462657D01*
X99812849Y-45416484D01*
X99793697Y-45349291D01*
X99813913Y-45282410D01*
X99865288Y-45237893D01*
X100009646Y-45170579D01*
X100189457Y-45044674D01*
X100344674Y-44889457D01*
X100470579Y-44709646D01*
X100563347Y-44510703D01*
X100620161Y-44298674D01*
X100639292Y-44080000D01*
X100620161Y-43861326D01*
X100563347Y-43649297D01*
X100470579Y-43450354D01*
X100470577Y-43450351D01*
X100470576Y-43450349D01*
X100344677Y-43270547D01*
X100344672Y-43270541D01*
X100189458Y-43115327D01*
X100189452Y-43115322D01*
X100009650Y-42989423D01*
X100009642Y-42989419D01*
X99865879Y-42922382D01*
X99813439Y-42876210D01*
X99794287Y-42809017D01*
X99814502Y-42742136D01*
X99865879Y-42697618D01*
X100009646Y-42630579D01*
X100189457Y-42504674D01*
X100344674Y-42349457D01*
X100470579Y-42169646D01*
X100563347Y-41970703D01*
X100620161Y-41758674D01*
X100639292Y-41540000D01*
X100620161Y-41321326D01*
X100563347Y-41109297D01*
X100470579Y-40910354D01*
X100470577Y-40910351D01*
X100470576Y-40910349D01*
X100344677Y-40730547D01*
X100344672Y-40730541D01*
X100189458Y-40575327D01*
X100189452Y-40575322D01*
X100009650Y-40449423D01*
X100009642Y-40449419D01*
X99949497Y-40421373D01*
X99865878Y-40382381D01*
X99813439Y-40336210D01*
X99794287Y-40269017D01*
X99814502Y-40202136D01*
X99865879Y-40157618D01*
X100009646Y-40090579D01*
X100189457Y-39964674D01*
X100344674Y-39809457D01*
X100470579Y-39629646D01*
X100563347Y-39430703D01*
X100620161Y-39218674D01*
X100637626Y-39019046D01*
X100639292Y-39000002D01*
X100639292Y-38999997D01*
X100626252Y-38850945D01*
X100620161Y-38781326D01*
X100563347Y-38569297D01*
X100470579Y-38370354D01*
X100470577Y-38370351D01*
X100470576Y-38370349D01*
X100428055Y-38309623D01*
X100405728Y-38243417D01*
X100422738Y-38175650D01*
X100473686Y-38127837D01*
X100529630Y-38114500D01*
X103600370Y-38114500D01*
X103667409Y-38134185D01*
G37*
G04 #@! TD.AperFunction*
G04 #@! TA.AperFunction,Conductor*
G36*
X69465052Y-46882533D02*
G01*
X69503918Y-46908838D01*
X69553181Y-46958101D01*
X69683181Y-47088101D01*
X69716666Y-47149424D01*
X69719500Y-47175782D01*
X69719500Y-57588541D01*
X69733145Y-57657139D01*
X69755304Y-57768541D01*
X69755305Y-57768545D01*
X69755304Y-57768545D01*
X69757948Y-57781834D01*
X69757949Y-57781838D01*
X69833364Y-57963907D01*
X69833371Y-57963920D01*
X69942859Y-58127780D01*
X69942860Y-58127781D01*
X69942861Y-58127782D01*
X70082218Y-58267139D01*
X70082219Y-58267139D01*
X70089286Y-58274206D01*
X70089285Y-58274206D01*
X70089288Y-58274208D01*
X71260882Y-59445803D01*
X71294367Y-59507125D01*
X71289383Y-59576817D01*
X71247511Y-59632750D01*
X71182047Y-59657167D01*
X71141109Y-59653258D01*
X71035416Y-59624939D01*
X71035412Y-59624938D01*
X71035408Y-59624937D01*
X71035406Y-59624936D01*
X71035403Y-59624936D01*
X70800001Y-59604341D01*
X70799999Y-59604341D01*
X70564596Y-59624936D01*
X70564586Y-59624938D01*
X70336344Y-59686094D01*
X70336335Y-59686098D01*
X70122171Y-59785964D01*
X70122169Y-59785965D01*
X69928597Y-59921505D01*
X69926922Y-59923181D01*
X69926000Y-59923684D01*
X69924449Y-59924986D01*
X69924187Y-59924674D01*
X69865599Y-59956666D01*
X69839241Y-59959500D01*
X69085782Y-59959500D01*
X69018743Y-59939815D01*
X68998101Y-59923181D01*
X65236819Y-56161899D01*
X65203334Y-56100576D01*
X65200500Y-56074218D01*
X65200500Y-48875782D01*
X65220185Y-48808743D01*
X65236819Y-48788101D01*
X66368102Y-47656819D01*
X66429425Y-47623334D01*
X66455783Y-47620500D01*
X67292610Y-47620500D01*
X67359649Y-47640185D01*
X67363733Y-47642925D01*
X67460349Y-47710576D01*
X67460351Y-47710577D01*
X67460354Y-47710579D01*
X67563513Y-47758682D01*
X67604710Y-47777893D01*
X67657150Y-47824065D01*
X67676302Y-47891258D01*
X67656086Y-47958140D01*
X67604712Y-48002657D01*
X67460603Y-48069857D01*
X67397556Y-48114003D01*
X67397555Y-48114003D01*
X67960590Y-48677037D01*
X67897007Y-48694075D01*
X67782993Y-48759901D01*
X67689901Y-48852993D01*
X67624075Y-48967007D01*
X67607037Y-49030589D01*
X67044003Y-48467555D01*
X67044003Y-48467556D01*
X66999856Y-48530604D01*
X66999855Y-48530606D01*
X66907124Y-48729466D01*
X66907121Y-48729475D01*
X66850335Y-48941407D01*
X66850333Y-48941417D01*
X66831210Y-49159999D01*
X66831210Y-49160000D01*
X66850333Y-49378582D01*
X66850335Y-49378592D01*
X66907121Y-49590524D01*
X66907125Y-49590533D01*
X66999854Y-49789392D01*
X67044003Y-49852443D01*
X67607037Y-49289409D01*
X67624075Y-49352993D01*
X67689901Y-49467007D01*
X67782993Y-49560099D01*
X67897007Y-49625925D01*
X67960590Y-49642962D01*
X67397555Y-50205996D01*
X67460601Y-50250142D01*
X67460605Y-50250144D01*
X67604711Y-50317342D01*
X67657150Y-50363514D01*
X67676302Y-50430708D01*
X67656086Y-50497589D01*
X67604711Y-50542106D01*
X67460353Y-50609421D01*
X67460349Y-50609423D01*
X67280547Y-50735322D01*
X67280541Y-50735327D01*
X67125327Y-50890541D01*
X67125322Y-50890547D01*
X66999423Y-51070349D01*
X66999419Y-51070357D01*
X66906655Y-51269291D01*
X66906653Y-51269295D01*
X66906653Y-51269297D01*
X66893685Y-51317694D01*
X66849839Y-51481324D01*
X66849838Y-51481331D01*
X66830708Y-51699997D01*
X66830708Y-51700002D01*
X66849831Y-51918592D01*
X66849839Y-51918674D01*
X66906653Y-52130703D01*
X66906654Y-52130706D01*
X66906655Y-52130708D01*
X66999419Y-52329642D01*
X66999423Y-52329650D01*
X67125322Y-52509452D01*
X67125327Y-52509458D01*
X67280541Y-52664672D01*
X67280547Y-52664677D01*
X67460349Y-52790576D01*
X67460351Y-52790577D01*
X67460354Y-52790579D01*
X67659297Y-52883347D01*
X67871326Y-52940161D01*
X68027521Y-52953826D01*
X68089998Y-52959292D01*
X68090000Y-52959292D01*
X68090002Y-52959292D01*
X68144668Y-52954509D01*
X68308674Y-52940161D01*
X68520703Y-52883347D01*
X68719646Y-52790579D01*
X68899457Y-52664674D01*
X69054674Y-52509457D01*
X69180579Y-52329646D01*
X69273347Y-52130703D01*
X69330161Y-51918674D01*
X69349292Y-51700000D01*
X69346891Y-51672560D01*
X69341026Y-51605521D01*
X69330161Y-51481326D01*
X69273347Y-51269297D01*
X69180579Y-51070354D01*
X69180577Y-51070351D01*
X69180576Y-51070349D01*
X69054677Y-50890547D01*
X69054672Y-50890541D01*
X68899458Y-50735327D01*
X68899452Y-50735322D01*
X68719650Y-50609423D01*
X68719646Y-50609421D01*
X68575288Y-50542106D01*
X68522849Y-50495934D01*
X68503697Y-50428740D01*
X68523913Y-50361859D01*
X68575289Y-50317342D01*
X68719390Y-50250146D01*
X68782443Y-50205995D01*
X68219410Y-49642962D01*
X68282993Y-49625925D01*
X68397007Y-49560099D01*
X68490099Y-49467007D01*
X68555925Y-49352993D01*
X68572962Y-49289409D01*
X69135995Y-49852442D01*
X69180145Y-49789392D01*
X69272874Y-49590533D01*
X69272878Y-49590524D01*
X69329664Y-49378592D01*
X69329666Y-49378582D01*
X69348790Y-49160000D01*
X69348790Y-49159999D01*
X69329666Y-48941417D01*
X69329664Y-48941407D01*
X69272878Y-48729475D01*
X69272874Y-48729466D01*
X69180144Y-48530605D01*
X69180142Y-48530601D01*
X69135996Y-48467555D01*
X68572962Y-49030589D01*
X68555925Y-48967007D01*
X68490099Y-48852993D01*
X68397007Y-48759901D01*
X68282993Y-48694075D01*
X68219409Y-48677037D01*
X68782443Y-48114003D01*
X68719392Y-48069854D01*
X68575288Y-48002657D01*
X68522849Y-47956484D01*
X68503697Y-47889291D01*
X68523913Y-47822410D01*
X68575288Y-47777893D01*
X68719646Y-47710579D01*
X68899457Y-47584674D01*
X69054674Y-47429457D01*
X69180579Y-47249646D01*
X69273347Y-47050703D01*
X69296465Y-46964424D01*
X69332829Y-46904767D01*
X69395676Y-46874238D01*
X69465052Y-46882533D01*
G37*
G04 #@! TD.AperFunction*
G04 #@! TA.AperFunction,Conductor*
G36*
X86214075Y-49352993D02*
G01*
X86279901Y-49467007D01*
X86372993Y-49560099D01*
X86487007Y-49625925D01*
X86550590Y-49642962D01*
X85987555Y-50205996D01*
X86050601Y-50250142D01*
X86050605Y-50250144D01*
X86194711Y-50317342D01*
X86247150Y-50363514D01*
X86266302Y-50430708D01*
X86246086Y-50497589D01*
X86194711Y-50542106D01*
X86050353Y-50609421D01*
X86050349Y-50609423D01*
X85870547Y-50735322D01*
X85870541Y-50735327D01*
X85715327Y-50890541D01*
X85715322Y-50890547D01*
X85589423Y-51070349D01*
X85589419Y-51070357D01*
X85496655Y-51269291D01*
X85496653Y-51269295D01*
X85496653Y-51269297D01*
X85483685Y-51317694D01*
X85439839Y-51481324D01*
X85439838Y-51481331D01*
X85420708Y-51699997D01*
X85420708Y-51700002D01*
X85439831Y-51918592D01*
X85439839Y-51918674D01*
X85496653Y-52130703D01*
X85496654Y-52130706D01*
X85496655Y-52130708D01*
X85589419Y-52329642D01*
X85589423Y-52329650D01*
X85715322Y-52509452D01*
X85715327Y-52509458D01*
X85870541Y-52664672D01*
X85870547Y-52664677D01*
X86050349Y-52790576D01*
X86050351Y-52790577D01*
X86050354Y-52790579D01*
X86249297Y-52883347D01*
X86461326Y-52940161D01*
X86617521Y-52953826D01*
X86679998Y-52959292D01*
X86680000Y-52959292D01*
X86680002Y-52959292D01*
X86734668Y-52954509D01*
X86898674Y-52940161D01*
X87110703Y-52883347D01*
X87309646Y-52790579D01*
X87489457Y-52664674D01*
X87644674Y-52509457D01*
X87770579Y-52329646D01*
X87853118Y-52152638D01*
X87899290Y-52100199D01*
X87966483Y-52081047D01*
X88033364Y-52101262D01*
X88078699Y-52154428D01*
X88089500Y-52205043D01*
X88089500Y-58465218D01*
X88069815Y-58532257D01*
X88017011Y-58578012D01*
X87947853Y-58587956D01*
X87884297Y-58558931D01*
X87877819Y-58552899D01*
X84966819Y-55641899D01*
X84933334Y-55580576D01*
X84930500Y-55554218D01*
X84930500Y-49835781D01*
X84950185Y-49768742D01*
X84966814Y-49748105D01*
X85266489Y-49448430D01*
X85327810Y-49414947D01*
X85397502Y-49419931D01*
X85453435Y-49461803D01*
X85473943Y-49504020D01*
X85497121Y-49590524D01*
X85497125Y-49590533D01*
X85589854Y-49789392D01*
X85634003Y-49852443D01*
X86197037Y-49289408D01*
X86214075Y-49352993D01*
G37*
G04 #@! TD.AperFunction*
G04 #@! TA.AperFunction,Conductor*
G36*
X106125052Y-46882533D02*
G01*
X106163920Y-46908840D01*
X106213181Y-46958101D01*
X106246666Y-47019424D01*
X106249500Y-47045782D01*
X106249500Y-49071262D01*
X106229815Y-49138301D01*
X106206928Y-49158131D01*
X106214561Y-49162458D01*
X106247069Y-49224305D01*
X106249500Y-49248737D01*
X106249500Y-51605521D01*
X106229815Y-51672560D01*
X106198918Y-51699332D01*
X106214561Y-51708199D01*
X106247069Y-51770046D01*
X106249500Y-51794478D01*
X106249500Y-58205217D01*
X106229815Y-58272256D01*
X106177011Y-58318011D01*
X106107853Y-58327955D01*
X106044297Y-58298930D01*
X106037819Y-58292898D01*
X103646819Y-55901898D01*
X103613334Y-55840575D01*
X103610500Y-55814217D01*
X103610500Y-52633993D01*
X103630185Y-52566954D01*
X103682989Y-52521199D01*
X103752147Y-52511255D01*
X103815703Y-52540280D01*
X103822181Y-52546312D01*
X103940541Y-52664672D01*
X103940547Y-52664677D01*
X104120349Y-52790576D01*
X104120351Y-52790577D01*
X104120354Y-52790579D01*
X104319297Y-52883347D01*
X104531326Y-52940161D01*
X104687521Y-52953826D01*
X104749998Y-52959292D01*
X104750000Y-52959292D01*
X104750002Y-52959292D01*
X104804668Y-52954509D01*
X104968674Y-52940161D01*
X105180703Y-52883347D01*
X105379646Y-52790579D01*
X105559457Y-52664674D01*
X105714674Y-52509457D01*
X105840579Y-52329646D01*
X105933347Y-52130703D01*
X105990161Y-51918674D01*
X106001972Y-51783671D01*
X106027424Y-51718602D01*
X106050352Y-51701999D01*
X106044297Y-51699234D01*
X106006523Y-51640456D01*
X106001972Y-51616328D01*
X105998784Y-51579899D01*
X105990161Y-51481326D01*
X105933347Y-51269297D01*
X105840579Y-51070354D01*
X105840577Y-51070351D01*
X105840576Y-51070349D01*
X105714677Y-50890547D01*
X105714672Y-50890541D01*
X105559458Y-50735327D01*
X105559452Y-50735322D01*
X105379650Y-50609423D01*
X105379646Y-50609421D01*
X105235288Y-50542106D01*
X105182849Y-50495934D01*
X105163697Y-50428740D01*
X105183913Y-50361859D01*
X105235289Y-50317342D01*
X105379390Y-50250146D01*
X105442442Y-50205995D01*
X104879410Y-49642962D01*
X104942993Y-49625925D01*
X105057007Y-49560099D01*
X105150099Y-49467007D01*
X105215925Y-49352993D01*
X105232962Y-49289409D01*
X105795995Y-49852442D01*
X105840145Y-49789392D01*
X105932874Y-49590533D01*
X105932878Y-49590524D01*
X105989664Y-49378592D01*
X105989666Y-49378581D01*
X106001972Y-49237930D01*
X106027424Y-49172861D01*
X106042397Y-49162018D01*
X106006523Y-49106197D01*
X106001972Y-49082070D01*
X105989666Y-48941417D01*
X105989664Y-48941407D01*
X105932878Y-48729475D01*
X105932874Y-48729466D01*
X105840144Y-48530605D01*
X105840142Y-48530601D01*
X105795996Y-48467555D01*
X105232962Y-49030589D01*
X105215925Y-48967007D01*
X105150099Y-48852993D01*
X105057007Y-48759901D01*
X104942993Y-48694075D01*
X104879408Y-48677037D01*
X105442443Y-48114003D01*
X105379392Y-48069854D01*
X105235288Y-48002657D01*
X105182849Y-47956484D01*
X105163697Y-47889291D01*
X105183913Y-47822410D01*
X105235288Y-47777893D01*
X105379646Y-47710579D01*
X105559457Y-47584674D01*
X105714674Y-47429457D01*
X105840579Y-47249646D01*
X105933347Y-47050703D01*
X105956465Y-46964424D01*
X105992829Y-46904767D01*
X106055676Y-46874238D01*
X106125052Y-46882533D01*
G37*
G04 #@! TD.AperFunction*
G04 #@! TA.AperFunction,Conductor*
G36*
X98297409Y-38134185D02*
G01*
X98343164Y-38186989D01*
X98353108Y-38256147D01*
X98331945Y-38309623D01*
X98289423Y-38370349D01*
X98289419Y-38370357D01*
X98196655Y-38569291D01*
X98196653Y-38569295D01*
X98196653Y-38569297D01*
X98172642Y-38658902D01*
X98139839Y-38781324D01*
X98139838Y-38781331D01*
X98120708Y-38999997D01*
X98120708Y-39000002D01*
X98139838Y-39218668D01*
X98139839Y-39218675D01*
X98156240Y-39279885D01*
X98196653Y-39430703D01*
X98196654Y-39430706D01*
X98196655Y-39430708D01*
X98289419Y-39629642D01*
X98289423Y-39629650D01*
X98415322Y-39809452D01*
X98415327Y-39809458D01*
X98570541Y-39964672D01*
X98570547Y-39964677D01*
X98750349Y-40090576D01*
X98750351Y-40090577D01*
X98750354Y-40090579D01*
X98810227Y-40118498D01*
X98894120Y-40157618D01*
X98946560Y-40203790D01*
X98965712Y-40270983D01*
X98945496Y-40337865D01*
X98894120Y-40382382D01*
X98750357Y-40449419D01*
X98750349Y-40449423D01*
X98570547Y-40575322D01*
X98570541Y-40575327D01*
X98415327Y-40730541D01*
X98415322Y-40730547D01*
X98289423Y-40910349D01*
X98289419Y-40910357D01*
X98196655Y-41109291D01*
X98139839Y-41321324D01*
X98139838Y-41321331D01*
X98120708Y-41539997D01*
X98120708Y-41540002D01*
X98133465Y-41685826D01*
X98139839Y-41758674D01*
X98196653Y-41970703D01*
X98196654Y-41970706D01*
X98196655Y-41970708D01*
X98289419Y-42169642D01*
X98289423Y-42169650D01*
X98415322Y-42349452D01*
X98415327Y-42349458D01*
X98570541Y-42504672D01*
X98570547Y-42504677D01*
X98750349Y-42630576D01*
X98750351Y-42630577D01*
X98750354Y-42630579D01*
X98809384Y-42658105D01*
X98894120Y-42697618D01*
X98946560Y-42743790D01*
X98965712Y-42810983D01*
X98945496Y-42877865D01*
X98894120Y-42922382D01*
X98750357Y-42989419D01*
X98750349Y-42989423D01*
X98570547Y-43115322D01*
X98570541Y-43115327D01*
X98415327Y-43270541D01*
X98415322Y-43270547D01*
X98289423Y-43450349D01*
X98289419Y-43450357D01*
X98196655Y-43649291D01*
X98139839Y-43861324D01*
X98139838Y-43861331D01*
X98120708Y-44079997D01*
X98120708Y-44080002D01*
X98139838Y-44298668D01*
X98139839Y-44298675D01*
X98144505Y-44316088D01*
X98196653Y-44510703D01*
X98196654Y-44510706D01*
X98196655Y-44510708D01*
X98289419Y-44709642D01*
X98289423Y-44709650D01*
X98415322Y-44889452D01*
X98415327Y-44889458D01*
X98570541Y-45044672D01*
X98570547Y-45044677D01*
X98750349Y-45170576D01*
X98750351Y-45170577D01*
X98750354Y-45170579D01*
X98853513Y-45218682D01*
X98894710Y-45237893D01*
X98947150Y-45284065D01*
X98966302Y-45351258D01*
X98946086Y-45418140D01*
X98894712Y-45462657D01*
X98750603Y-45529857D01*
X98687556Y-45574003D01*
X98687555Y-45574003D01*
X99250590Y-46137037D01*
X99187007Y-46154075D01*
X99072993Y-46219901D01*
X98979901Y-46312993D01*
X98914075Y-46427007D01*
X98897037Y-46490589D01*
X98334003Y-45927555D01*
X98334003Y-45927556D01*
X98289856Y-45990604D01*
X98289855Y-45990606D01*
X98197124Y-46189466D01*
X98197121Y-46189475D01*
X98140335Y-46401407D01*
X98140333Y-46401417D01*
X98121210Y-46619999D01*
X98121210Y-46620000D01*
X98140333Y-46838582D01*
X98140335Y-46838592D01*
X98197121Y-47050524D01*
X98197125Y-47050533D01*
X98289854Y-47249392D01*
X98334003Y-47312443D01*
X98897037Y-46749409D01*
X98914075Y-46812993D01*
X98979901Y-46927007D01*
X99072993Y-47020099D01*
X99187007Y-47085925D01*
X99250590Y-47102962D01*
X98687555Y-47665996D01*
X98750601Y-47710142D01*
X98750605Y-47710144D01*
X98895302Y-47777618D01*
X98947741Y-47823790D01*
X98966893Y-47890984D01*
X98946677Y-47957865D01*
X98895302Y-48002382D01*
X98750606Y-48069855D01*
X98750604Y-48069856D01*
X98687556Y-48114003D01*
X98687555Y-48114003D01*
X99250590Y-48677037D01*
X99187007Y-48694075D01*
X99072993Y-48759901D01*
X98979901Y-48852993D01*
X98914075Y-48967007D01*
X98897037Y-49030589D01*
X98334003Y-48467555D01*
X98334003Y-48467556D01*
X98289856Y-48530604D01*
X98289855Y-48530606D01*
X98197124Y-48729466D01*
X98197121Y-48729475D01*
X98140335Y-48941407D01*
X98140333Y-48941417D01*
X98121210Y-49159999D01*
X98121210Y-49160000D01*
X98140333Y-49378582D01*
X98140335Y-49378592D01*
X98197121Y-49590524D01*
X98197125Y-49590533D01*
X98289854Y-49789392D01*
X98334003Y-49852443D01*
X98897037Y-49289409D01*
X98914075Y-49352993D01*
X98979901Y-49467007D01*
X99072993Y-49560099D01*
X99187007Y-49625925D01*
X99250590Y-49642962D01*
X98687555Y-50205996D01*
X98750601Y-50250142D01*
X98750605Y-50250144D01*
X98895302Y-50317618D01*
X98947741Y-50363790D01*
X98966893Y-50430984D01*
X98946677Y-50497865D01*
X98895302Y-50542382D01*
X98750606Y-50609855D01*
X98750604Y-50609856D01*
X98687556Y-50654003D01*
X98687555Y-50654003D01*
X99250590Y-51217037D01*
X99187007Y-51234075D01*
X99072993Y-51299901D01*
X98979901Y-51392993D01*
X98914075Y-51507007D01*
X98897037Y-51570590D01*
X98334003Y-51007555D01*
X98334003Y-51007556D01*
X98289857Y-51070603D01*
X98222657Y-51214712D01*
X98176484Y-51267151D01*
X98109290Y-51286302D01*
X98042409Y-51266086D01*
X97997893Y-51214710D01*
X97978682Y-51173513D01*
X97930579Y-51070354D01*
X97930577Y-51070351D01*
X97930576Y-51070349D01*
X97804677Y-50890547D01*
X97804672Y-50890541D01*
X97649458Y-50735327D01*
X97649452Y-50735322D01*
X97469650Y-50609423D01*
X97469642Y-50609419D01*
X97270708Y-50516655D01*
X97270706Y-50516654D01*
X97270703Y-50516653D01*
X97119885Y-50476240D01*
X97058675Y-50459839D01*
X97058668Y-50459838D01*
X96840002Y-50440708D01*
X96839998Y-50440708D01*
X96621331Y-50459838D01*
X96621324Y-50459839D01*
X96498902Y-50492642D01*
X96409297Y-50516653D01*
X96409295Y-50516653D01*
X96409291Y-50516655D01*
X96210357Y-50609419D01*
X96210349Y-50609423D01*
X96030547Y-50735322D01*
X96030541Y-50735327D01*
X95875327Y-50890541D01*
X95875322Y-50890547D01*
X95749423Y-51070349D01*
X95749419Y-51070357D01*
X95682382Y-51214120D01*
X95636210Y-51266560D01*
X95569017Y-51285712D01*
X95502135Y-51265496D01*
X95457618Y-51214120D01*
X95430032Y-51154963D01*
X95390579Y-51070354D01*
X95390577Y-51070351D01*
X95390576Y-51070349D01*
X95264677Y-50890547D01*
X95264672Y-50890541D01*
X95109458Y-50735327D01*
X95109452Y-50735322D01*
X94929650Y-50609423D01*
X94929642Y-50609419D01*
X94730708Y-50516655D01*
X94730706Y-50516654D01*
X94730703Y-50516653D01*
X94579885Y-50476240D01*
X94518675Y-50459839D01*
X94518668Y-50459838D01*
X94300002Y-50440708D01*
X94299998Y-50440708D01*
X94081331Y-50459838D01*
X94081324Y-50459839D01*
X93958902Y-50492642D01*
X93869297Y-50516653D01*
X93869295Y-50516653D01*
X93869291Y-50516655D01*
X93670357Y-50609419D01*
X93670349Y-50609423D01*
X93505623Y-50724766D01*
X93439417Y-50747093D01*
X93371650Y-50730083D01*
X93323837Y-50679135D01*
X93310500Y-50623191D01*
X93310500Y-44531456D01*
X93278749Y-44371836D01*
X93278749Y-44371835D01*
X93272052Y-44338171D01*
X93272051Y-44338164D01*
X93205933Y-44178541D01*
X93196632Y-44156086D01*
X93183264Y-44136079D01*
X93087140Y-43992219D01*
X93067135Y-43972214D01*
X92947782Y-43852861D01*
X92947781Y-43852860D01*
X87956283Y-38861363D01*
X87922799Y-38800041D01*
X87920438Y-38784496D01*
X87920161Y-38781326D01*
X87863347Y-38569297D01*
X87770579Y-38370354D01*
X87770577Y-38370351D01*
X87770576Y-38370349D01*
X87728055Y-38309623D01*
X87705728Y-38243417D01*
X87722738Y-38175650D01*
X87773686Y-38127837D01*
X87829630Y-38114500D01*
X98230370Y-38114500D01*
X98297409Y-38134185D01*
G37*
G04 #@! TD.AperFunction*
G04 #@! TA.AperFunction,Conductor*
G36*
X116122189Y-38739559D02*
G01*
X116178122Y-38781431D01*
X116202539Y-38846895D01*
X116202383Y-38866548D01*
X116190708Y-38999997D01*
X116190708Y-39000002D01*
X116209838Y-39218668D01*
X116209839Y-39218675D01*
X116226240Y-39279885D01*
X116266653Y-39430703D01*
X116266654Y-39430706D01*
X116266655Y-39430708D01*
X116359419Y-39629642D01*
X116359423Y-39629650D01*
X116485322Y-39809452D01*
X116485327Y-39809458D01*
X116640541Y-39964672D01*
X116640547Y-39964677D01*
X116820349Y-40090576D01*
X116820351Y-40090577D01*
X116820354Y-40090579D01*
X116880227Y-40118498D01*
X116964120Y-40157618D01*
X117016560Y-40203790D01*
X117035712Y-40270983D01*
X117015496Y-40337865D01*
X116964120Y-40382382D01*
X116820357Y-40449419D01*
X116820349Y-40449423D01*
X116640547Y-40575322D01*
X116640541Y-40575327D01*
X116485327Y-40730541D01*
X116485322Y-40730547D01*
X116359423Y-40910349D01*
X116359419Y-40910357D01*
X116266655Y-41109291D01*
X116209839Y-41321324D01*
X116209838Y-41321331D01*
X116190708Y-41539997D01*
X116190708Y-41540002D01*
X116203465Y-41685826D01*
X116209839Y-41758674D01*
X116266653Y-41970703D01*
X116266654Y-41970706D01*
X116266655Y-41970708D01*
X116359419Y-42169642D01*
X116359423Y-42169650D01*
X116485322Y-42349452D01*
X116485327Y-42349458D01*
X116640541Y-42504672D01*
X116640547Y-42504677D01*
X116820349Y-42630576D01*
X116820351Y-42630577D01*
X116820354Y-42630579D01*
X116879384Y-42658105D01*
X116964120Y-42697618D01*
X117016560Y-42743790D01*
X117035712Y-42810983D01*
X117015496Y-42877865D01*
X116964120Y-42922382D01*
X116820357Y-42989419D01*
X116820349Y-42989423D01*
X116640547Y-43115322D01*
X116640541Y-43115327D01*
X116485327Y-43270541D01*
X116485322Y-43270547D01*
X116359423Y-43450349D01*
X116359419Y-43450357D01*
X116266655Y-43649291D01*
X116209839Y-43861324D01*
X116209838Y-43861331D01*
X116190708Y-44079997D01*
X116190708Y-44080002D01*
X116209838Y-44298668D01*
X116209839Y-44298675D01*
X116214505Y-44316088D01*
X116266653Y-44510703D01*
X116266654Y-44510706D01*
X116266655Y-44510708D01*
X116359419Y-44709642D01*
X116359423Y-44709650D01*
X116485322Y-44889452D01*
X116485327Y-44889458D01*
X116640541Y-45044672D01*
X116640547Y-45044677D01*
X116820349Y-45170576D01*
X116820351Y-45170577D01*
X116820354Y-45170579D01*
X116923513Y-45218682D01*
X116964710Y-45237893D01*
X117017150Y-45284065D01*
X117036302Y-45351258D01*
X117016086Y-45418140D01*
X116964712Y-45462657D01*
X116820603Y-45529857D01*
X116757556Y-45574003D01*
X116757555Y-45574003D01*
X117320590Y-46137037D01*
X117257007Y-46154075D01*
X117142993Y-46219901D01*
X117049901Y-46312993D01*
X116984075Y-46427007D01*
X116967037Y-46490589D01*
X116404003Y-45927555D01*
X116404003Y-45927556D01*
X116359856Y-45990604D01*
X116359855Y-45990606D01*
X116267124Y-46189466D01*
X116267121Y-46189475D01*
X116210335Y-46401407D01*
X116210333Y-46401417D01*
X116191210Y-46619999D01*
X116191210Y-46620000D01*
X116210333Y-46838582D01*
X116210335Y-46838592D01*
X116267121Y-47050524D01*
X116267125Y-47050533D01*
X116359854Y-47249392D01*
X116404003Y-47312443D01*
X116967037Y-46749409D01*
X116984075Y-46812993D01*
X117049901Y-46927007D01*
X117142993Y-47020099D01*
X117257007Y-47085925D01*
X117320590Y-47102962D01*
X116757555Y-47665996D01*
X116820601Y-47710142D01*
X116820605Y-47710144D01*
X116965302Y-47777618D01*
X117017741Y-47823790D01*
X117036893Y-47890984D01*
X117016677Y-47957865D01*
X116965302Y-48002382D01*
X116820606Y-48069855D01*
X116820604Y-48069856D01*
X116757556Y-48114003D01*
X116757555Y-48114003D01*
X117320590Y-48677037D01*
X117257007Y-48694075D01*
X117142993Y-48759901D01*
X117049901Y-48852993D01*
X116984075Y-48967007D01*
X116967037Y-49030589D01*
X116404003Y-48467555D01*
X116404003Y-48467556D01*
X116359856Y-48530604D01*
X116359855Y-48530606D01*
X116267124Y-48729466D01*
X116267121Y-48729475D01*
X116210335Y-48941407D01*
X116210333Y-48941417D01*
X116191210Y-49159999D01*
X116191210Y-49160000D01*
X116210333Y-49378582D01*
X116210335Y-49378592D01*
X116267121Y-49590524D01*
X116267125Y-49590533D01*
X116359854Y-49789392D01*
X116404003Y-49852443D01*
X116967037Y-49289409D01*
X116984075Y-49352993D01*
X117049901Y-49467007D01*
X117142993Y-49560099D01*
X117257007Y-49625925D01*
X117320590Y-49642962D01*
X116757555Y-50205996D01*
X116820601Y-50250142D01*
X116820605Y-50250144D01*
X116965302Y-50317618D01*
X117017741Y-50363790D01*
X117036893Y-50430984D01*
X117016677Y-50497865D01*
X116965302Y-50542382D01*
X116820606Y-50609855D01*
X116820604Y-50609856D01*
X116757556Y-50654003D01*
X116757555Y-50654003D01*
X117320590Y-51217037D01*
X117257007Y-51234075D01*
X117142993Y-51299901D01*
X117049901Y-51392993D01*
X116984075Y-51507007D01*
X116967037Y-51570590D01*
X116582024Y-51185577D01*
X116549931Y-51129990D01*
X116523577Y-51031634D01*
X116523577Y-51031633D01*
X116460777Y-50922861D01*
X116444520Y-50894702D01*
X116444517Y-50894699D01*
X116444516Y-50894697D01*
X116328397Y-50778578D01*
X116328374Y-50778557D01*
X115616819Y-50067002D01*
X115583334Y-50005679D01*
X115580500Y-49979321D01*
X115580500Y-39230096D01*
X115600185Y-39163057D01*
X115616815Y-39142419D01*
X115991175Y-38768059D01*
X116052497Y-38734575D01*
X116122189Y-38739559D01*
G37*
G04 #@! TD.AperFunction*
G04 #@! TA.AperFunction,Conductor*
G36*
X87725995Y-49852442D02*
G01*
X87770145Y-49789392D01*
X87853118Y-49611457D01*
X87899290Y-49559018D01*
X87966484Y-49539866D01*
X88033365Y-49560082D01*
X88078699Y-49613247D01*
X88089500Y-49663862D01*
X88089500Y-51194956D01*
X88069815Y-51261995D01*
X88017011Y-51307750D01*
X87947853Y-51317694D01*
X87884297Y-51288669D01*
X87853118Y-51247360D01*
X87816376Y-51168568D01*
X87770579Y-51070354D01*
X87770577Y-51070351D01*
X87770576Y-51070349D01*
X87644677Y-50890547D01*
X87644672Y-50890541D01*
X87489458Y-50735327D01*
X87489452Y-50735322D01*
X87309650Y-50609423D01*
X87309646Y-50609421D01*
X87165288Y-50542106D01*
X87112849Y-50495934D01*
X87093697Y-50428740D01*
X87113913Y-50361859D01*
X87165289Y-50317342D01*
X87309390Y-50250146D01*
X87372442Y-50205995D01*
X86809410Y-49642962D01*
X86872993Y-49625925D01*
X86987007Y-49560099D01*
X87080099Y-49467007D01*
X87145925Y-49352993D01*
X87162962Y-49289409D01*
X87725995Y-49852442D01*
G37*
G04 #@! TD.AperFunction*
G04 #@! TA.AperFunction,Conductor*
G36*
X104284075Y-49352993D02*
G01*
X104349901Y-49467007D01*
X104442993Y-49560099D01*
X104557007Y-49625925D01*
X104620590Y-49642962D01*
X104057555Y-50205996D01*
X104120601Y-50250142D01*
X104120605Y-50250144D01*
X104264711Y-50317342D01*
X104317150Y-50363514D01*
X104336302Y-50430708D01*
X104316086Y-50497589D01*
X104264711Y-50542106D01*
X104120353Y-50609421D01*
X104120349Y-50609423D01*
X103940547Y-50735322D01*
X103940541Y-50735327D01*
X103822181Y-50853688D01*
X103760858Y-50887173D01*
X103691166Y-50882189D01*
X103635233Y-50840317D01*
X103610816Y-50774853D01*
X103610500Y-50766007D01*
X103610500Y-49979585D01*
X103630185Y-49912546D01*
X103682989Y-49866791D01*
X103691043Y-49865403D01*
X104267037Y-49289408D01*
X104284075Y-49352993D01*
G37*
G04 #@! TD.AperFunction*
G04 #@! TA.AperFunction,Conductor*
G36*
X88033364Y-47021262D02*
G01*
X88078699Y-47074428D01*
X88089500Y-47125043D01*
X88089500Y-48656137D01*
X88069815Y-48723176D01*
X88017011Y-48768931D01*
X87947853Y-48778875D01*
X87884297Y-48749850D01*
X87853118Y-48708542D01*
X87770144Y-48530605D01*
X87770142Y-48530601D01*
X87725996Y-48467555D01*
X87162962Y-49030589D01*
X87145925Y-48967007D01*
X87080099Y-48852993D01*
X86987007Y-48759901D01*
X86872993Y-48694075D01*
X86809408Y-48677037D01*
X87372443Y-48114003D01*
X87309392Y-48069854D01*
X87165288Y-48002657D01*
X87112849Y-47956484D01*
X87093697Y-47889291D01*
X87113913Y-47822410D01*
X87165288Y-47777893D01*
X87309646Y-47710579D01*
X87489457Y-47584674D01*
X87644674Y-47429457D01*
X87770579Y-47249646D01*
X87853118Y-47072638D01*
X87899290Y-47020199D01*
X87966483Y-47001047D01*
X88033364Y-47021262D01*
G37*
G04 #@! TD.AperFunction*
G04 #@! TA.AperFunction,Conductor*
G36*
X121752539Y-28320185D02*
G01*
X121798294Y-28372989D01*
X121809500Y-28424500D01*
X121809500Y-140265500D01*
X121789815Y-140332539D01*
X121737011Y-140378294D01*
X121685500Y-140389500D01*
X62234500Y-140389500D01*
X62167461Y-140369815D01*
X62121706Y-140317011D01*
X62110500Y-140265500D01*
X62110500Y-136478711D01*
X64169500Y-136478711D01*
X64169500Y-136721288D01*
X64201161Y-136961785D01*
X64263947Y-137196104D01*
X64301973Y-137287906D01*
X64356776Y-137420212D01*
X64478064Y-137630289D01*
X64478066Y-137630292D01*
X64478067Y-137630293D01*
X64625733Y-137822736D01*
X64625739Y-137822743D01*
X64797256Y-137994260D01*
X64797262Y-137994265D01*
X64989711Y-138141936D01*
X65199788Y-138263224D01*
X65423900Y-138356054D01*
X65658211Y-138418838D01*
X65838586Y-138442584D01*
X65898711Y-138450500D01*
X65898712Y-138450500D01*
X66141289Y-138450500D01*
X66189388Y-138444167D01*
X66381789Y-138418838D01*
X66616100Y-138356054D01*
X66840212Y-138263224D01*
X67050289Y-138141936D01*
X67242738Y-137994265D01*
X67414265Y-137822738D01*
X67561936Y-137630289D01*
X67647461Y-137482155D01*
X78365000Y-137482155D01*
X78365000Y-138130000D01*
X79281988Y-138130000D01*
X79249075Y-138187007D01*
X79215000Y-138314174D01*
X79215000Y-138445826D01*
X79249075Y-138572993D01*
X79281988Y-138630000D01*
X78365000Y-138630000D01*
X78365000Y-139277844D01*
X78371401Y-139337372D01*
X78371403Y-139337379D01*
X78421645Y-139472086D01*
X78421649Y-139472093D01*
X78507809Y-139587187D01*
X78507812Y-139587190D01*
X78622906Y-139673350D01*
X78622913Y-139673354D01*
X78757620Y-139723596D01*
X78757627Y-139723598D01*
X78817155Y-139729999D01*
X78817172Y-139730000D01*
X79465000Y-139730000D01*
X79465000Y-138813012D01*
X79522007Y-138845925D01*
X79649174Y-138880000D01*
X79780826Y-138880000D01*
X79907993Y-138845925D01*
X79965000Y-138813012D01*
X79965000Y-139730000D01*
X80612828Y-139730000D01*
X80612844Y-139729999D01*
X80672372Y-139723598D01*
X80672379Y-139723596D01*
X80807086Y-139673354D01*
X80807093Y-139673350D01*
X80922187Y-139587190D01*
X80922190Y-139587187D01*
X81008350Y-139472093D01*
X81008354Y-139472086D01*
X81058596Y-139337379D01*
X81058598Y-139337372D01*
X81064999Y-139277844D01*
X81065000Y-139277827D01*
X81065000Y-138630000D01*
X80148012Y-138630000D01*
X80180925Y-138572993D01*
X80215000Y-138445826D01*
X80215000Y-138314174D01*
X80180925Y-138187007D01*
X80148012Y-138130000D01*
X81065000Y-138130000D01*
X81065000Y-137482172D01*
X81064999Y-137482155D01*
X81058598Y-137422627D01*
X81058596Y-137422620D01*
X81008354Y-137287913D01*
X81008350Y-137287906D01*
X80922190Y-137172812D01*
X80922187Y-137172809D01*
X80807093Y-137086649D01*
X80807086Y-137086645D01*
X80672379Y-137036403D01*
X80672372Y-137036401D01*
X80612844Y-137030000D01*
X79965000Y-137030000D01*
X79965000Y-137946988D01*
X79907993Y-137914075D01*
X79780826Y-137880000D01*
X79649174Y-137880000D01*
X79522007Y-137914075D01*
X79465000Y-137946988D01*
X79465000Y-137030000D01*
X78817155Y-137030000D01*
X78757627Y-137036401D01*
X78757620Y-137036403D01*
X78622913Y-137086645D01*
X78622906Y-137086649D01*
X78507812Y-137172809D01*
X78507809Y-137172812D01*
X78421649Y-137287906D01*
X78421645Y-137287913D01*
X78371403Y-137422620D01*
X78371401Y-137422627D01*
X78365000Y-137482155D01*
X67647461Y-137482155D01*
X67683224Y-137420212D01*
X67776054Y-137196100D01*
X67838838Y-136961789D01*
X67870500Y-136721288D01*
X67870500Y-136478712D01*
X67870500Y-136478711D01*
X109229500Y-136478711D01*
X109229500Y-136721288D01*
X109261161Y-136961785D01*
X109323947Y-137196104D01*
X109361973Y-137287906D01*
X109416776Y-137420212D01*
X109538064Y-137630289D01*
X109538066Y-137630292D01*
X109538067Y-137630293D01*
X109685733Y-137822736D01*
X109685739Y-137822743D01*
X109857256Y-137994260D01*
X109857262Y-137994265D01*
X110049711Y-138141936D01*
X110259788Y-138263224D01*
X110483900Y-138356054D01*
X110718211Y-138418838D01*
X110898586Y-138442584D01*
X110958711Y-138450500D01*
X110958712Y-138450500D01*
X111201289Y-138450500D01*
X111249388Y-138444167D01*
X111441789Y-138418838D01*
X111676100Y-138356054D01*
X111900212Y-138263224D01*
X112110289Y-138141936D01*
X112302738Y-137994265D01*
X112474265Y-137822738D01*
X112621936Y-137630289D01*
X112707461Y-137482155D01*
X118415000Y-137482155D01*
X118415000Y-138130000D01*
X119331988Y-138130000D01*
X119299075Y-138187007D01*
X119265000Y-138314174D01*
X119265000Y-138445826D01*
X119299075Y-138572993D01*
X119331988Y-138630000D01*
X118415000Y-138630000D01*
X118415000Y-139277844D01*
X118421401Y-139337372D01*
X118421403Y-139337379D01*
X118471645Y-139472086D01*
X118471649Y-139472093D01*
X118557809Y-139587187D01*
X118557812Y-139587190D01*
X118672906Y-139673350D01*
X118672913Y-139673354D01*
X118807620Y-139723596D01*
X118807627Y-139723598D01*
X118867155Y-139729999D01*
X118867172Y-139730000D01*
X119515000Y-139730000D01*
X119515000Y-138813012D01*
X119572007Y-138845925D01*
X119699174Y-138880000D01*
X119830826Y-138880000D01*
X119957993Y-138845925D01*
X120015000Y-138813012D01*
X120015000Y-139730000D01*
X120662828Y-139730000D01*
X120662844Y-139729999D01*
X120722372Y-139723598D01*
X120722379Y-139723596D01*
X120857086Y-139673354D01*
X120857093Y-139673350D01*
X120972187Y-139587190D01*
X120972190Y-139587187D01*
X121058350Y-139472093D01*
X121058354Y-139472086D01*
X121108596Y-139337379D01*
X121108598Y-139337372D01*
X121114999Y-139277844D01*
X121115000Y-139277827D01*
X121115000Y-138630000D01*
X120198012Y-138630000D01*
X120230925Y-138572993D01*
X120265000Y-138445826D01*
X120265000Y-138314174D01*
X120230925Y-138187007D01*
X120198012Y-138130000D01*
X121115000Y-138130000D01*
X121115000Y-137482172D01*
X121114999Y-137482155D01*
X121108598Y-137422627D01*
X121108596Y-137422620D01*
X121058354Y-137287913D01*
X121058350Y-137287906D01*
X120972190Y-137172812D01*
X120972187Y-137172809D01*
X120857093Y-137086649D01*
X120857086Y-137086645D01*
X120722379Y-137036403D01*
X120722372Y-137036401D01*
X120662844Y-137030000D01*
X120015000Y-137030000D01*
X120015000Y-137946988D01*
X119957993Y-137914075D01*
X119830826Y-137880000D01*
X119699174Y-137880000D01*
X119572007Y-137914075D01*
X119515000Y-137946988D01*
X119515000Y-137030000D01*
X118867155Y-137030000D01*
X118807627Y-137036401D01*
X118807620Y-137036403D01*
X118672913Y-137086645D01*
X118672906Y-137086649D01*
X118557812Y-137172809D01*
X118557809Y-137172812D01*
X118471649Y-137287906D01*
X118471645Y-137287913D01*
X118421403Y-137422620D01*
X118421401Y-137422627D01*
X118415000Y-137482155D01*
X112707461Y-137482155D01*
X112743224Y-137420212D01*
X112836054Y-137196100D01*
X112898838Y-136961789D01*
X112930500Y-136721288D01*
X112930500Y-136478712D01*
X112898838Y-136238211D01*
X112836054Y-136003900D01*
X112743224Y-135779788D01*
X112621936Y-135569711D01*
X112474265Y-135377262D01*
X112474260Y-135377256D01*
X112302743Y-135205739D01*
X112302736Y-135205733D01*
X112110293Y-135058067D01*
X112110292Y-135058066D01*
X112110289Y-135058064D01*
X111900212Y-134936776D01*
X111900205Y-134936773D01*
X111676104Y-134843947D01*
X111441785Y-134781161D01*
X111201289Y-134749500D01*
X111201288Y-134749500D01*
X110958712Y-134749500D01*
X110958711Y-134749500D01*
X110718214Y-134781161D01*
X110483895Y-134843947D01*
X110259794Y-134936773D01*
X110259785Y-134936777D01*
X110049706Y-135058067D01*
X109857263Y-135205733D01*
X109857256Y-135205739D01*
X109685739Y-135377256D01*
X109685733Y-135377263D01*
X109538067Y-135569706D01*
X109416777Y-135779785D01*
X109416773Y-135779794D01*
X109323947Y-136003895D01*
X109261161Y-136238214D01*
X109229500Y-136478711D01*
X67870500Y-136478711D01*
X67838838Y-136238211D01*
X67776054Y-136003900D01*
X67683224Y-135779788D01*
X67561936Y-135569711D01*
X67414265Y-135377262D01*
X67414260Y-135377256D01*
X67242743Y-135205739D01*
X67242736Y-135205733D01*
X67050293Y-135058067D01*
X67050292Y-135058066D01*
X67050289Y-135058064D01*
X66840212Y-134936776D01*
X66840205Y-134936773D01*
X66616104Y-134843947D01*
X66381785Y-134781161D01*
X66141289Y-134749500D01*
X66141288Y-134749500D01*
X65898712Y-134749500D01*
X65898711Y-134749500D01*
X65658214Y-134781161D01*
X65423895Y-134843947D01*
X65199794Y-134936773D01*
X65199785Y-134936777D01*
X64989706Y-135058067D01*
X64797263Y-135205733D01*
X64797256Y-135205739D01*
X64625739Y-135377256D01*
X64625733Y-135377263D01*
X64478067Y-135569706D01*
X64356777Y-135779785D01*
X64356773Y-135779794D01*
X64263947Y-136003895D01*
X64201161Y-136238214D01*
X64169500Y-136478711D01*
X62110500Y-136478711D01*
X62110500Y-130782155D01*
X71500000Y-130782155D01*
X71500000Y-132080000D01*
X72780936Y-132080000D01*
X72769207Y-132108316D01*
X72740000Y-132255147D01*
X72740000Y-132404853D01*
X72769207Y-132551684D01*
X72780936Y-132580000D01*
X71500000Y-132580000D01*
X71500000Y-133877844D01*
X71506401Y-133937372D01*
X71506403Y-133937379D01*
X71556645Y-134072086D01*
X71556649Y-134072093D01*
X71642809Y-134187187D01*
X71642812Y-134187190D01*
X71757906Y-134273350D01*
X71757913Y-134273354D01*
X71892620Y-134323596D01*
X71892627Y-134323598D01*
X71952155Y-134329999D01*
X71952172Y-134330000D01*
X73250000Y-134330000D01*
X73250000Y-133049064D01*
X73278316Y-133060793D01*
X73425147Y-133090000D01*
X73574853Y-133090000D01*
X73721684Y-133060793D01*
X73750000Y-133049064D01*
X73750000Y-134330000D01*
X75047828Y-134330000D01*
X75047844Y-134329999D01*
X75107372Y-134323598D01*
X75107379Y-134323596D01*
X75242086Y-134273354D01*
X75242093Y-134273350D01*
X75357187Y-134187190D01*
X75357190Y-134187187D01*
X75443350Y-134072093D01*
X75443354Y-134072086D01*
X75493596Y-133937379D01*
X75493598Y-133937372D01*
X75499999Y-133877844D01*
X75500000Y-133877827D01*
X75500000Y-132580000D01*
X74219064Y-132580000D01*
X74230793Y-132551684D01*
X74260000Y-132404853D01*
X74260000Y-132255147D01*
X74230793Y-132108316D01*
X74219064Y-132080000D01*
X75500000Y-132080000D01*
X75500000Y-130782172D01*
X75499999Y-130782155D01*
X75493598Y-130722627D01*
X75493596Y-130722620D01*
X75443354Y-130587913D01*
X75443350Y-130587906D01*
X75357190Y-130472812D01*
X75357187Y-130472809D01*
X75242093Y-130386649D01*
X75242086Y-130386645D01*
X75107379Y-130336403D01*
X75107372Y-130336401D01*
X75047844Y-130330000D01*
X73750000Y-130330000D01*
X73750000Y-131610935D01*
X73721684Y-131599207D01*
X73574853Y-131570000D01*
X73425147Y-131570000D01*
X73278316Y-131599207D01*
X73250000Y-131610935D01*
X73250000Y-130330000D01*
X71952155Y-130330000D01*
X71892627Y-130336401D01*
X71892620Y-130336403D01*
X71757913Y-130386645D01*
X71757906Y-130386649D01*
X71642812Y-130472809D01*
X71642809Y-130472812D01*
X71556649Y-130587906D01*
X71556645Y-130587913D01*
X71506403Y-130722620D01*
X71506401Y-130722627D01*
X71500000Y-130782155D01*
X62110500Y-130782155D01*
X62110500Y-127249998D01*
X71494390Y-127249998D01*
X71494390Y-127250001D01*
X71514804Y-127535433D01*
X71575628Y-127815037D01*
X71675635Y-128083166D01*
X71812770Y-128334309D01*
X71812775Y-128334317D01*
X71984254Y-128563387D01*
X71984270Y-128563405D01*
X72186594Y-128765729D01*
X72186612Y-128765745D01*
X72415682Y-128937224D01*
X72415690Y-128937229D01*
X72666833Y-129074364D01*
X72666832Y-129074364D01*
X72666836Y-129074365D01*
X72666839Y-129074367D01*
X72934954Y-129174369D01*
X72934960Y-129174370D01*
X72934962Y-129174371D01*
X73214566Y-129235195D01*
X73214568Y-129235195D01*
X73214572Y-129235196D01*
X73468220Y-129253337D01*
X73499999Y-129255610D01*
X73500000Y-129255610D01*
X73500001Y-129255610D01*
X73528595Y-129253564D01*
X73785428Y-129235196D01*
X74065046Y-129174369D01*
X74333161Y-129074367D01*
X74584315Y-128937226D01*
X74813395Y-128765739D01*
X75015739Y-128563395D01*
X75187226Y-128334315D01*
X75324367Y-128083161D01*
X75424369Y-127815046D01*
X75485196Y-127535428D01*
X75505610Y-127250000D01*
X75485196Y-126964572D01*
X75424369Y-126684954D01*
X75324367Y-126416839D01*
X75187226Y-126165685D01*
X75187224Y-126165682D01*
X75015745Y-125936612D01*
X75015729Y-125936594D01*
X74813405Y-125734270D01*
X74813387Y-125734254D01*
X74584317Y-125562775D01*
X74584309Y-125562770D01*
X74333166Y-125425635D01*
X74333167Y-125425635D01*
X74225915Y-125385632D01*
X74065046Y-125325631D01*
X74065043Y-125325630D01*
X74065037Y-125325628D01*
X73785433Y-125264804D01*
X73500001Y-125244390D01*
X73499999Y-125244390D01*
X73214566Y-125264804D01*
X72934962Y-125325628D01*
X72666833Y-125425635D01*
X72415690Y-125562770D01*
X72415682Y-125562775D01*
X72186612Y-125734254D01*
X72186594Y-125734270D01*
X71984270Y-125936594D01*
X71984254Y-125936612D01*
X71812775Y-126165682D01*
X71812770Y-126165690D01*
X71675635Y-126416833D01*
X71575628Y-126684962D01*
X71514804Y-126964566D01*
X71494390Y-127249998D01*
X62110500Y-127249998D01*
X62110500Y-119731386D01*
X70559500Y-119731386D01*
X70559500Y-121668613D01*
X70559501Y-121668652D01*
X70562295Y-121721243D01*
X70562295Y-121721244D01*
X70582842Y-121827482D01*
X70606755Y-121951126D01*
X70654463Y-122077544D01*
X70689425Y-122170189D01*
X70807929Y-122372131D01*
X70807934Y-122372138D01*
X70958856Y-122551141D01*
X70958858Y-122551143D01*
X71137861Y-122702065D01*
X71137868Y-122702070D01*
X71339810Y-122820574D01*
X71558874Y-122903245D01*
X71788759Y-122947705D01*
X71841378Y-122950500D01*
X71841386Y-122950500D01*
X73778614Y-122950500D01*
X73778622Y-122950500D01*
X73831241Y-122947705D01*
X74061126Y-122903245D01*
X74280190Y-122820574D01*
X74482132Y-122702070D01*
X74661142Y-122551142D01*
X74812070Y-122372132D01*
X74930574Y-122170190D01*
X75013245Y-121951126D01*
X75057705Y-121721241D01*
X75060500Y-121668622D01*
X75060500Y-119972135D01*
X78364500Y-119972135D01*
X78364500Y-121767870D01*
X78364501Y-121767876D01*
X78370908Y-121827483D01*
X78421202Y-121962328D01*
X78421206Y-121962335D01*
X78507452Y-122077544D01*
X78507455Y-122077547D01*
X78622664Y-122163793D01*
X78622671Y-122163797D01*
X78757517Y-122214091D01*
X78757516Y-122214091D01*
X78764444Y-122214835D01*
X78817127Y-122220500D01*
X80612872Y-122220499D01*
X80672483Y-122214091D01*
X80807331Y-122163796D01*
X80922546Y-122077546D01*
X81008796Y-121962331D01*
X81059091Y-121827483D01*
X81065500Y-121767873D01*
X81065499Y-119972135D01*
X118414500Y-119972135D01*
X118414500Y-121767870D01*
X118414501Y-121767876D01*
X118420908Y-121827483D01*
X118471202Y-121962328D01*
X118471206Y-121962335D01*
X118557452Y-122077544D01*
X118557455Y-122077547D01*
X118672664Y-122163793D01*
X118672671Y-122163797D01*
X118807517Y-122214091D01*
X118807516Y-122214091D01*
X118814444Y-122214835D01*
X118867127Y-122220500D01*
X120662872Y-122220499D01*
X120722483Y-122214091D01*
X120857331Y-122163796D01*
X120972546Y-122077546D01*
X121058796Y-121962331D01*
X121109091Y-121827483D01*
X121115500Y-121767873D01*
X121115499Y-119972128D01*
X121109091Y-119912517D01*
X121058796Y-119777669D01*
X121058795Y-119777668D01*
X121058793Y-119777664D01*
X120972547Y-119662455D01*
X120972544Y-119662452D01*
X120857335Y-119576206D01*
X120857328Y-119576202D01*
X120722482Y-119525908D01*
X120722483Y-119525908D01*
X120662883Y-119519501D01*
X120662881Y-119519500D01*
X120662873Y-119519500D01*
X120662864Y-119519500D01*
X118867129Y-119519500D01*
X118867123Y-119519501D01*
X118807516Y-119525908D01*
X118672671Y-119576202D01*
X118672664Y-119576206D01*
X118557455Y-119662452D01*
X118557452Y-119662455D01*
X118471206Y-119777664D01*
X118471202Y-119777671D01*
X118420908Y-119912517D01*
X118414501Y-119972116D01*
X118414501Y-119972123D01*
X118414500Y-119972135D01*
X81065499Y-119972135D01*
X81065499Y-119972128D01*
X81059091Y-119912517D01*
X81008796Y-119777669D01*
X81008795Y-119777668D01*
X81008793Y-119777664D01*
X80922547Y-119662455D01*
X80922544Y-119662452D01*
X80807335Y-119576206D01*
X80807328Y-119576202D01*
X80672482Y-119525908D01*
X80672483Y-119525908D01*
X80612883Y-119519501D01*
X80612881Y-119519500D01*
X80612873Y-119519500D01*
X80612864Y-119519500D01*
X78817129Y-119519500D01*
X78817123Y-119519501D01*
X78757516Y-119525908D01*
X78622671Y-119576202D01*
X78622664Y-119576206D01*
X78507455Y-119662452D01*
X78507452Y-119662455D01*
X78421206Y-119777664D01*
X78421202Y-119777671D01*
X78370908Y-119912517D01*
X78364501Y-119972116D01*
X78364501Y-119972123D01*
X78364500Y-119972135D01*
X75060500Y-119972135D01*
X75060500Y-119731378D01*
X75057705Y-119678759D01*
X75013245Y-119448874D01*
X74930574Y-119229810D01*
X74812070Y-119027868D01*
X74812065Y-119027861D01*
X74661143Y-118848858D01*
X74661141Y-118848856D01*
X74482138Y-118697934D01*
X74482131Y-118697929D01*
X74280189Y-118579425D01*
X74182513Y-118542564D01*
X74061126Y-118496755D01*
X74061121Y-118496754D01*
X74061116Y-118496752D01*
X74058470Y-118496240D01*
X74057451Y-118495713D01*
X74056050Y-118495317D01*
X74056130Y-118495031D01*
X73996392Y-118464177D01*
X73961503Y-118403641D01*
X73964881Y-118333853D01*
X74005452Y-118276970D01*
X74070337Y-118251052D01*
X74082009Y-118250499D01*
X77607872Y-118250499D01*
X77667483Y-118244091D01*
X77802331Y-118193796D01*
X77917546Y-118107546D01*
X78003796Y-117992331D01*
X78054091Y-117857483D01*
X78060500Y-117797873D01*
X78060499Y-115559999D01*
X82604341Y-115559999D01*
X82604341Y-115560000D01*
X82624936Y-115795403D01*
X82624938Y-115795413D01*
X82686094Y-116023655D01*
X82686096Y-116023659D01*
X82686097Y-116023663D01*
X82766004Y-116195023D01*
X82785965Y-116237830D01*
X82785967Y-116237834D01*
X82894281Y-116392521D01*
X82921505Y-116431401D01*
X83088599Y-116598495D01*
X83185384Y-116666265D01*
X83282165Y-116734032D01*
X83282167Y-116734033D01*
X83282170Y-116734035D01*
X83496337Y-116833903D01*
X83724592Y-116895063D01*
X83901034Y-116910500D01*
X83959999Y-116915659D01*
X83960000Y-116915659D01*
X83960001Y-116915659D01*
X84018966Y-116910500D01*
X84195408Y-116895063D01*
X84423663Y-116833903D01*
X84637830Y-116734035D01*
X84831401Y-116598495D01*
X84998495Y-116431401D01*
X85112891Y-116268026D01*
X85128425Y-116245842D01*
X85183002Y-116202217D01*
X85252500Y-116195023D01*
X85314855Y-116226546D01*
X85331575Y-116245842D01*
X85461500Y-116431395D01*
X85461505Y-116431401D01*
X85628599Y-116598495D01*
X85725384Y-116666265D01*
X85822165Y-116734032D01*
X85822167Y-116734033D01*
X85822170Y-116734035D01*
X86036337Y-116833903D01*
X86264592Y-116895063D01*
X86441034Y-116910500D01*
X86499999Y-116915659D01*
X86500000Y-116915659D01*
X86500001Y-116915659D01*
X86558966Y-116910500D01*
X86735408Y-116895063D01*
X86963663Y-116833903D01*
X87177830Y-116734035D01*
X87371401Y-116598495D01*
X87538495Y-116431401D01*
X87652891Y-116268026D01*
X87668425Y-116245842D01*
X87723002Y-116202217D01*
X87792500Y-116195023D01*
X87854855Y-116226546D01*
X87871575Y-116245842D01*
X88001500Y-116431395D01*
X88001505Y-116431401D01*
X88168599Y-116598495D01*
X88265384Y-116666265D01*
X88362165Y-116734032D01*
X88362167Y-116734033D01*
X88362170Y-116734035D01*
X88576337Y-116833903D01*
X88804592Y-116895063D01*
X88981034Y-116910500D01*
X89039999Y-116915659D01*
X89040000Y-116915659D01*
X89040001Y-116915659D01*
X89098966Y-116910500D01*
X89275408Y-116895063D01*
X89503663Y-116833903D01*
X89717830Y-116734035D01*
X89911401Y-116598495D01*
X90033717Y-116476178D01*
X90095036Y-116442696D01*
X90164728Y-116447680D01*
X90220662Y-116489551D01*
X90237577Y-116520528D01*
X90286646Y-116652088D01*
X90286649Y-116652093D01*
X90372809Y-116767187D01*
X90372812Y-116767190D01*
X90487906Y-116853350D01*
X90487913Y-116853354D01*
X90622620Y-116903596D01*
X90622627Y-116903598D01*
X90682155Y-116909999D01*
X90682172Y-116910000D01*
X91330000Y-116910000D01*
X91330000Y-115993012D01*
X91387007Y-116025925D01*
X91514174Y-116060000D01*
X91645826Y-116060000D01*
X91772993Y-116025925D01*
X91830000Y-115993012D01*
X91830000Y-116910000D01*
X92477828Y-116910000D01*
X92477844Y-116909999D01*
X92537372Y-116903598D01*
X92537379Y-116903596D01*
X92672086Y-116853354D01*
X92672093Y-116853350D01*
X92787187Y-116767190D01*
X92787190Y-116767187D01*
X92873350Y-116652093D01*
X92873354Y-116652086D01*
X92923596Y-116517379D01*
X92923598Y-116517372D01*
X92929999Y-116457844D01*
X92930000Y-116457827D01*
X92930000Y-115810000D01*
X92013012Y-115810000D01*
X92045925Y-115752993D01*
X92080000Y-115625826D01*
X92080000Y-115559999D01*
X97464341Y-115559999D01*
X97464341Y-115560000D01*
X97484936Y-115795403D01*
X97484938Y-115795413D01*
X97546094Y-116023655D01*
X97546096Y-116023659D01*
X97546097Y-116023663D01*
X97626004Y-116195023D01*
X97645965Y-116237830D01*
X97645967Y-116237834D01*
X97754281Y-116392521D01*
X97781505Y-116431401D01*
X97948599Y-116598495D01*
X98045384Y-116666265D01*
X98142165Y-116734032D01*
X98142167Y-116734033D01*
X98142170Y-116734035D01*
X98356337Y-116833903D01*
X98584592Y-116895063D01*
X98761034Y-116910500D01*
X98819999Y-116915659D01*
X98820000Y-116915659D01*
X98820001Y-116915659D01*
X98878966Y-116910500D01*
X99055408Y-116895063D01*
X99283663Y-116833903D01*
X99497830Y-116734035D01*
X99691401Y-116598495D01*
X99858495Y-116431401D01*
X99972891Y-116268026D01*
X99988425Y-116245842D01*
X100043002Y-116202217D01*
X100112500Y-116195023D01*
X100174855Y-116226546D01*
X100191575Y-116245842D01*
X100321500Y-116431395D01*
X100321505Y-116431401D01*
X100488599Y-116598495D01*
X100585384Y-116666265D01*
X100682165Y-116734032D01*
X100682167Y-116734033D01*
X100682170Y-116734035D01*
X100896337Y-116833903D01*
X101124592Y-116895063D01*
X101301034Y-116910500D01*
X101359999Y-116915659D01*
X101360000Y-116915659D01*
X101360001Y-116915659D01*
X101418966Y-116910500D01*
X101595408Y-116895063D01*
X101823663Y-116833903D01*
X102037830Y-116734035D01*
X102231401Y-116598495D01*
X102398495Y-116431401D01*
X102528730Y-116245405D01*
X102583307Y-116201781D01*
X102652805Y-116194587D01*
X102715160Y-116226110D01*
X102731879Y-116245405D01*
X102861890Y-116431078D01*
X103028917Y-116598105D01*
X103222421Y-116733600D01*
X103436507Y-116833429D01*
X103436516Y-116833433D01*
X103650000Y-116890634D01*
X103650000Y-115993012D01*
X103707007Y-116025925D01*
X103834174Y-116060000D01*
X103965826Y-116060000D01*
X104092993Y-116025925D01*
X104150000Y-115993012D01*
X104150000Y-116890633D01*
X104363483Y-116833433D01*
X104363492Y-116833429D01*
X104577578Y-116733600D01*
X104771078Y-116598108D01*
X104893133Y-116476053D01*
X104954456Y-116442568D01*
X105024148Y-116447552D01*
X105080082Y-116489423D01*
X105096997Y-116520401D01*
X105146202Y-116652328D01*
X105146206Y-116652335D01*
X105232452Y-116767544D01*
X105232455Y-116767547D01*
X105347664Y-116853793D01*
X105347671Y-116853797D01*
X105482517Y-116904091D01*
X105482516Y-116904091D01*
X105489444Y-116904835D01*
X105542127Y-116910500D01*
X107337872Y-116910499D01*
X107397483Y-116904091D01*
X107532331Y-116853796D01*
X107647546Y-116767546D01*
X107733796Y-116652331D01*
X107784091Y-116517483D01*
X107790500Y-116457873D01*
X107790499Y-114662128D01*
X107784091Y-114602517D01*
X107783115Y-114599901D01*
X107733797Y-114467671D01*
X107733793Y-114467664D01*
X107647547Y-114352455D01*
X107647544Y-114352452D01*
X107532335Y-114266206D01*
X107532328Y-114266202D01*
X107397482Y-114215908D01*
X107397483Y-114215908D01*
X107337883Y-114209501D01*
X107337881Y-114209500D01*
X107337873Y-114209500D01*
X107337864Y-114209500D01*
X105542129Y-114209500D01*
X105542123Y-114209501D01*
X105482516Y-114215908D01*
X105347671Y-114266202D01*
X105347664Y-114266206D01*
X105232455Y-114352452D01*
X105232452Y-114352455D01*
X105146206Y-114467664D01*
X105146202Y-114467671D01*
X105096997Y-114599598D01*
X105055126Y-114655532D01*
X104989661Y-114679949D01*
X104921388Y-114665097D01*
X104893134Y-114643946D01*
X104771082Y-114521894D01*
X104577578Y-114386399D01*
X104363492Y-114286570D01*
X104363486Y-114286567D01*
X104150000Y-114229364D01*
X104150000Y-115126988D01*
X104092993Y-115094075D01*
X103965826Y-115060000D01*
X103834174Y-115060000D01*
X103707007Y-115094075D01*
X103650000Y-115126988D01*
X103650000Y-114229364D01*
X103649999Y-114229364D01*
X103436513Y-114286567D01*
X103436507Y-114286570D01*
X103222422Y-114386399D01*
X103222420Y-114386400D01*
X103028926Y-114521886D01*
X103028920Y-114521891D01*
X102861891Y-114688920D01*
X102861890Y-114688922D01*
X102731880Y-114874595D01*
X102677303Y-114918219D01*
X102607804Y-114925412D01*
X102545450Y-114893890D01*
X102528730Y-114874594D01*
X102398494Y-114688597D01*
X102231402Y-114521506D01*
X102231395Y-114521501D01*
X102037834Y-114385967D01*
X102037830Y-114385965D01*
X101966727Y-114352809D01*
X101823663Y-114286097D01*
X101823659Y-114286096D01*
X101823655Y-114286094D01*
X101595413Y-114224938D01*
X101595403Y-114224936D01*
X101360001Y-114204341D01*
X101359999Y-114204341D01*
X101124596Y-114224936D01*
X101124586Y-114224938D01*
X100896344Y-114286094D01*
X100896335Y-114286098D01*
X100682171Y-114385964D01*
X100682169Y-114385965D01*
X100488597Y-114521505D01*
X100321505Y-114688597D01*
X100191575Y-114874158D01*
X100136998Y-114917783D01*
X100067500Y-114924977D01*
X100005145Y-114893454D01*
X99988425Y-114874158D01*
X99858494Y-114688597D01*
X99691402Y-114521506D01*
X99691395Y-114521501D01*
X99497834Y-114385967D01*
X99497830Y-114385965D01*
X99426727Y-114352809D01*
X99283663Y-114286097D01*
X99283659Y-114286096D01*
X99283655Y-114286094D01*
X99055413Y-114224938D01*
X99055403Y-114224936D01*
X98820001Y-114204341D01*
X98819999Y-114204341D01*
X98584596Y-114224936D01*
X98584586Y-114224938D01*
X98356344Y-114286094D01*
X98356335Y-114286098D01*
X98142171Y-114385964D01*
X98142169Y-114385965D01*
X97948597Y-114521505D01*
X97781505Y-114688597D01*
X97645965Y-114882169D01*
X97645964Y-114882171D01*
X97546098Y-115096335D01*
X97546094Y-115096344D01*
X97484938Y-115324586D01*
X97484936Y-115324596D01*
X97464341Y-115559999D01*
X92080000Y-115559999D01*
X92080000Y-115494174D01*
X92045925Y-115367007D01*
X92013012Y-115310000D01*
X92930000Y-115310000D01*
X92930000Y-114662172D01*
X92929999Y-114662155D01*
X92923598Y-114602627D01*
X92923596Y-114602620D01*
X92873354Y-114467913D01*
X92873350Y-114467906D01*
X92787190Y-114352812D01*
X92787187Y-114352809D01*
X92672093Y-114266649D01*
X92672086Y-114266645D01*
X92537379Y-114216403D01*
X92537372Y-114216401D01*
X92477844Y-114210000D01*
X91830000Y-114210000D01*
X91830000Y-115126988D01*
X91772993Y-115094075D01*
X91645826Y-115060000D01*
X91514174Y-115060000D01*
X91387007Y-115094075D01*
X91330000Y-115126988D01*
X91330000Y-114210000D01*
X90682155Y-114210000D01*
X90622627Y-114216401D01*
X90622620Y-114216403D01*
X90487913Y-114266645D01*
X90487906Y-114266649D01*
X90372812Y-114352809D01*
X90372809Y-114352812D01*
X90286649Y-114467906D01*
X90286645Y-114467913D01*
X90237578Y-114599470D01*
X90195707Y-114655404D01*
X90130242Y-114679821D01*
X90061969Y-114664969D01*
X90033715Y-114643819D01*
X89975376Y-114585480D01*
X89911401Y-114521505D01*
X89911397Y-114521502D01*
X89911396Y-114521501D01*
X89717834Y-114385967D01*
X89717830Y-114385965D01*
X89646727Y-114352809D01*
X89503663Y-114286097D01*
X89503659Y-114286096D01*
X89503655Y-114286094D01*
X89275413Y-114224938D01*
X89275403Y-114224936D01*
X89040001Y-114204341D01*
X89039999Y-114204341D01*
X88804596Y-114224936D01*
X88804586Y-114224938D01*
X88576344Y-114286094D01*
X88576335Y-114286098D01*
X88362171Y-114385964D01*
X88362169Y-114385965D01*
X88168597Y-114521505D01*
X88001505Y-114688597D01*
X87871575Y-114874158D01*
X87816998Y-114917783D01*
X87747500Y-114924977D01*
X87685145Y-114893454D01*
X87668425Y-114874158D01*
X87538494Y-114688597D01*
X87371402Y-114521506D01*
X87371395Y-114521501D01*
X87177834Y-114385967D01*
X87177830Y-114385965D01*
X87106727Y-114352809D01*
X86963663Y-114286097D01*
X86963659Y-114286096D01*
X86963655Y-114286094D01*
X86735413Y-114224938D01*
X86735403Y-114224936D01*
X86500001Y-114204341D01*
X86499999Y-114204341D01*
X86264596Y-114224936D01*
X86264586Y-114224938D01*
X86036344Y-114286094D01*
X86036335Y-114286098D01*
X85822171Y-114385964D01*
X85822169Y-114385965D01*
X85628597Y-114521505D01*
X85461505Y-114688597D01*
X85331575Y-114874158D01*
X85276998Y-114917783D01*
X85207500Y-114924977D01*
X85145145Y-114893454D01*
X85128425Y-114874158D01*
X84998494Y-114688597D01*
X84831402Y-114521506D01*
X84831395Y-114521501D01*
X84637834Y-114385967D01*
X84637830Y-114385965D01*
X84566727Y-114352809D01*
X84423663Y-114286097D01*
X84423659Y-114286096D01*
X84423655Y-114286094D01*
X84195413Y-114224938D01*
X84195403Y-114224936D01*
X83960001Y-114204341D01*
X83959999Y-114204341D01*
X83724596Y-114224936D01*
X83724586Y-114224938D01*
X83496344Y-114286094D01*
X83496335Y-114286098D01*
X83282171Y-114385964D01*
X83282169Y-114385965D01*
X83088597Y-114521505D01*
X82921505Y-114688597D01*
X82785965Y-114882169D01*
X82785964Y-114882171D01*
X82686098Y-115096335D01*
X82686094Y-115096344D01*
X82624938Y-115324586D01*
X82624936Y-115324596D01*
X82604341Y-115559999D01*
X78060499Y-115559999D01*
X78060499Y-114202128D01*
X78054091Y-114142517D01*
X78014571Y-114036559D01*
X78003797Y-114007671D01*
X78003793Y-114007664D01*
X77917547Y-113892455D01*
X77917544Y-113892452D01*
X77802335Y-113806206D01*
X77802328Y-113806202D01*
X77667482Y-113755908D01*
X77667483Y-113755908D01*
X77607883Y-113749501D01*
X77607881Y-113749500D01*
X77607873Y-113749500D01*
X77607864Y-113749500D01*
X74012129Y-113749500D01*
X74012123Y-113749501D01*
X73952516Y-113755908D01*
X73817671Y-113806202D01*
X73817664Y-113806206D01*
X73702455Y-113892452D01*
X73702452Y-113892455D01*
X73616206Y-114007664D01*
X73616202Y-114007671D01*
X73565908Y-114142517D01*
X73559501Y-114202116D01*
X73559501Y-114202123D01*
X73559500Y-114202135D01*
X73559500Y-117797870D01*
X73559501Y-117797876D01*
X73565908Y-117857483D01*
X73616202Y-117992328D01*
X73616206Y-117992335D01*
X73702452Y-118107544D01*
X73702455Y-118107547D01*
X73817664Y-118193793D01*
X73817673Y-118193798D01*
X73864937Y-118211426D01*
X73920871Y-118253296D01*
X73945289Y-118318760D01*
X73930438Y-118387033D01*
X73881033Y-118436439D01*
X73815028Y-118451433D01*
X73778657Y-118449501D01*
X73778628Y-118449500D01*
X73778622Y-118449500D01*
X71841378Y-118449500D01*
X71841370Y-118449500D01*
X71841347Y-118449501D01*
X71788756Y-118452295D01*
X71788755Y-118452295D01*
X71558878Y-118496754D01*
X71558876Y-118496754D01*
X71558874Y-118496755D01*
X71484933Y-118524659D01*
X71339810Y-118579425D01*
X71137868Y-118697929D01*
X71137861Y-118697934D01*
X70958858Y-118848856D01*
X70958856Y-118848858D01*
X70807934Y-119027861D01*
X70807929Y-119027868D01*
X70689425Y-119229810D01*
X70634659Y-119374933D01*
X70606755Y-119448874D01*
X70606754Y-119448876D01*
X70606754Y-119448878D01*
X70562295Y-119678755D01*
X70562295Y-119678756D01*
X70559501Y-119731347D01*
X70559500Y-119731386D01*
X62110500Y-119731386D01*
X62110500Y-114935803D01*
X67810000Y-114935803D01*
X67810000Y-115750000D01*
X69310000Y-115750000D01*
X69310000Y-116250000D01*
X67810001Y-116250000D01*
X67810001Y-117064197D01*
X67820400Y-117196332D01*
X67875377Y-117414519D01*
X67968428Y-117619374D01*
X67968431Y-117619380D01*
X68096559Y-117804323D01*
X68096569Y-117804335D01*
X68255664Y-117963430D01*
X68255676Y-117963440D01*
X68440619Y-118091568D01*
X68440625Y-118091571D01*
X68645480Y-118184622D01*
X68863667Y-118239599D01*
X68995810Y-118249999D01*
X69559999Y-118249999D01*
X69560000Y-118249998D01*
X69560000Y-117433012D01*
X69617007Y-117465925D01*
X69744174Y-117500000D01*
X69875826Y-117500000D01*
X70002993Y-117465925D01*
X70060000Y-117433012D01*
X70060000Y-118249999D01*
X70624182Y-118249999D01*
X70624197Y-118249998D01*
X70756332Y-118239599D01*
X70974519Y-118184622D01*
X71179374Y-118091571D01*
X71179380Y-118091568D01*
X71364323Y-117963440D01*
X71364335Y-117963430D01*
X71523430Y-117804335D01*
X71523440Y-117804323D01*
X71651568Y-117619380D01*
X71651571Y-117619374D01*
X71744622Y-117414519D01*
X71799599Y-117196332D01*
X71809999Y-117064196D01*
X71810000Y-117064184D01*
X71810000Y-116250000D01*
X70310000Y-116250000D01*
X70310000Y-115750000D01*
X71809999Y-115750000D01*
X71809999Y-114935817D01*
X71809998Y-114935802D01*
X71799599Y-114803667D01*
X71744622Y-114585480D01*
X71651571Y-114380625D01*
X71651568Y-114380619D01*
X71523440Y-114195676D01*
X71523430Y-114195664D01*
X71364335Y-114036569D01*
X71364323Y-114036559D01*
X71179380Y-113908431D01*
X71179374Y-113908428D01*
X70974519Y-113815377D01*
X70756332Y-113760400D01*
X70624196Y-113750000D01*
X70060000Y-113750000D01*
X70060000Y-114566988D01*
X70002993Y-114534075D01*
X69875826Y-114500000D01*
X69744174Y-114500000D01*
X69617007Y-114534075D01*
X69560000Y-114566988D01*
X69560000Y-113750000D01*
X68995817Y-113750000D01*
X68995802Y-113750001D01*
X68863667Y-113760400D01*
X68645480Y-113815377D01*
X68440625Y-113908428D01*
X68440619Y-113908431D01*
X68255676Y-114036559D01*
X68255664Y-114036569D01*
X68096569Y-114195664D01*
X68096559Y-114195676D01*
X67968431Y-114380619D01*
X67968428Y-114380625D01*
X67875377Y-114585480D01*
X67820400Y-114803667D01*
X67810000Y-114935803D01*
X62110500Y-114935803D01*
X62110500Y-98515258D01*
X63409500Y-98515258D01*
X63409500Y-98744741D01*
X63423773Y-98853147D01*
X63439452Y-98972238D01*
X63478279Y-99117143D01*
X63498842Y-99193887D01*
X63586650Y-99405876D01*
X63586657Y-99405890D01*
X63701392Y-99604617D01*
X63841081Y-99786661D01*
X63841089Y-99786670D01*
X64003330Y-99948911D01*
X64003338Y-99948918D01*
X64003339Y-99948919D01*
X64037044Y-99974782D01*
X64185382Y-100088607D01*
X64185385Y-100088608D01*
X64185388Y-100088611D01*
X64384112Y-100203344D01*
X64384117Y-100203346D01*
X64384123Y-100203349D01*
X64422727Y-100219339D01*
X64596113Y-100291158D01*
X64817762Y-100350548D01*
X65045266Y-100380500D01*
X65045273Y-100380500D01*
X65274727Y-100380500D01*
X65274734Y-100380500D01*
X65502238Y-100350548D01*
X65723887Y-100291158D01*
X65935888Y-100203344D01*
X66134612Y-100088611D01*
X66316661Y-99948919D01*
X66316665Y-99948914D01*
X66316670Y-99948911D01*
X66478911Y-99786670D01*
X66478914Y-99786665D01*
X66478919Y-99786661D01*
X66618611Y-99604612D01*
X66733344Y-99405888D01*
X66821158Y-99193887D01*
X66880548Y-98972238D01*
X66910500Y-98744734D01*
X66910500Y-98515266D01*
X66880548Y-98287762D01*
X66821158Y-98066113D01*
X66744265Y-97880477D01*
X66733349Y-97854123D01*
X66733346Y-97854117D01*
X66733344Y-97854112D01*
X66618611Y-97655388D01*
X66618608Y-97655385D01*
X66618607Y-97655382D01*
X66478918Y-97473338D01*
X66478911Y-97473330D01*
X66316670Y-97311089D01*
X66316661Y-97311081D01*
X66134617Y-97171392D01*
X66062021Y-97129479D01*
X65935888Y-97056656D01*
X65935876Y-97056650D01*
X65723887Y-96968842D01*
X65502238Y-96909452D01*
X65464215Y-96904446D01*
X65274741Y-96879500D01*
X65274734Y-96879500D01*
X65045266Y-96879500D01*
X65045258Y-96879500D01*
X64828715Y-96908009D01*
X64817762Y-96909452D01*
X64724076Y-96934554D01*
X64596112Y-96968842D01*
X64384123Y-97056650D01*
X64384109Y-97056657D01*
X64185382Y-97171392D01*
X64003338Y-97311081D01*
X63841081Y-97473338D01*
X63701392Y-97655382D01*
X63586657Y-97854109D01*
X63586650Y-97854123D01*
X63498842Y-98066112D01*
X63439453Y-98287759D01*
X63439451Y-98287770D01*
X63409500Y-98515258D01*
X62110500Y-98515258D01*
X62110500Y-74005258D01*
X63409500Y-74005258D01*
X63409500Y-74234741D01*
X63433926Y-74420263D01*
X63439452Y-74462238D01*
X63469608Y-74574782D01*
X63498842Y-74683887D01*
X63586650Y-74895876D01*
X63586657Y-74895890D01*
X63701392Y-75094617D01*
X63841081Y-75276661D01*
X63841089Y-75276670D01*
X64003330Y-75438911D01*
X64003338Y-75438918D01*
X64185382Y-75578607D01*
X64185385Y-75578608D01*
X64185388Y-75578611D01*
X64384112Y-75693344D01*
X64384117Y-75693346D01*
X64384123Y-75693349D01*
X64475480Y-75731190D01*
X64596113Y-75781158D01*
X64817762Y-75840548D01*
X65045266Y-75870500D01*
X65045273Y-75870500D01*
X65274727Y-75870500D01*
X65274734Y-75870500D01*
X65502238Y-75840548D01*
X65723887Y-75781158D01*
X65935888Y-75693344D01*
X66134612Y-75578611D01*
X66316661Y-75438919D01*
X66316665Y-75438914D01*
X66316670Y-75438911D01*
X66478911Y-75276670D01*
X66478914Y-75276665D01*
X66478919Y-75276661D01*
X66618611Y-75094612D01*
X66733344Y-74895888D01*
X66821158Y-74683887D01*
X66880548Y-74462238D01*
X66910500Y-74234734D01*
X66910500Y-74005266D01*
X66910274Y-74003553D01*
X66896354Y-73897821D01*
X66880548Y-73777762D01*
X66821158Y-73556113D01*
X66733344Y-73344112D01*
X66618611Y-73145388D01*
X66618608Y-73145385D01*
X66618607Y-73145382D01*
X66498804Y-72989254D01*
X66478919Y-72963339D01*
X66478918Y-72963338D01*
X66478911Y-72963330D01*
X66316670Y-72801089D01*
X66316661Y-72801081D01*
X66134617Y-72661392D01*
X66081543Y-72630750D01*
X65935888Y-72546656D01*
X65935876Y-72546650D01*
X65723887Y-72458842D01*
X65502238Y-72399452D01*
X65464215Y-72394446D01*
X65274741Y-72369500D01*
X65274734Y-72369500D01*
X65045266Y-72369500D01*
X65045258Y-72369500D01*
X64828715Y-72398009D01*
X64817762Y-72399452D01*
X64724076Y-72424554D01*
X64596112Y-72458842D01*
X64384123Y-72546650D01*
X64384109Y-72546657D01*
X64185382Y-72661392D01*
X64003338Y-72801081D01*
X63841081Y-72963338D01*
X63701392Y-73145382D01*
X63586657Y-73344109D01*
X63586650Y-73344123D01*
X63498842Y-73556112D01*
X63439453Y-73777759D01*
X63439451Y-73777770D01*
X63409500Y-74005258D01*
X62110500Y-74005258D01*
X62110500Y-56638543D01*
X63199499Y-56638543D01*
X63237947Y-56831829D01*
X63237950Y-56831839D01*
X63313364Y-57013907D01*
X63313371Y-57013920D01*
X63422860Y-57177781D01*
X63422863Y-57177785D01*
X63566537Y-57321459D01*
X63566559Y-57321479D01*
X67839735Y-61594655D01*
X67839764Y-61594686D01*
X67982217Y-61737139D01*
X68085039Y-61805842D01*
X68146086Y-61846632D01*
X68146088Y-61846633D01*
X68146092Y-61846635D01*
X68203120Y-61870256D01*
X68268022Y-61897139D01*
X68328164Y-61922051D01*
X68424812Y-61941275D01*
X68473135Y-61950887D01*
X68521458Y-61960500D01*
X68521459Y-61960500D01*
X68521460Y-61960500D01*
X68718540Y-61960500D01*
X69839242Y-61960500D01*
X69906281Y-61980185D01*
X69926923Y-61996819D01*
X69928599Y-61998495D01*
X70025384Y-62066265D01*
X70122165Y-62134032D01*
X70122167Y-62134033D01*
X70122170Y-62134035D01*
X70336337Y-62233903D01*
X70336343Y-62233904D01*
X70336344Y-62233905D01*
X70391285Y-62248626D01*
X70564592Y-62295063D01*
X70741034Y-62310500D01*
X70799999Y-62315659D01*
X70800000Y-62315659D01*
X70800001Y-62315659D01*
X70858966Y-62310500D01*
X71035408Y-62295063D01*
X71263663Y-62233903D01*
X71477830Y-62134035D01*
X71671401Y-61998495D01*
X71838495Y-61831401D01*
X71968425Y-61645842D01*
X72023002Y-61602217D01*
X72092500Y-61595023D01*
X72154855Y-61626546D01*
X72171575Y-61645842D01*
X72301500Y-61831395D01*
X72301505Y-61831401D01*
X72468599Y-61998495D01*
X72565384Y-62066265D01*
X72662165Y-62134032D01*
X72662167Y-62134033D01*
X72662170Y-62134035D01*
X72876337Y-62233903D01*
X72876343Y-62233904D01*
X72876344Y-62233905D01*
X72931285Y-62248626D01*
X73104592Y-62295063D01*
X73281034Y-62310500D01*
X73339999Y-62315659D01*
X73340000Y-62315659D01*
X73340001Y-62315659D01*
X73398966Y-62310500D01*
X73575408Y-62295063D01*
X73803663Y-62233903D01*
X74017830Y-62134035D01*
X74211401Y-61998495D01*
X74378495Y-61831401D01*
X74508425Y-61645842D01*
X74563002Y-61602217D01*
X74632500Y-61595023D01*
X74694855Y-61626546D01*
X74711575Y-61645842D01*
X74841500Y-61831395D01*
X74841505Y-61831401D01*
X75008599Y-61998495D01*
X75105384Y-62066265D01*
X75202165Y-62134032D01*
X75202167Y-62134033D01*
X75202170Y-62134035D01*
X75416337Y-62233903D01*
X75416343Y-62233904D01*
X75416344Y-62233905D01*
X75471285Y-62248626D01*
X75644592Y-62295063D01*
X75821034Y-62310500D01*
X75879999Y-62315659D01*
X75880000Y-62315659D01*
X75880001Y-62315659D01*
X75938966Y-62310500D01*
X76115408Y-62295063D01*
X76343663Y-62233903D01*
X76557830Y-62134035D01*
X76751401Y-61998495D01*
X76873329Y-61876566D01*
X76934648Y-61843084D01*
X77004340Y-61848068D01*
X77060274Y-61889939D01*
X77077189Y-61920917D01*
X77126202Y-62052328D01*
X77126206Y-62052335D01*
X77212452Y-62167544D01*
X77212455Y-62167547D01*
X77327664Y-62253793D01*
X77327671Y-62253797D01*
X77462517Y-62304091D01*
X77462516Y-62304091D01*
X77469444Y-62304835D01*
X77522127Y-62310500D01*
X79317872Y-62310499D01*
X79377483Y-62304091D01*
X79512331Y-62253796D01*
X79627546Y-62167546D01*
X79713796Y-62052331D01*
X79764091Y-61917483D01*
X79770500Y-61857873D01*
X79770499Y-60062128D01*
X79764091Y-60002517D01*
X79735057Y-59924674D01*
X79713797Y-59867671D01*
X79713793Y-59867664D01*
X79627547Y-59752455D01*
X79627544Y-59752452D01*
X79512335Y-59666206D01*
X79512328Y-59666202D01*
X79377482Y-59615908D01*
X79377483Y-59615908D01*
X79317883Y-59609501D01*
X79317881Y-59609500D01*
X79317873Y-59609500D01*
X79317865Y-59609500D01*
X78535782Y-59609500D01*
X78468743Y-59589815D01*
X78448101Y-59573181D01*
X74736819Y-55861899D01*
X74703334Y-55800576D01*
X74700500Y-55774218D01*
X74700500Y-52762736D01*
X74720185Y-52695697D01*
X74772989Y-52649942D01*
X74842147Y-52639998D01*
X74894723Y-52663545D01*
X74896108Y-52661569D01*
X75080349Y-52790576D01*
X75080351Y-52790577D01*
X75080354Y-52790579D01*
X75279297Y-52883347D01*
X75491326Y-52940161D01*
X75647521Y-52953826D01*
X75709998Y-52959292D01*
X75710000Y-52959292D01*
X75710002Y-52959292D01*
X75764668Y-52954509D01*
X75928674Y-52940161D01*
X76140703Y-52883347D01*
X76339646Y-52790579D01*
X76519457Y-52664674D01*
X76674674Y-52509457D01*
X76800579Y-52329646D01*
X76867618Y-52185878D01*
X76913790Y-52133439D01*
X76980983Y-52114287D01*
X77047864Y-52134502D01*
X77092381Y-52185878D01*
X77101318Y-52205043D01*
X77159419Y-52329642D01*
X77159423Y-52329650D01*
X77285322Y-52509452D01*
X77285327Y-52509458D01*
X77440541Y-52664672D01*
X77440547Y-52664677D01*
X77620349Y-52790576D01*
X77620351Y-52790577D01*
X77620354Y-52790579D01*
X77819297Y-52883347D01*
X78031326Y-52940161D01*
X78187521Y-52953826D01*
X78249998Y-52959292D01*
X78250000Y-52959292D01*
X78250002Y-52959292D01*
X78304668Y-52954509D01*
X78468674Y-52940161D01*
X78680703Y-52883347D01*
X78879646Y-52790579D01*
X79059457Y-52664674D01*
X79214674Y-52509457D01*
X79340579Y-52329646D01*
X79407893Y-52185288D01*
X79454065Y-52132849D01*
X79521258Y-52113697D01*
X79588139Y-52133912D01*
X79632657Y-52185288D01*
X79699854Y-52329392D01*
X79744003Y-52392443D01*
X80307037Y-51829409D01*
X80324075Y-51892993D01*
X80389901Y-52007007D01*
X80482993Y-52100099D01*
X80597007Y-52165925D01*
X80660588Y-52182962D01*
X80097555Y-52745996D01*
X80160601Y-52790142D01*
X80160605Y-52790144D01*
X80359466Y-52882874D01*
X80359475Y-52882878D01*
X80571407Y-52939664D01*
X80571417Y-52939666D01*
X80789999Y-52958790D01*
X80790001Y-52958790D01*
X81008582Y-52939666D01*
X81008588Y-52939665D01*
X81087406Y-52918546D01*
X81157256Y-52920209D01*
X81215119Y-52959371D01*
X81242623Y-53023600D01*
X81243500Y-53038321D01*
X81243500Y-60955902D01*
X81223815Y-61022941D01*
X81207181Y-61043583D01*
X71451286Y-70799478D01*
X71451284Y-70799480D01*
X71380764Y-70870000D01*
X71351453Y-70899311D01*
X71290129Y-70932795D01*
X71220438Y-70927811D01*
X71164505Y-70885939D01*
X71140552Y-70825511D01*
X71138659Y-70808712D01*
X71125368Y-70690745D01*
X71065789Y-70520478D01*
X70969816Y-70367738D01*
X70842262Y-70240184D01*
X70822208Y-70227583D01*
X70689521Y-70144210D01*
X70519249Y-70084630D01*
X70432331Y-70074837D01*
X70367917Y-70047770D01*
X70358534Y-70039298D01*
X64845700Y-64526465D01*
X64812215Y-64465142D01*
X64810163Y-64452686D01*
X64800368Y-64365745D01*
X64740789Y-64195478D01*
X64644816Y-64042738D01*
X64517262Y-63915184D01*
X64364523Y-63819211D01*
X64194254Y-63759631D01*
X64194249Y-63759630D01*
X64015004Y-63739435D01*
X64014996Y-63739435D01*
X63835750Y-63759630D01*
X63835745Y-63759631D01*
X63665476Y-63819211D01*
X63512737Y-63915184D01*
X63385184Y-64042737D01*
X63289211Y-64195476D01*
X63229631Y-64365745D01*
X63229630Y-64365750D01*
X63209435Y-64544996D01*
X63209435Y-64545003D01*
X63229630Y-64724249D01*
X63229631Y-64724254D01*
X63289211Y-64894523D01*
X63385184Y-65047262D01*
X63512738Y-65174816D01*
X63665478Y-65270789D01*
X63835745Y-65330368D01*
X63922669Y-65340161D01*
X63987080Y-65367226D01*
X63996465Y-65375700D01*
X69509298Y-70888534D01*
X69542783Y-70949857D01*
X69544837Y-70962331D01*
X69554630Y-71049249D01*
X69614210Y-71219521D01*
X69660407Y-71293042D01*
X69710184Y-71372262D01*
X69837738Y-71499816D01*
X69990478Y-71595789D01*
X70160745Y-71655368D01*
X70160750Y-71655369D01*
X70339996Y-71675565D01*
X70340000Y-71675565D01*
X70340004Y-71675565D01*
X70519249Y-71655369D01*
X70519252Y-71655368D01*
X70519255Y-71655368D01*
X70689522Y-71595789D01*
X70842262Y-71499816D01*
X70969816Y-71372262D01*
X70990506Y-71339333D01*
X71042840Y-71293042D01*
X71111893Y-71282393D01*
X71175742Y-71310768D01*
X71214114Y-71369158D01*
X71219500Y-71405305D01*
X71219500Y-74101808D01*
X71219499Y-74101826D01*
X71219499Y-74267532D01*
X71219498Y-74267532D01*
X71260423Y-74420263D01*
X71284656Y-74462234D01*
X71284657Y-74462238D01*
X71284658Y-74462238D01*
X71339479Y-74557192D01*
X71339481Y-74557195D01*
X71458349Y-74676063D01*
X71458355Y-74676068D01*
X94333641Y-97551354D01*
X94367126Y-97612677D01*
X94362142Y-97682369D01*
X94320270Y-97738302D01*
X94254806Y-97762719D01*
X94186943Y-97748090D01*
X94044816Y-97671175D01*
X94044813Y-97671174D01*
X94044810Y-97671172D01*
X94044804Y-97671170D01*
X94044802Y-97671169D01*
X93809616Y-97590429D01*
X93564335Y-97549500D01*
X93315665Y-97549500D01*
X93070383Y-97590429D01*
X92835197Y-97671169D01*
X92835188Y-97671172D01*
X92616493Y-97789524D01*
X92420257Y-97942261D01*
X92261230Y-98115010D01*
X92201342Y-98151001D01*
X92131504Y-98148900D01*
X92078770Y-98115010D01*
X92032723Y-98064990D01*
X91919744Y-97942262D01*
X91723509Y-97789526D01*
X91723507Y-97789525D01*
X91723506Y-97789524D01*
X91504811Y-97671172D01*
X91504802Y-97671169D01*
X91269616Y-97590429D01*
X91024335Y-97549500D01*
X90775665Y-97549500D01*
X90530383Y-97590429D01*
X90295197Y-97671169D01*
X90295188Y-97671172D01*
X90076493Y-97789524D01*
X89880257Y-97942261D01*
X89721230Y-98115010D01*
X89661342Y-98151001D01*
X89591504Y-98148900D01*
X89538770Y-98115010D01*
X89492723Y-98064990D01*
X89379744Y-97942262D01*
X89183509Y-97789526D01*
X89183507Y-97789525D01*
X89183506Y-97789524D01*
X88964811Y-97671172D01*
X88964802Y-97671169D01*
X88729616Y-97590429D01*
X88484335Y-97549500D01*
X88235665Y-97549500D01*
X87990383Y-97590429D01*
X87755197Y-97671169D01*
X87755188Y-97671172D01*
X87536493Y-97789524D01*
X87340257Y-97942261D01*
X87181230Y-98115010D01*
X87121342Y-98151001D01*
X87051504Y-98148900D01*
X86998770Y-98115010D01*
X86952723Y-98064990D01*
X86839744Y-97942262D01*
X86643509Y-97789526D01*
X86643507Y-97789525D01*
X86643506Y-97789524D01*
X86424811Y-97671172D01*
X86424802Y-97671169D01*
X86189616Y-97590429D01*
X85944335Y-97549500D01*
X85695665Y-97549500D01*
X85450383Y-97590429D01*
X85215197Y-97671169D01*
X85215188Y-97671172D01*
X84996493Y-97789524D01*
X84800257Y-97942261D01*
X84641230Y-98115010D01*
X84581342Y-98151001D01*
X84511504Y-98148900D01*
X84458770Y-98115010D01*
X84412723Y-98064990D01*
X84299744Y-97942262D01*
X84103509Y-97789526D01*
X84103507Y-97789525D01*
X84103506Y-97789524D01*
X83884811Y-97671172D01*
X83884802Y-97671169D01*
X83649616Y-97590429D01*
X83404335Y-97549500D01*
X83155665Y-97549500D01*
X82910383Y-97590429D01*
X82675197Y-97671169D01*
X82675188Y-97671172D01*
X82456493Y-97789524D01*
X82260257Y-97942261D01*
X82101230Y-98115010D01*
X82041342Y-98151001D01*
X81971504Y-98148900D01*
X81918770Y-98115010D01*
X81872723Y-98064990D01*
X81759744Y-97942262D01*
X81563509Y-97789526D01*
X81563507Y-97789525D01*
X81563506Y-97789524D01*
X81344811Y-97671172D01*
X81344802Y-97671169D01*
X81109616Y-97590429D01*
X80864335Y-97549500D01*
X80615665Y-97549500D01*
X80370383Y-97590429D01*
X80135197Y-97671169D01*
X80135188Y-97671172D01*
X79916493Y-97789524D01*
X79720257Y-97942261D01*
X79561230Y-98115010D01*
X79501342Y-98151001D01*
X79431504Y-98148900D01*
X79378770Y-98115010D01*
X79332723Y-98064990D01*
X79219744Y-97942262D01*
X79023509Y-97789526D01*
X79023507Y-97789525D01*
X79023506Y-97789524D01*
X78804811Y-97671172D01*
X78804802Y-97671169D01*
X78569616Y-97590429D01*
X78324335Y-97549500D01*
X78075665Y-97549500D01*
X77830383Y-97590429D01*
X77595197Y-97671169D01*
X77595188Y-97671172D01*
X77376493Y-97789524D01*
X77180257Y-97942261D01*
X77011837Y-98125213D01*
X77011829Y-98125224D01*
X77011455Y-98125797D01*
X77011242Y-98125978D01*
X77008690Y-98129258D01*
X77008014Y-98128732D01*
X76958304Y-98171147D01*
X76894865Y-98181302D01*
X76883434Y-98180116D01*
X76151127Y-98912423D01*
X76135245Y-98853147D01*
X76068102Y-98736853D01*
X75973147Y-98641898D01*
X75856853Y-98574755D01*
X75797574Y-98558871D01*
X76530057Y-97826389D01*
X76483229Y-97789943D01*
X76264614Y-97671635D01*
X76264603Y-97671630D01*
X76029493Y-97590916D01*
X75784293Y-97550000D01*
X75535707Y-97550000D01*
X75290506Y-97590916D01*
X75055396Y-97671630D01*
X75055385Y-97671635D01*
X74836771Y-97789942D01*
X74836769Y-97789943D01*
X74753397Y-97854835D01*
X74688403Y-97880477D01*
X74619863Y-97866910D01*
X74569538Y-97818442D01*
X74568120Y-97815413D01*
X74568047Y-97815454D01*
X74563793Y-97807664D01*
X74477547Y-97692455D01*
X74477544Y-97692452D01*
X74362335Y-97606206D01*
X74362328Y-97606202D01*
X74227482Y-97555908D01*
X74227483Y-97555908D01*
X74167883Y-97549501D01*
X74167881Y-97549500D01*
X74167873Y-97549500D01*
X74167864Y-97549500D01*
X72072129Y-97549500D01*
X72072123Y-97549501D01*
X72012516Y-97555908D01*
X71877671Y-97606202D01*
X71877664Y-97606206D01*
X71762455Y-97692452D01*
X71762452Y-97692455D01*
X71676206Y-97807664D01*
X71676202Y-97807671D01*
X71625908Y-97942517D01*
X71619501Y-98002116D01*
X71619500Y-98002135D01*
X71619500Y-100097870D01*
X71619501Y-100097876D01*
X71625908Y-100157483D01*
X71676202Y-100292328D01*
X71676206Y-100292335D01*
X71762452Y-100407544D01*
X71762455Y-100407547D01*
X71877664Y-100493793D01*
X71877671Y-100493797D01*
X72012517Y-100544091D01*
X72012516Y-100544091D01*
X72019444Y-100544835D01*
X72072127Y-100550500D01*
X74167872Y-100550499D01*
X74227483Y-100544091D01*
X74362331Y-100493796D01*
X74477546Y-100407546D01*
X74563796Y-100292331D01*
X74563797Y-100292326D01*
X74568047Y-100284546D01*
X74571135Y-100286232D01*
X74602873Y-100243790D01*
X74668324Y-100219339D01*
X74736605Y-100234155D01*
X74753398Y-100245165D01*
X74836768Y-100310055D01*
X74836771Y-100310057D01*
X75055385Y-100428364D01*
X75055396Y-100428369D01*
X75290506Y-100509083D01*
X75535707Y-100550000D01*
X75784293Y-100550000D01*
X76029493Y-100509083D01*
X76264603Y-100428369D01*
X76264614Y-100428364D01*
X76483228Y-100310057D01*
X76483231Y-100310055D01*
X76530056Y-100273609D01*
X75797575Y-99541128D01*
X75856853Y-99525245D01*
X75973147Y-99458102D01*
X76068102Y-99363147D01*
X76135245Y-99246853D01*
X76151128Y-99187575D01*
X76883434Y-99919882D01*
X76894861Y-99918697D01*
X76963573Y-99931360D01*
X77008092Y-99971194D01*
X77008683Y-99970735D01*
X77011218Y-99973992D01*
X77011456Y-99974205D01*
X77011831Y-99974780D01*
X77011836Y-99974785D01*
X77180256Y-100157738D01*
X77376491Y-100310474D01*
X77376493Y-100310475D01*
X77594332Y-100428364D01*
X77595190Y-100428828D01*
X77715216Y-100470033D01*
X77828964Y-100509083D01*
X77830386Y-100509571D01*
X78075665Y-100550500D01*
X78324335Y-100550500D01*
X78569614Y-100509571D01*
X78804810Y-100428828D01*
X79023509Y-100310474D01*
X79219744Y-100157738D01*
X79378771Y-99984988D01*
X79438657Y-99948999D01*
X79508495Y-99951099D01*
X79561228Y-99984988D01*
X79720256Y-100157738D01*
X79916491Y-100310474D01*
X79916493Y-100310475D01*
X80134332Y-100428364D01*
X80135190Y-100428828D01*
X80255216Y-100470033D01*
X80368964Y-100509083D01*
X80370386Y-100509571D01*
X80615665Y-100550500D01*
X80864335Y-100550500D01*
X81109614Y-100509571D01*
X81344810Y-100428828D01*
X81563509Y-100310474D01*
X81759744Y-100157738D01*
X81918771Y-99984988D01*
X81978657Y-99948999D01*
X82048495Y-99951099D01*
X82101228Y-99984988D01*
X82260256Y-100157738D01*
X82456491Y-100310474D01*
X82456493Y-100310475D01*
X82674332Y-100428364D01*
X82675190Y-100428828D01*
X82795216Y-100470033D01*
X82908964Y-100509083D01*
X82910386Y-100509571D01*
X83155665Y-100550500D01*
X83404335Y-100550500D01*
X83649614Y-100509571D01*
X83884810Y-100428828D01*
X84103509Y-100310474D01*
X84299744Y-100157738D01*
X84458771Y-99984988D01*
X84518657Y-99948999D01*
X84588495Y-99951099D01*
X84641228Y-99984988D01*
X84800256Y-100157738D01*
X84996491Y-100310474D01*
X84996493Y-100310475D01*
X85214332Y-100428364D01*
X85215190Y-100428828D01*
X85335216Y-100470033D01*
X85448964Y-100509083D01*
X85450386Y-100509571D01*
X85695665Y-100550500D01*
X85944335Y-100550500D01*
X86189614Y-100509571D01*
X86424810Y-100428828D01*
X86643509Y-100310474D01*
X86839744Y-100157738D01*
X86998771Y-99984988D01*
X87058657Y-99948999D01*
X87128495Y-99951099D01*
X87181228Y-99984988D01*
X87340256Y-100157738D01*
X87536491Y-100310474D01*
X87536493Y-100310475D01*
X87754332Y-100428364D01*
X87755190Y-100428828D01*
X87875216Y-100470033D01*
X87988964Y-100509083D01*
X87990386Y-100509571D01*
X88235665Y-100550500D01*
X88484335Y-100550500D01*
X88729614Y-100509571D01*
X88964810Y-100428828D01*
X89183509Y-100310474D01*
X89379744Y-100157738D01*
X89538771Y-99984988D01*
X89598657Y-99948999D01*
X89668495Y-99951099D01*
X89721228Y-99984988D01*
X89880256Y-100157738D01*
X90076491Y-100310474D01*
X90076493Y-100310475D01*
X90294332Y-100428364D01*
X90295190Y-100428828D01*
X90415216Y-100470033D01*
X90528964Y-100509083D01*
X90530386Y-100509571D01*
X90775665Y-100550500D01*
X91024335Y-100550500D01*
X91269608Y-100509572D01*
X91269607Y-100509572D01*
X91269614Y-100509571D01*
X91375607Y-100473182D01*
X91445402Y-100470033D01*
X91503548Y-100502783D01*
X103755139Y-112754374D01*
X103755149Y-112754385D01*
X103759479Y-112758715D01*
X103759480Y-112758716D01*
X103871284Y-112870520D01*
X103958095Y-112920639D01*
X103958097Y-112920641D01*
X103996151Y-112942611D01*
X104008215Y-112949577D01*
X104160943Y-112990501D01*
X104160946Y-112990501D01*
X104326653Y-112990501D01*
X104326669Y-112990500D01*
X111450909Y-112990500D01*
X111517948Y-113010185D01*
X111563292Y-113062097D01*
X111565965Y-113067830D01*
X111701501Y-113261396D01*
X111701506Y-113261402D01*
X111823818Y-113383714D01*
X111857303Y-113445037D01*
X111852319Y-113514729D01*
X111810447Y-113570662D01*
X111779471Y-113587577D01*
X111647912Y-113636646D01*
X111647906Y-113636649D01*
X111532812Y-113722809D01*
X111532809Y-113722812D01*
X111446649Y-113837906D01*
X111446645Y-113837913D01*
X111396403Y-113972620D01*
X111396401Y-113972627D01*
X111390000Y-114032155D01*
X111390000Y-114680000D01*
X112306988Y-114680000D01*
X112274075Y-114737007D01*
X112240000Y-114864174D01*
X112240000Y-114995826D01*
X112274075Y-115122993D01*
X112306988Y-115180000D01*
X111390000Y-115180000D01*
X111390000Y-115827844D01*
X111396401Y-115887372D01*
X111396403Y-115887379D01*
X111446645Y-116022086D01*
X111446649Y-116022093D01*
X111532809Y-116137187D01*
X111532812Y-116137190D01*
X111647906Y-116223350D01*
X111647913Y-116223354D01*
X111782620Y-116273596D01*
X111782627Y-116273598D01*
X111842155Y-116279999D01*
X111842172Y-116280000D01*
X112490000Y-116280000D01*
X112490000Y-115363012D01*
X112547007Y-115395925D01*
X112674174Y-115430000D01*
X112805826Y-115430000D01*
X112932993Y-115395925D01*
X112990000Y-115363012D01*
X112990000Y-116280000D01*
X113637828Y-116280000D01*
X113637844Y-116279999D01*
X113697372Y-116273598D01*
X113697379Y-116273596D01*
X113832086Y-116223354D01*
X113832093Y-116223350D01*
X113947187Y-116137190D01*
X113947190Y-116137187D01*
X114033350Y-116022093D01*
X114033354Y-116022086D01*
X114083596Y-115887379D01*
X114083598Y-115887372D01*
X114089999Y-115827844D01*
X114090000Y-115827827D01*
X114090000Y-115180000D01*
X113173012Y-115180000D01*
X113205925Y-115122993D01*
X113240000Y-114995826D01*
X113240000Y-114864174D01*
X113205925Y-114737007D01*
X113173012Y-114680000D01*
X114090000Y-114680000D01*
X114090000Y-114032172D01*
X114089999Y-114032155D01*
X114083598Y-113972627D01*
X114083596Y-113972620D01*
X114033354Y-113837913D01*
X114033350Y-113837906D01*
X113947190Y-113722812D01*
X113947187Y-113722809D01*
X113832093Y-113636649D01*
X113832088Y-113636646D01*
X113700528Y-113587577D01*
X113644595Y-113545705D01*
X113620178Y-113480241D01*
X113635030Y-113411968D01*
X113656175Y-113383720D01*
X113778495Y-113261401D01*
X113914035Y-113067830D01*
X114013903Y-112853663D01*
X114075063Y-112625408D01*
X114095659Y-112390000D01*
X114075063Y-112154592D01*
X114013903Y-111926337D01*
X113914035Y-111712171D01*
X113914034Y-111712169D01*
X113778494Y-111518597D01*
X113611402Y-111351506D01*
X113611396Y-111351501D01*
X113425842Y-111221575D01*
X113382217Y-111166998D01*
X113375023Y-111097500D01*
X113406546Y-111035145D01*
X113425842Y-111018425D01*
X113448026Y-111002891D01*
X113611401Y-110888495D01*
X113778495Y-110721401D01*
X113914035Y-110527830D01*
X114013903Y-110313663D01*
X114075063Y-110085408D01*
X114095659Y-109850000D01*
X114075063Y-109614592D01*
X114013903Y-109386337D01*
X113914035Y-109172171D01*
X113914034Y-109172169D01*
X113778494Y-108978597D01*
X113611402Y-108811506D01*
X113611396Y-108811501D01*
X113425842Y-108681575D01*
X113382217Y-108626998D01*
X113375023Y-108557500D01*
X113406546Y-108495145D01*
X113425842Y-108478425D01*
X113448026Y-108462891D01*
X113611401Y-108348495D01*
X113778495Y-108181401D01*
X113914035Y-107987830D01*
X114013903Y-107773663D01*
X114075063Y-107545408D01*
X114095659Y-107310000D01*
X114075063Y-107074592D01*
X114013903Y-106846337D01*
X113914035Y-106632171D01*
X113914034Y-106632169D01*
X113778494Y-106438597D01*
X113611402Y-106271506D01*
X113611395Y-106271501D01*
X113417834Y-106135967D01*
X113417830Y-106135965D01*
X113417828Y-106135964D01*
X113203663Y-106036097D01*
X113203659Y-106036096D01*
X113203655Y-106036094D01*
X112975413Y-105974938D01*
X112975403Y-105974936D01*
X112740001Y-105954341D01*
X112739999Y-105954341D01*
X112504596Y-105974936D01*
X112504586Y-105974938D01*
X112276344Y-106036094D01*
X112276335Y-106036098D01*
X112062171Y-106135964D01*
X112062169Y-106135965D01*
X111868597Y-106271505D01*
X111701506Y-106438596D01*
X111565965Y-106632170D01*
X111565962Y-106632175D01*
X111563289Y-106637909D01*
X111517115Y-106690346D01*
X111450909Y-106709500D01*
X104540097Y-106709500D01*
X104473058Y-106689815D01*
X104452416Y-106673181D01*
X98541416Y-100762181D01*
X98507931Y-100700858D01*
X98512915Y-100631166D01*
X98554787Y-100575233D01*
X98620251Y-100550816D01*
X98629097Y-100550500D01*
X98644335Y-100550500D01*
X98889614Y-100509571D01*
X99124810Y-100428828D01*
X99343509Y-100310474D01*
X99539744Y-100157738D01*
X99698771Y-99984988D01*
X99758657Y-99948999D01*
X99828495Y-99951099D01*
X99881228Y-99984988D01*
X100040256Y-100157738D01*
X100236491Y-100310474D01*
X100236493Y-100310475D01*
X100454332Y-100428364D01*
X100455190Y-100428828D01*
X100575216Y-100470033D01*
X100688964Y-100509083D01*
X100690386Y-100509571D01*
X100935665Y-100550500D01*
X101184335Y-100550500D01*
X101429614Y-100509571D01*
X101664810Y-100428828D01*
X101883509Y-100310474D01*
X102079744Y-100157738D01*
X102238771Y-99984988D01*
X102298657Y-99948999D01*
X102368495Y-99951099D01*
X102421228Y-99984988D01*
X102580256Y-100157738D01*
X102776491Y-100310474D01*
X102776493Y-100310475D01*
X102994332Y-100428364D01*
X102995190Y-100428828D01*
X103115216Y-100470033D01*
X103228964Y-100509083D01*
X103230386Y-100509571D01*
X103475665Y-100550500D01*
X103724335Y-100550500D01*
X103969614Y-100509571D01*
X104204810Y-100428828D01*
X104423509Y-100310474D01*
X104619744Y-100157738D01*
X104778771Y-99984988D01*
X104838657Y-99948999D01*
X104908495Y-99951099D01*
X104961228Y-99984988D01*
X105120256Y-100157738D01*
X105316491Y-100310474D01*
X105316493Y-100310475D01*
X105534332Y-100428364D01*
X105535190Y-100428828D01*
X105655216Y-100470033D01*
X105768964Y-100509083D01*
X105770386Y-100509571D01*
X106015665Y-100550500D01*
X106264335Y-100550500D01*
X106509614Y-100509571D01*
X106744810Y-100428828D01*
X106963509Y-100310474D01*
X107159744Y-100157738D01*
X107318771Y-99984988D01*
X107378657Y-99948999D01*
X107448495Y-99951099D01*
X107501228Y-99984988D01*
X107660256Y-100157738D01*
X107856491Y-100310474D01*
X107856493Y-100310475D01*
X108074332Y-100428364D01*
X108075190Y-100428828D01*
X108195216Y-100470033D01*
X108308964Y-100509083D01*
X108310386Y-100509571D01*
X108555665Y-100550500D01*
X108804335Y-100550500D01*
X109049614Y-100509571D01*
X109284810Y-100428828D01*
X109503509Y-100310474D01*
X109699744Y-100157738D01*
X109868164Y-99974785D01*
X110004173Y-99766607D01*
X110104063Y-99538881D01*
X110165108Y-99297821D01*
X110165109Y-99297812D01*
X110179842Y-99120013D01*
X110204995Y-99054828D01*
X110261397Y-99013590D01*
X110331140Y-99009392D01*
X110392082Y-99043566D01*
X110423191Y-99098157D01*
X110428279Y-99117143D01*
X110448842Y-99193887D01*
X110536650Y-99405876D01*
X110536657Y-99405890D01*
X110651392Y-99604617D01*
X110791081Y-99786661D01*
X110791089Y-99786670D01*
X110953330Y-99948911D01*
X110953338Y-99948918D01*
X110953339Y-99948919D01*
X110987044Y-99974782D01*
X111135382Y-100088607D01*
X111135385Y-100088608D01*
X111135388Y-100088611D01*
X111334112Y-100203344D01*
X111334117Y-100203346D01*
X111334123Y-100203349D01*
X111372727Y-100219339D01*
X111546113Y-100291158D01*
X111767762Y-100350548D01*
X111995266Y-100380500D01*
X111995273Y-100380500D01*
X112224727Y-100380500D01*
X112224734Y-100380500D01*
X112452238Y-100350548D01*
X112673887Y-100291158D01*
X112885888Y-100203344D01*
X113084612Y-100088611D01*
X113266661Y-99948919D01*
X113266665Y-99948914D01*
X113266670Y-99948911D01*
X113428911Y-99786670D01*
X113428914Y-99786665D01*
X113428919Y-99786661D01*
X113568611Y-99604612D01*
X113683344Y-99405888D01*
X113771158Y-99193887D01*
X113830548Y-98972238D01*
X113860500Y-98744734D01*
X113860500Y-98515266D01*
X113830548Y-98287762D01*
X113771158Y-98066113D01*
X113694265Y-97880477D01*
X113683349Y-97854123D01*
X113683346Y-97854117D01*
X113683344Y-97854112D01*
X113568611Y-97655388D01*
X113568608Y-97655385D01*
X113568607Y-97655382D01*
X113428918Y-97473338D01*
X113428911Y-97473330D01*
X113266670Y-97311089D01*
X113266661Y-97311081D01*
X113084617Y-97171392D01*
X113012021Y-97129479D01*
X112885888Y-97056656D01*
X112885876Y-97056650D01*
X112673887Y-96968842D01*
X112452238Y-96909452D01*
X112414215Y-96904446D01*
X112224741Y-96879500D01*
X112224734Y-96879500D01*
X111995266Y-96879500D01*
X111995258Y-96879500D01*
X111778715Y-96908009D01*
X111767762Y-96909452D01*
X111674076Y-96934554D01*
X111546112Y-96968842D01*
X111334123Y-97056650D01*
X111334109Y-97056657D01*
X111135382Y-97171392D01*
X110953338Y-97311081D01*
X110791081Y-97473338D01*
X110651392Y-97655382D01*
X110536657Y-97854109D01*
X110536650Y-97854123D01*
X110448842Y-98066112D01*
X110389453Y-98287759D01*
X110389451Y-98287770D01*
X110359500Y-98515258D01*
X110359500Y-98575028D01*
X110339815Y-98642067D01*
X110287011Y-98687822D01*
X110217853Y-98697766D01*
X110154297Y-98668741D01*
X110116523Y-98609963D01*
X110115294Y-98605469D01*
X110104062Y-98561117D01*
X110004173Y-98333393D01*
X109868166Y-98125217D01*
X109812723Y-98064990D01*
X109699744Y-97942262D01*
X109503509Y-97789526D01*
X109503507Y-97789525D01*
X109503506Y-97789524D01*
X109284811Y-97671172D01*
X109284802Y-97671169D01*
X109049616Y-97590429D01*
X108804335Y-97549500D01*
X108555665Y-97549500D01*
X108310382Y-97590429D01*
X108310380Y-97590429D01*
X108204393Y-97626815D01*
X108134595Y-97629965D01*
X108076450Y-97597215D01*
X107727590Y-97248355D01*
X107727588Y-97248352D01*
X107608717Y-97129481D01*
X107608716Y-97129480D01*
X107521904Y-97079360D01*
X107521904Y-97079359D01*
X107521900Y-97079358D01*
X107471785Y-97050423D01*
X107319057Y-97009499D01*
X107160943Y-97009499D01*
X107153347Y-97009499D01*
X107153331Y-97009500D01*
X95541619Y-97009500D01*
X95474580Y-96989815D01*
X95453938Y-96973181D01*
X93740757Y-95260000D01*
X107620000Y-95260000D01*
X114110000Y-95260000D01*
X114110000Y-77570000D01*
X107620000Y-77570000D01*
X107620000Y-95260000D01*
X93740757Y-95260000D01*
X73702748Y-75221991D01*
X73669263Y-75160668D01*
X73674247Y-75090976D01*
X73716119Y-75035043D01*
X73731412Y-75025255D01*
X73943503Y-74910477D01*
X73943505Y-74910476D01*
X73943504Y-74910476D01*
X73943509Y-74910474D01*
X74139744Y-74757738D01*
X74308164Y-74574785D01*
X74308533Y-74574219D01*
X74308745Y-74574038D01*
X74311322Y-74570729D01*
X74312002Y-74571258D01*
X74361676Y-74528860D01*
X74425138Y-74518697D01*
X74436564Y-74519882D01*
X75168871Y-73787575D01*
X75184755Y-73846853D01*
X75251898Y-73963147D01*
X75346853Y-74058102D01*
X75463147Y-74125245D01*
X75522424Y-74141128D01*
X74789942Y-74873609D01*
X74836768Y-74910055D01*
X74836770Y-74910056D01*
X75055385Y-75028364D01*
X75055396Y-75028369D01*
X75290506Y-75109083D01*
X75535707Y-75150000D01*
X75784293Y-75150000D01*
X76029493Y-75109083D01*
X76264603Y-75028369D01*
X76264614Y-75028364D01*
X76483228Y-74910057D01*
X76483231Y-74910055D01*
X76530056Y-74873609D01*
X75797575Y-74141128D01*
X75856853Y-74125245D01*
X75973147Y-74058102D01*
X76068102Y-73963147D01*
X76135245Y-73846853D01*
X76151128Y-73787575D01*
X76883434Y-74519882D01*
X76894861Y-74518697D01*
X76963573Y-74531360D01*
X77008092Y-74571194D01*
X77008683Y-74570735D01*
X77011218Y-74573992D01*
X77011456Y-74574205D01*
X77011831Y-74574780D01*
X77011836Y-74574785D01*
X77180256Y-74757738D01*
X77376491Y-74910474D01*
X77376493Y-74910475D01*
X77594332Y-75028364D01*
X77595190Y-75028828D01*
X77755411Y-75083832D01*
X77828964Y-75109083D01*
X77830386Y-75109571D01*
X78075665Y-75150500D01*
X78324335Y-75150500D01*
X78569614Y-75109571D01*
X78804810Y-75028828D01*
X79023509Y-74910474D01*
X79219744Y-74757738D01*
X79378771Y-74584988D01*
X79438657Y-74548999D01*
X79508495Y-74551099D01*
X79561228Y-74584988D01*
X79720256Y-74757738D01*
X79916491Y-74910474D01*
X79916493Y-74910475D01*
X80134332Y-75028364D01*
X80135190Y-75028828D01*
X80295411Y-75083832D01*
X80368964Y-75109083D01*
X80370386Y-75109571D01*
X80615665Y-75150500D01*
X80864335Y-75150500D01*
X81109614Y-75109571D01*
X81344810Y-75028828D01*
X81563509Y-74910474D01*
X81759744Y-74757738D01*
X81918771Y-74584988D01*
X81978657Y-74548999D01*
X82048495Y-74551099D01*
X82101228Y-74584988D01*
X82260256Y-74757738D01*
X82456491Y-74910474D01*
X82456493Y-74910475D01*
X82674332Y-75028364D01*
X82675190Y-75028828D01*
X82835411Y-75083832D01*
X82908964Y-75109083D01*
X82910386Y-75109571D01*
X83155665Y-75150500D01*
X83404335Y-75150500D01*
X83649614Y-75109571D01*
X83884810Y-75028828D01*
X84103509Y-74910474D01*
X84299744Y-74757738D01*
X84458771Y-74584988D01*
X84518657Y-74548999D01*
X84588495Y-74551099D01*
X84641228Y-74584988D01*
X84800256Y-74757738D01*
X84996491Y-74910474D01*
X84996493Y-74910475D01*
X85214332Y-75028364D01*
X85215190Y-75028828D01*
X85375411Y-75083832D01*
X85448964Y-75109083D01*
X85450386Y-75109571D01*
X85695665Y-75150500D01*
X85944335Y-75150500D01*
X86189614Y-75109571D01*
X86424810Y-75028828D01*
X86643509Y-74910474D01*
X86839744Y-74757738D01*
X86998771Y-74584988D01*
X87058657Y-74548999D01*
X87128495Y-74551099D01*
X87181228Y-74584988D01*
X87340256Y-74757738D01*
X87536491Y-74910474D01*
X87536493Y-74910475D01*
X87754332Y-75028364D01*
X87755190Y-75028828D01*
X87915411Y-75083832D01*
X87988964Y-75109083D01*
X87990386Y-75109571D01*
X88235665Y-75150500D01*
X88484335Y-75150500D01*
X88729614Y-75109571D01*
X88964810Y-75028828D01*
X89183509Y-74910474D01*
X89379744Y-74757738D01*
X89538771Y-74584988D01*
X89598657Y-74548999D01*
X89668495Y-74551099D01*
X89721228Y-74584988D01*
X89880256Y-74757738D01*
X90076491Y-74910474D01*
X90076493Y-74910475D01*
X90294332Y-75028364D01*
X90295190Y-75028828D01*
X90455411Y-75083832D01*
X90528964Y-75109083D01*
X90530386Y-75109571D01*
X90775665Y-75150500D01*
X91024335Y-75150500D01*
X91269614Y-75109571D01*
X91504810Y-75028828D01*
X91723509Y-74910474D01*
X91919744Y-74757738D01*
X92078771Y-74584988D01*
X92138657Y-74548999D01*
X92208495Y-74551099D01*
X92261228Y-74584988D01*
X92420256Y-74757738D01*
X92616491Y-74910474D01*
X92616493Y-74910475D01*
X92834332Y-75028364D01*
X92835190Y-75028828D01*
X92995411Y-75083832D01*
X93068964Y-75109083D01*
X93070386Y-75109571D01*
X93315665Y-75150500D01*
X93564335Y-75150500D01*
X93809614Y-75109571D01*
X94044810Y-75028828D01*
X94263509Y-74910474D01*
X94459744Y-74757738D01*
X94618771Y-74584988D01*
X94678657Y-74548999D01*
X94748495Y-74551099D01*
X94801228Y-74584988D01*
X94960256Y-74757738D01*
X95156491Y-74910474D01*
X95156493Y-74910475D01*
X95374332Y-75028364D01*
X95375190Y-75028828D01*
X95535411Y-75083832D01*
X95608964Y-75109083D01*
X95610386Y-75109571D01*
X95855665Y-75150500D01*
X96104335Y-75150500D01*
X96349614Y-75109571D01*
X96584810Y-75028828D01*
X96803509Y-74910474D01*
X96999744Y-74757738D01*
X97158771Y-74584988D01*
X97218657Y-74548999D01*
X97288495Y-74551099D01*
X97341228Y-74584988D01*
X97500256Y-74757738D01*
X97696491Y-74910474D01*
X97696493Y-74910475D01*
X97914332Y-75028364D01*
X97915190Y-75028828D01*
X98075411Y-75083832D01*
X98148964Y-75109083D01*
X98150386Y-75109571D01*
X98395665Y-75150500D01*
X98644335Y-75150500D01*
X98889614Y-75109571D01*
X99124810Y-75028828D01*
X99343509Y-74910474D01*
X99539744Y-74757738D01*
X99698771Y-74584988D01*
X99758657Y-74548999D01*
X99828495Y-74551099D01*
X99881228Y-74584988D01*
X100040256Y-74757738D01*
X100236491Y-74910474D01*
X100236493Y-74910475D01*
X100454332Y-75028364D01*
X100455190Y-75028828D01*
X100615411Y-75083832D01*
X100688964Y-75109083D01*
X100690386Y-75109571D01*
X100935665Y-75150500D01*
X101184335Y-75150500D01*
X101429614Y-75109571D01*
X101664810Y-75028828D01*
X101883509Y-74910474D01*
X102079744Y-74757738D01*
X102238771Y-74584988D01*
X102298657Y-74548999D01*
X102368495Y-74551099D01*
X102421228Y-74584988D01*
X102580256Y-74757738D01*
X102776491Y-74910474D01*
X102776493Y-74910475D01*
X102994332Y-75028364D01*
X102995190Y-75028828D01*
X103155411Y-75083832D01*
X103228964Y-75109083D01*
X103230386Y-75109571D01*
X103475665Y-75150500D01*
X103724335Y-75150500D01*
X103969614Y-75109571D01*
X104204810Y-75028828D01*
X104423509Y-74910474D01*
X104619744Y-74757738D01*
X104778771Y-74584988D01*
X104838657Y-74548999D01*
X104908495Y-74551099D01*
X104961228Y-74584988D01*
X105120256Y-74757738D01*
X105316491Y-74910474D01*
X105316493Y-74910475D01*
X105534332Y-75028364D01*
X105535190Y-75028828D01*
X105695411Y-75083832D01*
X105768964Y-75109083D01*
X105770386Y-75109571D01*
X106015665Y-75150500D01*
X106264335Y-75150500D01*
X106509614Y-75109571D01*
X106744810Y-75028828D01*
X106963509Y-74910474D01*
X107159744Y-74757738D01*
X107318771Y-74584988D01*
X107378657Y-74548999D01*
X107448495Y-74551099D01*
X107501228Y-74584988D01*
X107660256Y-74757738D01*
X107856491Y-74910474D01*
X107856493Y-74910475D01*
X108074332Y-75028364D01*
X108075190Y-75028828D01*
X108235411Y-75083832D01*
X108308964Y-75109083D01*
X108310386Y-75109571D01*
X108555665Y-75150500D01*
X108804335Y-75150500D01*
X109049614Y-75109571D01*
X109284810Y-75028828D01*
X109503509Y-74910474D01*
X109699744Y-74757738D01*
X109868164Y-74574785D01*
X110004173Y-74366607D01*
X110104063Y-74138881D01*
X110115294Y-74094530D01*
X110150834Y-74034375D01*
X110213254Y-74002983D01*
X110282737Y-74010321D01*
X110337223Y-74054060D01*
X110359412Y-74120312D01*
X110359500Y-74124971D01*
X110359500Y-74234741D01*
X110383926Y-74420263D01*
X110389452Y-74462238D01*
X110419608Y-74574782D01*
X110448842Y-74683887D01*
X110536650Y-74895876D01*
X110536657Y-74895890D01*
X110651392Y-75094617D01*
X110791081Y-75276661D01*
X110791089Y-75276670D01*
X110953330Y-75438911D01*
X110953338Y-75438918D01*
X111135382Y-75578607D01*
X111135385Y-75578608D01*
X111135388Y-75578611D01*
X111334112Y-75693344D01*
X111334117Y-75693346D01*
X111334123Y-75693349D01*
X111425480Y-75731190D01*
X111546113Y-75781158D01*
X111767762Y-75840548D01*
X111995266Y-75870500D01*
X111995273Y-75870500D01*
X112224727Y-75870500D01*
X112224734Y-75870500D01*
X112452238Y-75840548D01*
X112673887Y-75781158D01*
X112885888Y-75693344D01*
X113084612Y-75578611D01*
X113266661Y-75438919D01*
X113266665Y-75438914D01*
X113266670Y-75438911D01*
X113428911Y-75276670D01*
X113428914Y-75276665D01*
X113428919Y-75276661D01*
X113568611Y-75094612D01*
X113683344Y-74895888D01*
X113771158Y-74683887D01*
X113830548Y-74462238D01*
X113860500Y-74234734D01*
X113860500Y-74005266D01*
X113860274Y-74003553D01*
X113846354Y-73897821D01*
X113830548Y-73777762D01*
X113771158Y-73556113D01*
X113683344Y-73344112D01*
X113568611Y-73145388D01*
X113568608Y-73145385D01*
X113568607Y-73145382D01*
X113448804Y-72989254D01*
X113428919Y-72963339D01*
X113428918Y-72963338D01*
X113428911Y-72963330D01*
X113275577Y-72809996D01*
X116744435Y-72809996D01*
X116744435Y-72810003D01*
X116764630Y-72989249D01*
X116764631Y-72989254D01*
X116824211Y-73159523D01*
X116875971Y-73241898D01*
X116920184Y-73312262D01*
X117047738Y-73439816D01*
X117200478Y-73535789D01*
X117258558Y-73556112D01*
X117370745Y-73595368D01*
X117370750Y-73595369D01*
X117549996Y-73615565D01*
X117550000Y-73615565D01*
X117550004Y-73615565D01*
X117729249Y-73595369D01*
X117729252Y-73595368D01*
X117729255Y-73595368D01*
X117899522Y-73535789D01*
X118052262Y-73439816D01*
X118179816Y-73312262D01*
X118275789Y-73159522D01*
X118335368Y-72989255D01*
X118346431Y-72891058D01*
X118373496Y-72826648D01*
X118381960Y-72817273D01*
X119768535Y-71430698D01*
X119829856Y-71397215D01*
X119842311Y-71395163D01*
X119929255Y-71385368D01*
X120099522Y-71325789D01*
X120252262Y-71229816D01*
X120379816Y-71102262D01*
X120475789Y-70949522D01*
X120535368Y-70779255D01*
X120552269Y-70629254D01*
X120555565Y-70600003D01*
X120555565Y-70599996D01*
X120535369Y-70420750D01*
X120535368Y-70420745D01*
X120482882Y-70270750D01*
X120475789Y-70250478D01*
X120379816Y-70097738D01*
X120252262Y-69970184D01*
X120099523Y-69874211D01*
X119929254Y-69814631D01*
X119929249Y-69814630D01*
X119750004Y-69794435D01*
X119749996Y-69794435D01*
X119570750Y-69814630D01*
X119570745Y-69814631D01*
X119400476Y-69874211D01*
X119247737Y-69970184D01*
X119120184Y-70097737D01*
X119024210Y-70250478D01*
X118964630Y-70420750D01*
X118954837Y-70507668D01*
X118927770Y-70572082D01*
X118919298Y-70581465D01*
X117520195Y-71980568D01*
X117458872Y-72014053D01*
X117446398Y-72016107D01*
X117370750Y-72024630D01*
X117200478Y-72084210D01*
X117047737Y-72180184D01*
X116920184Y-72307737D01*
X116824211Y-72460476D01*
X116764631Y-72630745D01*
X116764630Y-72630750D01*
X116744435Y-72809996D01*
X113275577Y-72809996D01*
X113266670Y-72801089D01*
X113266661Y-72801081D01*
X113084617Y-72661392D01*
X113031543Y-72630750D01*
X112885888Y-72546656D01*
X112885876Y-72546650D01*
X112673887Y-72458842D01*
X112452238Y-72399452D01*
X112414215Y-72394446D01*
X112224741Y-72369500D01*
X112224734Y-72369500D01*
X111995266Y-72369500D01*
X111995258Y-72369500D01*
X111778715Y-72398009D01*
X111767762Y-72399452D01*
X111674076Y-72424554D01*
X111546112Y-72458842D01*
X111334123Y-72546650D01*
X111334109Y-72546657D01*
X111135382Y-72661392D01*
X110953338Y-72801081D01*
X110791081Y-72963338D01*
X110651392Y-73145382D01*
X110536657Y-73344109D01*
X110536650Y-73344123D01*
X110448843Y-73556110D01*
X110448842Y-73556113D01*
X110432213Y-73618176D01*
X110426357Y-73640030D01*
X110389992Y-73699690D01*
X110327145Y-73730219D01*
X110257769Y-73721924D01*
X110203891Y-73677439D01*
X110183006Y-73618179D01*
X110165108Y-73402179D01*
X110104063Y-73161119D01*
X110103362Y-73159522D01*
X110004173Y-72933393D01*
X109868166Y-72725217D01*
X109809408Y-72661389D01*
X109699744Y-72542262D01*
X109503509Y-72389526D01*
X109503507Y-72389525D01*
X109503506Y-72389524D01*
X109284811Y-72271172D01*
X109284802Y-72271169D01*
X109049616Y-72190429D01*
X108804335Y-72149500D01*
X108555665Y-72149500D01*
X108310383Y-72190429D01*
X108075197Y-72271169D01*
X108075188Y-72271172D01*
X107856493Y-72389524D01*
X107660257Y-72542261D01*
X107501230Y-72715010D01*
X107441342Y-72751001D01*
X107371504Y-72748900D01*
X107318770Y-72715010D01*
X107241198Y-72630745D01*
X107159744Y-72542262D01*
X107054668Y-72460478D01*
X106963511Y-72389527D01*
X106893171Y-72351461D01*
X106843581Y-72302241D01*
X106828473Y-72234024D01*
X106852644Y-72168469D01*
X106864501Y-72154732D01*
X116540520Y-62478716D01*
X116619577Y-62341784D01*
X116660501Y-62189057D01*
X116660501Y-62030942D01*
X116660501Y-62023347D01*
X116660500Y-62023329D01*
X116660500Y-59899059D01*
X116660501Y-59899046D01*
X116660501Y-59730945D01*
X116660501Y-59730943D01*
X116619577Y-59578215D01*
X116558380Y-59472219D01*
X116544811Y-59448716D01*
X116540522Y-59441287D01*
X116540521Y-59441286D01*
X116540520Y-59441284D01*
X116428716Y-59329480D01*
X116428715Y-59329479D01*
X116424385Y-59325149D01*
X116424374Y-59325139D01*
X115966819Y-58867584D01*
X115933334Y-58806261D01*
X115930500Y-58779903D01*
X115930500Y-53070678D01*
X115950185Y-53003639D01*
X115966815Y-52983001D01*
X116322506Y-52627309D01*
X116322511Y-52627306D01*
X116332714Y-52617102D01*
X116332716Y-52617102D01*
X116444520Y-52505298D01*
X116479080Y-52445438D01*
X116523576Y-52368368D01*
X116523578Y-52368363D01*
X116549931Y-52270010D01*
X116582025Y-52214421D01*
X116967037Y-51829409D01*
X116984075Y-51892993D01*
X117049901Y-52007007D01*
X117142993Y-52100099D01*
X117257007Y-52165925D01*
X117320590Y-52182962D01*
X116757555Y-52745996D01*
X116820601Y-52790142D01*
X116820605Y-52790144D01*
X117019466Y-52882874D01*
X117019475Y-52882878D01*
X117231407Y-52939664D01*
X117231417Y-52939666D01*
X117449999Y-52958790D01*
X117450001Y-52958790D01*
X117668582Y-52939666D01*
X117668592Y-52939664D01*
X117880524Y-52882878D01*
X117880533Y-52882874D01*
X118079392Y-52790145D01*
X118142443Y-52745995D01*
X117579410Y-52182962D01*
X117642993Y-52165925D01*
X117757007Y-52100099D01*
X117850099Y-52007007D01*
X117915925Y-51892993D01*
X117932962Y-51829409D01*
X118495995Y-52392442D01*
X118540145Y-52329392D01*
X118632874Y-52130533D01*
X118632878Y-52130524D01*
X118689664Y-51918592D01*
X118689666Y-51918582D01*
X118708790Y-51700000D01*
X118708790Y-51699999D01*
X118689666Y-51481417D01*
X118689664Y-51481407D01*
X118632878Y-51269475D01*
X118632874Y-51269466D01*
X118540144Y-51070605D01*
X118540142Y-51070601D01*
X118495996Y-51007555D01*
X117932962Y-51570589D01*
X117915925Y-51507007D01*
X117850099Y-51392993D01*
X117757007Y-51299901D01*
X117642993Y-51234075D01*
X117579409Y-51217037D01*
X118142443Y-50654003D01*
X118079392Y-50609854D01*
X117934697Y-50542382D01*
X117882258Y-50496210D01*
X117863106Y-50429016D01*
X117883322Y-50362135D01*
X117934697Y-50317618D01*
X118079392Y-50250145D01*
X118142442Y-50205995D01*
X117579410Y-49642962D01*
X117642993Y-49625925D01*
X117757007Y-49560099D01*
X117850099Y-49467007D01*
X117915925Y-49352993D01*
X117932962Y-49289409D01*
X118495995Y-49852442D01*
X118540145Y-49789392D01*
X118632874Y-49590533D01*
X118632878Y-49590524D01*
X118689664Y-49378592D01*
X118689666Y-49378582D01*
X118708790Y-49160000D01*
X118708790Y-49159999D01*
X118689666Y-48941417D01*
X118689664Y-48941407D01*
X118632878Y-48729475D01*
X118632874Y-48729466D01*
X118540144Y-48530605D01*
X118540142Y-48530601D01*
X118495996Y-48467555D01*
X117932962Y-49030589D01*
X117915925Y-48967007D01*
X117850099Y-48852993D01*
X117757007Y-48759901D01*
X117642993Y-48694075D01*
X117579409Y-48677037D01*
X118142443Y-48114003D01*
X118079392Y-48069854D01*
X117934697Y-48002382D01*
X117882258Y-47956210D01*
X117863106Y-47889016D01*
X117883322Y-47822135D01*
X117934697Y-47777618D01*
X118079392Y-47710145D01*
X118142443Y-47665995D01*
X117579410Y-47102962D01*
X117642993Y-47085925D01*
X117757007Y-47020099D01*
X117850099Y-46927007D01*
X117915925Y-46812993D01*
X117932962Y-46749409D01*
X118495995Y-47312442D01*
X118540145Y-47249392D01*
X118632874Y-47050533D01*
X118632878Y-47050524D01*
X118689664Y-46838592D01*
X118689666Y-46838582D01*
X118708790Y-46620000D01*
X118708790Y-46619999D01*
X118689666Y-46401417D01*
X118689664Y-46401407D01*
X118632878Y-46189475D01*
X118632874Y-46189466D01*
X118540144Y-45990605D01*
X118540142Y-45990601D01*
X118495996Y-45927555D01*
X117932962Y-46490589D01*
X117915925Y-46427007D01*
X117850099Y-46312993D01*
X117757007Y-46219901D01*
X117642993Y-46154075D01*
X117579409Y-46137037D01*
X118142443Y-45574003D01*
X118079392Y-45529854D01*
X117935288Y-45462657D01*
X117882849Y-45416484D01*
X117863697Y-45349291D01*
X117883913Y-45282410D01*
X117935288Y-45237893D01*
X118079646Y-45170579D01*
X118259457Y-45044674D01*
X118414674Y-44889457D01*
X118540579Y-44709646D01*
X118633347Y-44510703D01*
X118690161Y-44298674D01*
X118709292Y-44080000D01*
X118690161Y-43861326D01*
X118633347Y-43649297D01*
X118540579Y-43450354D01*
X118540577Y-43450351D01*
X118540576Y-43450349D01*
X118414677Y-43270547D01*
X118414672Y-43270541D01*
X118259458Y-43115327D01*
X118259452Y-43115322D01*
X118079650Y-42989423D01*
X118079642Y-42989419D01*
X117935879Y-42922382D01*
X117883439Y-42876210D01*
X117864287Y-42809017D01*
X117884502Y-42742136D01*
X117935879Y-42697618D01*
X118079646Y-42630579D01*
X118259457Y-42504674D01*
X118414674Y-42349457D01*
X118540579Y-42169646D01*
X118633347Y-41970703D01*
X118690161Y-41758674D01*
X118709292Y-41540000D01*
X118690161Y-41321326D01*
X118633347Y-41109297D01*
X118540579Y-40910354D01*
X118540577Y-40910351D01*
X118540576Y-40910349D01*
X118414677Y-40730547D01*
X118414672Y-40730541D01*
X118259458Y-40575327D01*
X118259452Y-40575322D01*
X118079650Y-40449423D01*
X118079642Y-40449419D01*
X118019497Y-40421373D01*
X117935878Y-40382381D01*
X117883439Y-40336210D01*
X117864287Y-40269017D01*
X117884502Y-40202136D01*
X117935879Y-40157618D01*
X118079646Y-40090579D01*
X118259457Y-39964674D01*
X118414674Y-39809457D01*
X118540579Y-39629646D01*
X118633347Y-39430703D01*
X118690161Y-39218674D01*
X118707626Y-39019046D01*
X118709292Y-39000002D01*
X118709292Y-38999997D01*
X118696252Y-38850945D01*
X118690161Y-38781326D01*
X118633347Y-38569297D01*
X118540579Y-38370354D01*
X118540577Y-38370351D01*
X118540576Y-38370349D01*
X118414677Y-38190547D01*
X118414672Y-38190541D01*
X118259458Y-38035327D01*
X118259452Y-38035322D01*
X118079650Y-37909423D01*
X118079642Y-37909419D01*
X117935879Y-37842382D01*
X117883439Y-37796210D01*
X117864287Y-37729017D01*
X117884502Y-37662136D01*
X117935879Y-37617618D01*
X118079646Y-37550579D01*
X118259457Y-37424674D01*
X118414674Y-37269457D01*
X118540579Y-37089646D01*
X118633347Y-36890703D01*
X118690161Y-36678674D01*
X118709292Y-36460000D01*
X118697616Y-36326546D01*
X118711382Y-36258049D01*
X118759997Y-36207866D01*
X118828026Y-36191932D01*
X118893870Y-36215307D01*
X118908825Y-36228060D01*
X119323181Y-36642416D01*
X119356666Y-36703739D01*
X119359500Y-36730097D01*
X119359500Y-64039902D01*
X119339815Y-64106941D01*
X119323181Y-64127583D01*
X115841465Y-67609298D01*
X115780142Y-67642783D01*
X115767668Y-67644837D01*
X115680750Y-67654630D01*
X115510478Y-67714210D01*
X115357737Y-67810184D01*
X115230184Y-67937737D01*
X115134211Y-68090476D01*
X115074631Y-68260745D01*
X115074630Y-68260750D01*
X115054435Y-68439996D01*
X115054435Y-68440003D01*
X115074630Y-68619249D01*
X115074631Y-68619254D01*
X115134211Y-68789523D01*
X115230184Y-68942262D01*
X115357738Y-69069816D01*
X115510478Y-69165789D01*
X115680745Y-69225368D01*
X115680750Y-69225369D01*
X115859996Y-69245565D01*
X115860000Y-69245565D01*
X115860004Y-69245565D01*
X116039249Y-69225369D01*
X116039252Y-69225368D01*
X116039255Y-69225368D01*
X116209522Y-69165789D01*
X116362262Y-69069816D01*
X116489816Y-68942262D01*
X116585789Y-68789522D01*
X116645368Y-68619255D01*
X116655161Y-68532329D01*
X116682226Y-68467918D01*
X116690690Y-68458543D01*
X120440520Y-64708716D01*
X120519577Y-64571784D01*
X120560501Y-64419057D01*
X120560501Y-64260942D01*
X120560501Y-64253347D01*
X120560500Y-64253329D01*
X120560500Y-36519059D01*
X120560501Y-36519046D01*
X120560501Y-36350945D01*
X120560501Y-36350943D01*
X120519577Y-36198215D01*
X120490639Y-36148095D01*
X120440520Y-36061284D01*
X120328716Y-35949480D01*
X120328715Y-35949479D01*
X120324385Y-35945149D01*
X120324374Y-35945139D01*
X118704382Y-34325147D01*
X118670897Y-34263824D01*
X118672289Y-34205371D01*
X118690159Y-34138681D01*
X118690158Y-34138681D01*
X118690161Y-34138674D01*
X118709292Y-33920000D01*
X118690161Y-33701326D01*
X118633347Y-33489297D01*
X118540579Y-33290354D01*
X118540577Y-33290351D01*
X118540576Y-33290349D01*
X118414677Y-33110547D01*
X118414672Y-33110541D01*
X118259458Y-32955327D01*
X118259452Y-32955322D01*
X118079650Y-32829423D01*
X118079642Y-32829419D01*
X117880708Y-32736655D01*
X117880706Y-32736654D01*
X117880703Y-32736653D01*
X117729885Y-32696240D01*
X117668675Y-32679839D01*
X117668668Y-32679838D01*
X117450002Y-32660708D01*
X117449998Y-32660708D01*
X117231331Y-32679838D01*
X117231324Y-32679839D01*
X117108902Y-32712642D01*
X117019297Y-32736653D01*
X117019295Y-32736653D01*
X117019291Y-32736655D01*
X116820357Y-32829419D01*
X116820349Y-32829423D01*
X116640547Y-32955322D01*
X116640541Y-32955327D01*
X116485327Y-33110541D01*
X116485322Y-33110547D01*
X116359423Y-33290349D01*
X116359419Y-33290357D01*
X116266655Y-33489291D01*
X116209839Y-33701324D01*
X116209838Y-33701331D01*
X116190708Y-33919997D01*
X116190708Y-33920002D01*
X116201579Y-34044266D01*
X116209839Y-34138674D01*
X116266653Y-34350703D01*
X116266654Y-34350706D01*
X116266655Y-34350708D01*
X116359419Y-34549642D01*
X116359423Y-34549650D01*
X116485322Y-34729452D01*
X116485327Y-34729458D01*
X116640541Y-34884672D01*
X116640547Y-34884677D01*
X116820349Y-35010576D01*
X116820351Y-35010577D01*
X116820354Y-35010579D01*
X116864555Y-35031190D01*
X116964120Y-35077618D01*
X117016560Y-35123790D01*
X117035712Y-35190983D01*
X117015496Y-35257865D01*
X116964120Y-35302382D01*
X116820357Y-35369419D01*
X116820349Y-35369423D01*
X116640547Y-35495322D01*
X116640541Y-35495327D01*
X116485327Y-35650541D01*
X116485322Y-35650547D01*
X116359423Y-35830349D01*
X116359419Y-35830357D01*
X116266655Y-36029291D01*
X116209839Y-36241324D01*
X116209838Y-36241331D01*
X116190708Y-36459997D01*
X116190708Y-36460000D01*
X116209838Y-36678668D01*
X116209839Y-36678672D01*
X116209840Y-36678679D01*
X116227710Y-36745374D01*
X116226047Y-36815224D01*
X116195616Y-36865147D01*
X114611286Y-38449478D01*
X114499481Y-38561282D01*
X114499479Y-38561285D01*
X114449361Y-38648094D01*
X114449359Y-38648096D01*
X114420425Y-38698209D01*
X114420424Y-38698210D01*
X114420423Y-38698215D01*
X114379499Y-38850943D01*
X114379499Y-38850945D01*
X114379499Y-39019046D01*
X114379500Y-39019059D01*
X114379500Y-50192748D01*
X114379499Y-50192766D01*
X114379499Y-50200361D01*
X114379499Y-50358475D01*
X114401330Y-50439947D01*
X114399667Y-50509797D01*
X114360505Y-50567660D01*
X114333961Y-50584422D01*
X114280359Y-50609417D01*
X114280352Y-50609421D01*
X114100547Y-50735322D01*
X114100541Y-50735327D01*
X113945327Y-50890541D01*
X113945322Y-50890547D01*
X113819423Y-51070349D01*
X113819419Y-51070357D01*
X113752382Y-51214120D01*
X113706210Y-51266560D01*
X113639017Y-51285712D01*
X113572135Y-51265496D01*
X113527618Y-51214120D01*
X113500032Y-51154963D01*
X113460579Y-51070354D01*
X113460577Y-51070351D01*
X113460576Y-51070349D01*
X113334677Y-50890547D01*
X113334672Y-50890541D01*
X113179458Y-50735327D01*
X113179452Y-50735322D01*
X112999650Y-50609423D01*
X112999642Y-50609419D01*
X112800708Y-50516655D01*
X112800706Y-50516654D01*
X112800703Y-50516653D01*
X112649885Y-50476240D01*
X112588675Y-50459839D01*
X112588668Y-50459838D01*
X112370002Y-50440708D01*
X112369998Y-50440708D01*
X112151331Y-50459838D01*
X112151324Y-50459839D01*
X112028902Y-50492642D01*
X111939297Y-50516653D01*
X111939295Y-50516653D01*
X111939291Y-50516655D01*
X111740357Y-50609419D01*
X111740347Y-50609425D01*
X111735620Y-50612735D01*
X111669414Y-50635061D01*
X111601647Y-50618048D01*
X111553835Y-50567099D01*
X111540500Y-50511158D01*
X111540500Y-44894675D01*
X111540501Y-44894654D01*
X111540501Y-44691457D01*
X111540500Y-44691455D01*
X111502052Y-44498165D01*
X111426632Y-44316086D01*
X111426631Y-44316085D01*
X111426628Y-44316079D01*
X111317140Y-44152219D01*
X111317137Y-44152215D01*
X106026284Y-38861364D01*
X105992799Y-38800041D01*
X105990438Y-38784496D01*
X105990161Y-38781326D01*
X105933347Y-38569297D01*
X105840579Y-38370354D01*
X105840577Y-38370351D01*
X105840576Y-38370349D01*
X105714677Y-38190547D01*
X105714672Y-38190541D01*
X105559458Y-38035327D01*
X105559452Y-38035322D01*
X105379650Y-37909423D01*
X105379642Y-37909419D01*
X105235879Y-37842382D01*
X105183439Y-37796210D01*
X105164287Y-37729017D01*
X105184502Y-37662136D01*
X105235879Y-37617618D01*
X105379646Y-37550579D01*
X105559457Y-37424674D01*
X105714674Y-37269457D01*
X105840579Y-37089646D01*
X105933347Y-36890703D01*
X105990161Y-36678674D01*
X106009292Y-36460000D01*
X105990161Y-36241326D01*
X105933347Y-36029297D01*
X105840579Y-35830354D01*
X105840577Y-35830351D01*
X105840576Y-35830349D01*
X105714677Y-35650547D01*
X105714672Y-35650541D01*
X105559458Y-35495327D01*
X105559451Y-35495322D01*
X105422711Y-35399575D01*
X105379086Y-35344998D01*
X105371893Y-35275500D01*
X105403415Y-35213145D01*
X105463645Y-35177731D01*
X105493834Y-35174000D01*
X105551828Y-35174000D01*
X105551844Y-35173999D01*
X105611372Y-35167598D01*
X105611379Y-35167596D01*
X105746086Y-35117354D01*
X105746093Y-35117350D01*
X105861187Y-35031190D01*
X105861190Y-35031187D01*
X105947350Y-34916093D01*
X105947354Y-34916086D01*
X105997596Y-34781379D01*
X105997598Y-34781372D01*
X106003999Y-34721844D01*
X106004000Y-34721827D01*
X106004000Y-34170000D01*
X105183012Y-34170000D01*
X105215925Y-34112993D01*
X105250000Y-33985826D01*
X105250000Y-33854174D01*
X105215925Y-33727007D01*
X105183012Y-33670000D01*
X106004000Y-33670000D01*
X106004000Y-33118172D01*
X106003999Y-33118155D01*
X105997598Y-33058627D01*
X105997596Y-33058620D01*
X105947354Y-32923913D01*
X105947350Y-32923906D01*
X105861190Y-32808812D01*
X105861187Y-32808809D01*
X105746093Y-32722649D01*
X105746086Y-32722645D01*
X105611379Y-32672403D01*
X105611372Y-32672401D01*
X105551844Y-32666000D01*
X105000000Y-32666000D01*
X105000000Y-33486988D01*
X104942993Y-33454075D01*
X104815826Y-33420000D01*
X104684174Y-33420000D01*
X104557007Y-33454075D01*
X104500000Y-33486988D01*
X104500000Y-32666000D01*
X103948155Y-32666000D01*
X103888627Y-32672401D01*
X103888620Y-32672403D01*
X103753913Y-32722645D01*
X103753906Y-32722649D01*
X103638812Y-32808809D01*
X103638809Y-32808812D01*
X103552649Y-32923906D01*
X103552645Y-32923913D01*
X103502403Y-33058620D01*
X103502401Y-33058627D01*
X103496000Y-33118155D01*
X103496000Y-33670000D01*
X104316988Y-33670000D01*
X104284075Y-33727007D01*
X104250000Y-33854174D01*
X104250000Y-33985826D01*
X104284075Y-34112993D01*
X104316988Y-34170000D01*
X103496000Y-34170000D01*
X103496000Y-34721844D01*
X103502401Y-34781372D01*
X103502403Y-34781379D01*
X103552645Y-34916086D01*
X103552649Y-34916093D01*
X103638809Y-35031187D01*
X103638812Y-35031190D01*
X103753906Y-35117350D01*
X103753913Y-35117354D01*
X103888620Y-35167596D01*
X103888627Y-35167598D01*
X103948155Y-35173999D01*
X103948172Y-35174000D01*
X104006166Y-35174000D01*
X104073205Y-35193685D01*
X104118960Y-35246489D01*
X104128904Y-35315647D01*
X104099879Y-35379203D01*
X104077289Y-35399575D01*
X103940548Y-35495322D01*
X103940541Y-35495327D01*
X103785327Y-35650541D01*
X103785322Y-35650547D01*
X103659423Y-35830349D01*
X103659419Y-35830357D01*
X103566655Y-36029291D01*
X103509839Y-36241324D01*
X103509838Y-36241331D01*
X103490708Y-36459997D01*
X103490708Y-36460000D01*
X103509838Y-36678668D01*
X103509839Y-36678672D01*
X103509840Y-36678679D01*
X103527710Y-36745373D01*
X103526047Y-36815223D01*
X103495624Y-36865139D01*
X103483591Y-36877174D01*
X103422270Y-36910664D01*
X103395902Y-36913500D01*
X100718839Y-36913500D01*
X100651800Y-36893815D01*
X100606045Y-36841011D01*
X100596101Y-36771853D01*
X100599064Y-36757406D01*
X100602288Y-36745374D01*
X100620161Y-36678674D01*
X100639292Y-36460000D01*
X100620161Y-36241326D01*
X100563347Y-36029297D01*
X100470579Y-35830354D01*
X100470577Y-35830351D01*
X100470576Y-35830349D01*
X100344677Y-35650547D01*
X100344672Y-35650541D01*
X100189458Y-35495327D01*
X100189452Y-35495322D01*
X100009650Y-35369423D01*
X100009642Y-35369419D01*
X99865879Y-35302382D01*
X99813439Y-35256210D01*
X99794287Y-35189017D01*
X99814502Y-35122136D01*
X99865879Y-35077618D01*
X100009646Y-35010579D01*
X100189457Y-34884674D01*
X100344674Y-34729457D01*
X100470579Y-34549646D01*
X100563347Y-34350703D01*
X100620161Y-34138674D01*
X100639292Y-33920000D01*
X100620161Y-33701326D01*
X100563347Y-33489297D01*
X100470579Y-33290354D01*
X100470577Y-33290351D01*
X100470576Y-33290349D01*
X100344677Y-33110547D01*
X100344672Y-33110541D01*
X100189458Y-32955327D01*
X100189452Y-32955322D01*
X100009650Y-32829423D01*
X100009642Y-32829419D01*
X99810708Y-32736655D01*
X99810706Y-32736654D01*
X99810703Y-32736653D01*
X99659885Y-32696240D01*
X99598675Y-32679839D01*
X99598668Y-32679838D01*
X99380002Y-32660708D01*
X99379998Y-32660708D01*
X99161331Y-32679838D01*
X99161324Y-32679839D01*
X99038902Y-32712642D01*
X98949297Y-32736653D01*
X98949295Y-32736653D01*
X98949291Y-32736655D01*
X98750357Y-32829419D01*
X98750349Y-32829423D01*
X98570547Y-32955322D01*
X98570541Y-32955327D01*
X98415327Y-33110541D01*
X98415322Y-33110547D01*
X98289423Y-33290349D01*
X98289419Y-33290357D01*
X98196655Y-33489291D01*
X98139839Y-33701324D01*
X98139838Y-33701331D01*
X98120708Y-33919997D01*
X98120708Y-33920002D01*
X98131579Y-34044266D01*
X98139839Y-34138674D01*
X98196653Y-34350703D01*
X98196654Y-34350706D01*
X98196655Y-34350708D01*
X98289419Y-34549642D01*
X98289423Y-34549650D01*
X98415322Y-34729452D01*
X98415327Y-34729458D01*
X98570541Y-34884672D01*
X98570547Y-34884677D01*
X98750349Y-35010576D01*
X98750351Y-35010577D01*
X98750354Y-35010579D01*
X98794555Y-35031190D01*
X98894120Y-35077618D01*
X98946560Y-35123790D01*
X98965712Y-35190983D01*
X98945496Y-35257865D01*
X98894120Y-35302382D01*
X98750357Y-35369419D01*
X98750349Y-35369423D01*
X98570547Y-35495322D01*
X98570541Y-35495327D01*
X98415327Y-35650541D01*
X98415322Y-35650547D01*
X98289423Y-35830349D01*
X98289419Y-35830357D01*
X98196655Y-36029291D01*
X98139839Y-36241324D01*
X98139838Y-36241331D01*
X98120708Y-36459997D01*
X98120708Y-36460002D01*
X98136666Y-36642416D01*
X98139839Y-36678674D01*
X98157711Y-36745373D01*
X98160936Y-36757406D01*
X98159273Y-36827256D01*
X98120111Y-36885118D01*
X98055883Y-36912623D01*
X98041161Y-36913500D01*
X88034097Y-36913500D01*
X87967058Y-36893815D01*
X87946416Y-36877181D01*
X87934382Y-36865147D01*
X87900897Y-36803824D01*
X87902289Y-36745371D01*
X87920159Y-36678681D01*
X87920158Y-36678681D01*
X87920161Y-36678674D01*
X87939292Y-36460000D01*
X87920161Y-36241326D01*
X87863347Y-36029297D01*
X87770579Y-35830354D01*
X87770577Y-35830351D01*
X87770576Y-35830349D01*
X87644677Y-35650547D01*
X87644672Y-35650541D01*
X87489458Y-35495327D01*
X87489451Y-35495322D01*
X87352711Y-35399575D01*
X87309086Y-35344998D01*
X87301893Y-35275500D01*
X87333415Y-35213145D01*
X87393645Y-35177731D01*
X87423834Y-35174000D01*
X87481828Y-35174000D01*
X87481844Y-35173999D01*
X87541372Y-35167598D01*
X87541379Y-35167596D01*
X87676086Y-35117354D01*
X87676093Y-35117350D01*
X87791187Y-35031190D01*
X87791190Y-35031187D01*
X87877350Y-34916093D01*
X87877354Y-34916086D01*
X87927596Y-34781379D01*
X87927598Y-34781372D01*
X87933999Y-34721844D01*
X87934000Y-34721827D01*
X87934000Y-34170000D01*
X87113012Y-34170000D01*
X87145925Y-34112993D01*
X87180000Y-33985826D01*
X87180000Y-33854174D01*
X87145925Y-33727007D01*
X87113012Y-33670000D01*
X87934000Y-33670000D01*
X87934000Y-33118172D01*
X87933999Y-33118155D01*
X87927598Y-33058627D01*
X87927596Y-33058620D01*
X87877354Y-32923913D01*
X87877350Y-32923906D01*
X87791190Y-32808812D01*
X87791187Y-32808809D01*
X87676093Y-32722649D01*
X87676086Y-32722645D01*
X87541379Y-32672403D01*
X87541372Y-32672401D01*
X87481844Y-32666000D01*
X86930000Y-32666000D01*
X86930000Y-33486988D01*
X86872993Y-33454075D01*
X86745826Y-33420000D01*
X86614174Y-33420000D01*
X86487007Y-33454075D01*
X86430000Y-33486988D01*
X86430000Y-32666000D01*
X85878155Y-32666000D01*
X85818627Y-32672401D01*
X85818620Y-32672403D01*
X85683913Y-32722645D01*
X85683906Y-32722649D01*
X85568812Y-32808809D01*
X85568809Y-32808812D01*
X85482649Y-32923906D01*
X85482645Y-32923913D01*
X85432403Y-33058620D01*
X85432401Y-33058627D01*
X85426000Y-33118155D01*
X85426000Y-33670000D01*
X86246988Y-33670000D01*
X86214075Y-33727007D01*
X86180000Y-33854174D01*
X86180000Y-33985826D01*
X86214075Y-34112993D01*
X86246988Y-34170000D01*
X85426000Y-34170000D01*
X85426000Y-34721844D01*
X85432401Y-34781372D01*
X85432403Y-34781379D01*
X85482645Y-34916086D01*
X85482649Y-34916093D01*
X85568809Y-35031187D01*
X85568812Y-35031190D01*
X85683906Y-35117350D01*
X85683913Y-35117354D01*
X85818620Y-35167596D01*
X85818627Y-35167598D01*
X85878155Y-35173999D01*
X85878172Y-35174000D01*
X85936166Y-35174000D01*
X86003205Y-35193685D01*
X86048960Y-35246489D01*
X86058904Y-35315647D01*
X86029879Y-35379203D01*
X86007289Y-35399575D01*
X85870548Y-35495322D01*
X85870541Y-35495327D01*
X85715327Y-35650541D01*
X85715322Y-35650547D01*
X85589423Y-35830349D01*
X85589419Y-35830357D01*
X85496655Y-36029291D01*
X85439839Y-36241324D01*
X85439838Y-36241331D01*
X85420708Y-36459997D01*
X85420708Y-36460002D01*
X85436666Y-36642416D01*
X85439839Y-36678674D01*
X85496653Y-36890703D01*
X85496654Y-36890706D01*
X85496655Y-36890708D01*
X85589419Y-37089642D01*
X85589423Y-37089650D01*
X85715322Y-37269452D01*
X85715327Y-37269458D01*
X85870541Y-37424672D01*
X85870547Y-37424677D01*
X86050349Y-37550576D01*
X86050351Y-37550577D01*
X86050354Y-37550579D01*
X86134963Y-37590032D01*
X86194120Y-37617618D01*
X86246560Y-37663790D01*
X86265712Y-37730983D01*
X86245496Y-37797865D01*
X86194120Y-37842382D01*
X86050357Y-37909419D01*
X86050349Y-37909423D01*
X85870547Y-38035322D01*
X85870541Y-38035327D01*
X85715327Y-38190541D01*
X85715322Y-38190547D01*
X85589423Y-38370349D01*
X85589419Y-38370357D01*
X85496655Y-38569291D01*
X85496653Y-38569295D01*
X85496653Y-38569297D01*
X85472642Y-38658902D01*
X85439839Y-38781324D01*
X85439838Y-38781331D01*
X85420708Y-38999997D01*
X85420708Y-39000002D01*
X85439838Y-39218668D01*
X85439839Y-39218675D01*
X85456240Y-39279885D01*
X85496653Y-39430703D01*
X85496654Y-39430706D01*
X85496655Y-39430708D01*
X85589419Y-39629642D01*
X85589423Y-39629650D01*
X85715322Y-39809452D01*
X85715327Y-39809458D01*
X85870541Y-39964672D01*
X85870547Y-39964677D01*
X86050349Y-40090576D01*
X86050351Y-40090577D01*
X86050354Y-40090579D01*
X86110227Y-40118498D01*
X86194120Y-40157618D01*
X86246560Y-40203790D01*
X86265712Y-40270983D01*
X86245496Y-40337865D01*
X86194120Y-40382382D01*
X86050357Y-40449419D01*
X86050349Y-40449423D01*
X85870547Y-40575322D01*
X85870541Y-40575327D01*
X85715327Y-40730541D01*
X85715322Y-40730547D01*
X85589423Y-40910349D01*
X85589419Y-40910357D01*
X85496655Y-41109291D01*
X85439839Y-41321324D01*
X85439838Y-41321331D01*
X85420708Y-41539997D01*
X85420708Y-41540002D01*
X85433465Y-41685826D01*
X85439839Y-41758674D01*
X85496653Y-41970703D01*
X85496654Y-41970706D01*
X85496655Y-41970708D01*
X85589419Y-42169642D01*
X85589423Y-42169650D01*
X85715322Y-42349452D01*
X85715327Y-42349458D01*
X85870541Y-42504672D01*
X85870547Y-42504677D01*
X86050349Y-42630576D01*
X86050351Y-42630577D01*
X86050354Y-42630579D01*
X86109384Y-42658105D01*
X86194120Y-42697618D01*
X86246560Y-42743790D01*
X86265712Y-42810983D01*
X86245496Y-42877865D01*
X86194120Y-42922382D01*
X86050357Y-42989419D01*
X86050349Y-42989423D01*
X85870547Y-43115322D01*
X85870541Y-43115327D01*
X85715327Y-43270541D01*
X85715322Y-43270547D01*
X85589423Y-43450349D01*
X85589419Y-43450357D01*
X85496655Y-43649291D01*
X85439839Y-43861324D01*
X85439838Y-43861331D01*
X85420708Y-44079997D01*
X85420708Y-44080002D01*
X85439838Y-44298668D01*
X85439839Y-44298675D01*
X85444505Y-44316088D01*
X85496653Y-44510703D01*
X85496654Y-44510706D01*
X85496655Y-44510708D01*
X85589419Y-44709642D01*
X85589423Y-44709650D01*
X85715322Y-44889452D01*
X85715327Y-44889458D01*
X85870541Y-45044672D01*
X85870547Y-45044677D01*
X86050349Y-45170576D01*
X86050351Y-45170577D01*
X86050354Y-45170579D01*
X86134963Y-45210032D01*
X86194120Y-45237618D01*
X86246560Y-45283790D01*
X86265712Y-45350983D01*
X86245496Y-45417865D01*
X86194120Y-45462382D01*
X86050357Y-45529419D01*
X86050349Y-45529423D01*
X85870547Y-45655322D01*
X85870541Y-45655327D01*
X85715327Y-45810541D01*
X85715322Y-45810547D01*
X85589423Y-45990349D01*
X85589419Y-45990357D01*
X85496655Y-46189291D01*
X85496653Y-46189295D01*
X85496653Y-46189297D01*
X85488453Y-46219901D01*
X85439839Y-46401323D01*
X85439839Y-46401327D01*
X85439562Y-46404493D01*
X85439050Y-46405800D01*
X85438900Y-46406654D01*
X85438728Y-46406623D01*
X85414106Y-46469561D01*
X85403715Y-46481362D01*
X83422181Y-48462897D01*
X83360858Y-48496382D01*
X83291166Y-48491398D01*
X83235233Y-48449526D01*
X83210816Y-48384062D01*
X83210500Y-48375216D01*
X83210500Y-35829060D01*
X83210501Y-35829047D01*
X83210501Y-35660944D01*
X83207714Y-35650543D01*
X83169577Y-35508216D01*
X83134622Y-35447671D01*
X83090524Y-35371290D01*
X83090518Y-35371282D01*
X82044382Y-34325147D01*
X82010897Y-34263824D01*
X82012289Y-34205371D01*
X82030159Y-34138681D01*
X82030158Y-34138681D01*
X82030161Y-34138674D01*
X82049292Y-33920000D01*
X82030161Y-33701326D01*
X81973347Y-33489297D01*
X81880579Y-33290354D01*
X81880577Y-33290351D01*
X81880576Y-33290349D01*
X81754677Y-33110547D01*
X81754672Y-33110541D01*
X81599458Y-32955327D01*
X81599452Y-32955322D01*
X81419650Y-32829423D01*
X81419642Y-32829419D01*
X81220708Y-32736655D01*
X81220706Y-32736654D01*
X81220703Y-32736653D01*
X81069885Y-32696240D01*
X81008675Y-32679839D01*
X81008668Y-32679838D01*
X80790002Y-32660708D01*
X80789998Y-32660708D01*
X80571331Y-32679838D01*
X80571324Y-32679839D01*
X80448902Y-32712642D01*
X80359297Y-32736653D01*
X80359295Y-32736653D01*
X80359291Y-32736655D01*
X80160357Y-32829419D01*
X80160349Y-32829423D01*
X79980547Y-32955322D01*
X79980541Y-32955327D01*
X79825327Y-33110541D01*
X79825322Y-33110547D01*
X79699423Y-33290349D01*
X79699419Y-33290357D01*
X79606655Y-33489291D01*
X79549839Y-33701324D01*
X79549838Y-33701331D01*
X79530708Y-33919997D01*
X79530708Y-33920002D01*
X79541579Y-34044266D01*
X79549839Y-34138674D01*
X79606653Y-34350703D01*
X79606654Y-34350706D01*
X79606655Y-34350708D01*
X79699419Y-34549642D01*
X79699423Y-34549650D01*
X79825322Y-34729452D01*
X79825327Y-34729458D01*
X79980541Y-34884672D01*
X79980547Y-34884677D01*
X80160349Y-35010576D01*
X80160351Y-35010577D01*
X80160354Y-35010579D01*
X80204555Y-35031190D01*
X80304120Y-35077618D01*
X80356560Y-35123790D01*
X80375712Y-35190983D01*
X80355496Y-35257865D01*
X80304120Y-35302382D01*
X80160357Y-35369419D01*
X80160349Y-35369423D01*
X79980547Y-35495322D01*
X79980541Y-35495327D01*
X79825327Y-35650541D01*
X79825322Y-35650547D01*
X79699423Y-35830349D01*
X79699419Y-35830357D01*
X79606655Y-36029291D01*
X79549839Y-36241324D01*
X79549838Y-36241331D01*
X79530708Y-36459997D01*
X79530708Y-36460002D01*
X79546666Y-36642416D01*
X79549839Y-36678674D01*
X79606653Y-36890703D01*
X79606654Y-36890706D01*
X79606655Y-36890708D01*
X79699419Y-37089642D01*
X79699423Y-37089650D01*
X79825322Y-37269452D01*
X79825327Y-37269458D01*
X79980541Y-37424672D01*
X79980547Y-37424677D01*
X80160349Y-37550576D01*
X80160351Y-37550577D01*
X80160354Y-37550579D01*
X80244963Y-37590032D01*
X80304120Y-37617618D01*
X80356560Y-37663790D01*
X80375712Y-37730983D01*
X80355496Y-37797865D01*
X80304120Y-37842382D01*
X80160357Y-37909419D01*
X80160349Y-37909423D01*
X79980547Y-38035322D01*
X79980541Y-38035327D01*
X79825327Y-38190541D01*
X79825322Y-38190547D01*
X79699423Y-38370349D01*
X79699419Y-38370357D01*
X79606655Y-38569291D01*
X79606653Y-38569295D01*
X79606653Y-38569297D01*
X79582642Y-38658902D01*
X79549839Y-38781324D01*
X79549838Y-38781331D01*
X79530708Y-38999997D01*
X79530708Y-39000002D01*
X79549838Y-39218668D01*
X79549839Y-39218675D01*
X79566240Y-39279885D01*
X79606653Y-39430703D01*
X79606654Y-39430706D01*
X79606655Y-39430708D01*
X79699419Y-39629642D01*
X79699423Y-39629650D01*
X79825322Y-39809452D01*
X79825327Y-39809458D01*
X79980541Y-39964672D01*
X79980547Y-39964677D01*
X80160349Y-40090576D01*
X80160351Y-40090577D01*
X80160354Y-40090579D01*
X80220227Y-40118498D01*
X80304120Y-40157618D01*
X80356560Y-40203790D01*
X80375712Y-40270983D01*
X80355496Y-40337865D01*
X80304120Y-40382382D01*
X80160357Y-40449419D01*
X80160349Y-40449423D01*
X79980547Y-40575322D01*
X79980541Y-40575327D01*
X79825327Y-40730541D01*
X79825322Y-40730547D01*
X79699423Y-40910349D01*
X79699419Y-40910357D01*
X79606655Y-41109291D01*
X79549839Y-41321324D01*
X79549838Y-41321331D01*
X79530708Y-41539997D01*
X79530708Y-41540002D01*
X79543465Y-41685826D01*
X79549839Y-41758674D01*
X79606653Y-41970703D01*
X79606654Y-41970706D01*
X79606655Y-41970708D01*
X79699419Y-42169642D01*
X79699423Y-42169650D01*
X79825322Y-42349452D01*
X79825327Y-42349458D01*
X79980541Y-42504672D01*
X79980547Y-42504677D01*
X80160349Y-42630576D01*
X80160351Y-42630577D01*
X80160354Y-42630579D01*
X80219384Y-42658105D01*
X80304120Y-42697618D01*
X80356560Y-42743790D01*
X80375712Y-42810983D01*
X80355496Y-42877865D01*
X80304120Y-42922382D01*
X80160357Y-42989419D01*
X80160349Y-42989423D01*
X79980547Y-43115322D01*
X79980541Y-43115327D01*
X79825327Y-43270541D01*
X79825322Y-43270547D01*
X79699423Y-43450349D01*
X79699419Y-43450357D01*
X79606655Y-43649291D01*
X79549839Y-43861324D01*
X79549838Y-43861331D01*
X79530708Y-44079997D01*
X79530708Y-44080002D01*
X79549838Y-44298668D01*
X79549839Y-44298675D01*
X79554505Y-44316088D01*
X79606653Y-44510703D01*
X79606654Y-44510706D01*
X79606655Y-44510708D01*
X79699419Y-44709642D01*
X79699423Y-44709650D01*
X79825322Y-44889452D01*
X79825327Y-44889458D01*
X79980541Y-45044672D01*
X79980547Y-45044677D01*
X80160349Y-45170576D01*
X80160351Y-45170577D01*
X80160354Y-45170579D01*
X80263513Y-45218682D01*
X80304710Y-45237893D01*
X80357150Y-45284065D01*
X80376302Y-45351258D01*
X80356086Y-45418140D01*
X80304712Y-45462657D01*
X80160603Y-45529857D01*
X80097556Y-45574003D01*
X80097555Y-45574003D01*
X80660590Y-46137037D01*
X80597007Y-46154075D01*
X80482993Y-46219901D01*
X80389901Y-46312993D01*
X80324075Y-46427007D01*
X80307037Y-46490589D01*
X79744003Y-45927555D01*
X79744003Y-45927556D01*
X79699856Y-45990604D01*
X79699855Y-45990606D01*
X79607124Y-46189466D01*
X79607121Y-46189475D01*
X79550335Y-46401407D01*
X79550333Y-46401417D01*
X79531210Y-46619999D01*
X79531210Y-46620000D01*
X79550333Y-46838582D01*
X79550335Y-46838592D01*
X79607121Y-47050524D01*
X79607125Y-47050533D01*
X79699854Y-47249392D01*
X79744003Y-47312443D01*
X80307037Y-46749409D01*
X80324075Y-46812993D01*
X80389901Y-46927007D01*
X80482993Y-47020099D01*
X80597007Y-47085925D01*
X80660588Y-47102962D01*
X80097555Y-47665996D01*
X80160601Y-47710142D01*
X80160605Y-47710144D01*
X80304711Y-47777342D01*
X80357150Y-47823514D01*
X80376302Y-47890708D01*
X80356086Y-47957589D01*
X80304711Y-48002106D01*
X80160353Y-48069421D01*
X80160349Y-48069423D01*
X79980547Y-48195322D01*
X79980541Y-48195327D01*
X79825327Y-48350541D01*
X79825322Y-48350547D01*
X79699423Y-48530349D01*
X79699419Y-48530357D01*
X79606655Y-48729291D01*
X79606653Y-48729295D01*
X79606653Y-48729297D01*
X79590896Y-48788101D01*
X79549839Y-48941324D01*
X79549838Y-48941331D01*
X79530708Y-49159997D01*
X79530708Y-49160002D01*
X79549831Y-49378592D01*
X79549839Y-49378674D01*
X79606653Y-49590703D01*
X79606654Y-49590706D01*
X79606655Y-49590708D01*
X79699419Y-49789642D01*
X79699423Y-49789650D01*
X79825322Y-49969452D01*
X79825327Y-49969458D01*
X79980541Y-50124672D01*
X79980547Y-50124677D01*
X80160349Y-50250576D01*
X80160351Y-50250577D01*
X80160354Y-50250579D01*
X80263513Y-50298682D01*
X80304710Y-50317893D01*
X80357150Y-50364065D01*
X80376302Y-50431258D01*
X80356086Y-50498140D01*
X80304712Y-50542657D01*
X80160603Y-50609857D01*
X80097556Y-50654003D01*
X80097555Y-50654003D01*
X80660590Y-51217037D01*
X80597007Y-51234075D01*
X80482993Y-51299901D01*
X80389901Y-51392993D01*
X80324075Y-51507007D01*
X80307037Y-51570589D01*
X79744003Y-51007555D01*
X79744003Y-51007556D01*
X79699857Y-51070603D01*
X79632657Y-51214712D01*
X79586484Y-51267151D01*
X79519290Y-51286302D01*
X79452409Y-51266086D01*
X79407893Y-51214710D01*
X79388682Y-51173513D01*
X79340579Y-51070354D01*
X79340577Y-51070351D01*
X79340576Y-51070349D01*
X79214677Y-50890547D01*
X79214672Y-50890541D01*
X79059458Y-50735327D01*
X79059452Y-50735322D01*
X78879650Y-50609423D01*
X78879642Y-50609419D01*
X78680708Y-50516655D01*
X78680706Y-50516654D01*
X78680703Y-50516653D01*
X78529885Y-50476240D01*
X78468675Y-50459839D01*
X78468668Y-50459838D01*
X78250002Y-50440708D01*
X78249998Y-50440708D01*
X78031331Y-50459838D01*
X78031324Y-50459839D01*
X77908902Y-50492642D01*
X77819297Y-50516653D01*
X77819295Y-50516653D01*
X77819291Y-50516655D01*
X77620357Y-50609419D01*
X77620349Y-50609423D01*
X77440547Y-50735322D01*
X77440541Y-50735327D01*
X77285327Y-50890541D01*
X77285322Y-50890547D01*
X77159423Y-51070349D01*
X77159419Y-51070357D01*
X77092382Y-51214120D01*
X77046210Y-51266560D01*
X76979017Y-51285712D01*
X76912135Y-51265496D01*
X76867618Y-51214120D01*
X76840032Y-51154963D01*
X76800579Y-51070354D01*
X76800577Y-51070351D01*
X76800576Y-51070349D01*
X76674677Y-50890547D01*
X76674672Y-50890541D01*
X76519458Y-50735327D01*
X76519452Y-50735322D01*
X76339650Y-50609423D01*
X76339642Y-50609419D01*
X76140708Y-50516655D01*
X76140706Y-50516654D01*
X76140703Y-50516653D01*
X75989885Y-50476240D01*
X75928675Y-50459839D01*
X75928668Y-50459838D01*
X75710002Y-50440708D01*
X75709998Y-50440708D01*
X75491331Y-50459838D01*
X75491324Y-50459839D01*
X75368902Y-50492642D01*
X75279297Y-50516653D01*
X75279295Y-50516653D01*
X75279291Y-50516655D01*
X75080357Y-50609419D01*
X75080349Y-50609423D01*
X74896108Y-50738431D01*
X74894695Y-50736413D01*
X74840203Y-50760265D01*
X74771210Y-50749228D01*
X74719137Y-50702644D01*
X74700500Y-50637263D01*
X74700500Y-44511456D01*
X74662052Y-44318170D01*
X74662051Y-44318169D01*
X74662051Y-44318165D01*
X74653975Y-44298668D01*
X74586635Y-44136092D01*
X74586628Y-44136079D01*
X74477139Y-43972218D01*
X74477136Y-43972214D01*
X74334686Y-43829764D01*
X74334655Y-43829735D01*
X69366284Y-38861364D01*
X69332799Y-38800041D01*
X69330438Y-38784496D01*
X69330161Y-38781326D01*
X69273347Y-38569297D01*
X69180579Y-38370354D01*
X69180577Y-38370351D01*
X69180576Y-38370349D01*
X69054677Y-38190547D01*
X69054672Y-38190541D01*
X68899458Y-38035327D01*
X68899452Y-38035322D01*
X68719650Y-37909423D01*
X68719642Y-37909419D01*
X68575879Y-37842382D01*
X68523439Y-37796210D01*
X68504287Y-37729017D01*
X68524502Y-37662136D01*
X68575879Y-37617618D01*
X68719646Y-37550579D01*
X68899457Y-37424674D01*
X69054674Y-37269457D01*
X69180579Y-37089646D01*
X69273347Y-36890703D01*
X69330161Y-36678674D01*
X69349292Y-36460000D01*
X69330161Y-36241326D01*
X69273347Y-36029297D01*
X69180579Y-35830354D01*
X69180577Y-35830351D01*
X69180576Y-35830349D01*
X69054677Y-35650547D01*
X69054672Y-35650541D01*
X68899458Y-35495327D01*
X68899451Y-35495322D01*
X68762711Y-35399575D01*
X68719086Y-35344998D01*
X68711893Y-35275500D01*
X68743415Y-35213145D01*
X68803645Y-35177731D01*
X68833834Y-35174000D01*
X68891828Y-35174000D01*
X68891844Y-35173999D01*
X68951372Y-35167598D01*
X68951379Y-35167596D01*
X69086086Y-35117354D01*
X69086093Y-35117350D01*
X69201187Y-35031190D01*
X69201190Y-35031187D01*
X69287350Y-34916093D01*
X69287354Y-34916086D01*
X69337596Y-34781379D01*
X69337598Y-34781372D01*
X69343999Y-34721844D01*
X69344000Y-34721827D01*
X69344000Y-34170000D01*
X68523012Y-34170000D01*
X68555925Y-34112993D01*
X68590000Y-33985826D01*
X68590000Y-33854174D01*
X68555925Y-33727007D01*
X68523012Y-33670000D01*
X69344000Y-33670000D01*
X69344000Y-33118172D01*
X69343999Y-33118155D01*
X69337598Y-33058627D01*
X69337596Y-33058620D01*
X69287354Y-32923913D01*
X69287350Y-32923906D01*
X69201190Y-32808812D01*
X69201187Y-32808809D01*
X69086093Y-32722649D01*
X69086086Y-32722645D01*
X68951379Y-32672403D01*
X68951372Y-32672401D01*
X68891844Y-32666000D01*
X68340000Y-32666000D01*
X68340000Y-33486988D01*
X68282993Y-33454075D01*
X68155826Y-33420000D01*
X68024174Y-33420000D01*
X67897007Y-33454075D01*
X67840000Y-33486988D01*
X67840000Y-32666000D01*
X67288155Y-32666000D01*
X67228627Y-32672401D01*
X67228620Y-32672403D01*
X67093913Y-32722645D01*
X67093906Y-32722649D01*
X66978812Y-32808809D01*
X66978809Y-32808812D01*
X66892649Y-32923906D01*
X66892645Y-32923913D01*
X66842403Y-33058620D01*
X66842401Y-33058627D01*
X66836000Y-33118155D01*
X66836000Y-33670000D01*
X67656988Y-33670000D01*
X67624075Y-33727007D01*
X67590000Y-33854174D01*
X67590000Y-33985826D01*
X67624075Y-34112993D01*
X67656988Y-34170000D01*
X66836000Y-34170000D01*
X66836000Y-34721844D01*
X66842401Y-34781372D01*
X66842403Y-34781379D01*
X66892645Y-34916086D01*
X66892649Y-34916093D01*
X66978809Y-35031187D01*
X66978812Y-35031190D01*
X67093906Y-35117350D01*
X67093913Y-35117354D01*
X67228620Y-35167596D01*
X67228627Y-35167598D01*
X67288155Y-35173999D01*
X67288172Y-35174000D01*
X67346166Y-35174000D01*
X67413205Y-35193685D01*
X67458960Y-35246489D01*
X67468904Y-35315647D01*
X67439879Y-35379203D01*
X67417289Y-35399575D01*
X67280548Y-35495322D01*
X67280541Y-35495327D01*
X67125327Y-35650541D01*
X67125322Y-35650547D01*
X66999423Y-35830349D01*
X66999419Y-35830357D01*
X66906655Y-36029291D01*
X66849839Y-36241324D01*
X66849838Y-36241331D01*
X66830708Y-36459997D01*
X66830708Y-36460002D01*
X66846666Y-36642416D01*
X66849839Y-36678674D01*
X66906653Y-36890703D01*
X66906654Y-36890706D01*
X66906655Y-36890708D01*
X66999419Y-37089642D01*
X66999423Y-37089650D01*
X67125322Y-37269452D01*
X67125327Y-37269458D01*
X67280541Y-37424672D01*
X67280547Y-37424677D01*
X67460349Y-37550576D01*
X67460351Y-37550577D01*
X67460354Y-37550579D01*
X67544963Y-37590032D01*
X67604120Y-37617618D01*
X67656560Y-37663790D01*
X67675712Y-37730983D01*
X67655496Y-37797865D01*
X67604120Y-37842382D01*
X67460357Y-37909419D01*
X67460349Y-37909423D01*
X67280547Y-38035322D01*
X67280541Y-38035327D01*
X67125327Y-38190541D01*
X67125322Y-38190547D01*
X66999423Y-38370349D01*
X66999419Y-38370357D01*
X66906655Y-38569291D01*
X66906653Y-38569295D01*
X66906653Y-38569297D01*
X66882642Y-38658902D01*
X66849839Y-38781324D01*
X66849838Y-38781331D01*
X66830708Y-38999997D01*
X66830708Y-39000002D01*
X66849838Y-39218668D01*
X66849839Y-39218675D01*
X66866240Y-39279885D01*
X66906653Y-39430703D01*
X66906654Y-39430706D01*
X66906655Y-39430708D01*
X66999419Y-39629642D01*
X66999423Y-39629650D01*
X67125322Y-39809452D01*
X67125327Y-39809458D01*
X67280541Y-39964672D01*
X67280547Y-39964677D01*
X67460349Y-40090576D01*
X67460351Y-40090577D01*
X67460354Y-40090579D01*
X67520227Y-40118498D01*
X67604120Y-40157618D01*
X67656560Y-40203790D01*
X67675712Y-40270983D01*
X67655496Y-40337865D01*
X67604120Y-40382382D01*
X67460357Y-40449419D01*
X67460349Y-40449423D01*
X67280547Y-40575322D01*
X67280541Y-40575327D01*
X67125327Y-40730541D01*
X67125322Y-40730547D01*
X66999423Y-40910349D01*
X66999419Y-40910357D01*
X66906655Y-41109291D01*
X66849839Y-41321324D01*
X66849838Y-41321331D01*
X66830708Y-41539997D01*
X66830708Y-41540002D01*
X66843465Y-41685826D01*
X66849839Y-41758674D01*
X66906653Y-41970703D01*
X66906654Y-41970706D01*
X66906655Y-41970708D01*
X66999419Y-42169642D01*
X66999423Y-42169650D01*
X67125322Y-42349452D01*
X67125327Y-42349458D01*
X67280541Y-42504672D01*
X67280547Y-42504677D01*
X67460349Y-42630576D01*
X67460351Y-42630577D01*
X67460354Y-42630579D01*
X67519384Y-42658105D01*
X67604120Y-42697618D01*
X67656560Y-42743790D01*
X67675712Y-42810983D01*
X67655496Y-42877865D01*
X67604120Y-42922382D01*
X67460357Y-42989419D01*
X67460349Y-42989423D01*
X67280547Y-43115322D01*
X67280541Y-43115327D01*
X67125327Y-43270541D01*
X67125322Y-43270547D01*
X66999423Y-43450349D01*
X66999419Y-43450357D01*
X66906655Y-43649291D01*
X66849839Y-43861324D01*
X66849838Y-43861331D01*
X66830708Y-44079997D01*
X66830708Y-44080002D01*
X66849838Y-44298668D01*
X66849839Y-44298675D01*
X66854505Y-44316088D01*
X66906653Y-44510703D01*
X66906654Y-44510706D01*
X66906655Y-44510708D01*
X66999419Y-44709642D01*
X66999423Y-44709650D01*
X67125322Y-44889452D01*
X67125327Y-44889458D01*
X67280541Y-45044672D01*
X67280547Y-45044677D01*
X67460349Y-45170576D01*
X67460351Y-45170577D01*
X67460354Y-45170579D01*
X67544963Y-45210032D01*
X67604120Y-45237618D01*
X67656560Y-45283790D01*
X67675712Y-45350983D01*
X67655496Y-45417865D01*
X67604120Y-45462382D01*
X67460357Y-45529419D01*
X67460349Y-45529423D01*
X67363733Y-45597075D01*
X67297527Y-45619402D01*
X67292610Y-45619500D01*
X65891457Y-45619500D01*
X65836159Y-45630500D01*
X65836158Y-45630500D01*
X65698171Y-45657947D01*
X65698163Y-45657949D01*
X65653060Y-45676632D01*
X65653059Y-45676632D01*
X65516092Y-45733364D01*
X65516079Y-45733371D01*
X65352218Y-45842860D01*
X65352214Y-45842863D01*
X63945687Y-47249392D01*
X63562220Y-47632859D01*
X63562218Y-47632861D01*
X63492538Y-47702540D01*
X63422859Y-47772219D01*
X63313371Y-47936079D01*
X63313366Y-47936089D01*
X63296564Y-47976653D01*
X63260038Y-48064834D01*
X63257958Y-48069856D01*
X63237950Y-48118159D01*
X63237948Y-48118166D01*
X63229726Y-48159501D01*
X63199500Y-48311454D01*
X63199500Y-48311459D01*
X63199500Y-56638541D01*
X63199500Y-56638543D01*
X63199499Y-56638543D01*
X62110500Y-56638543D01*
X62110500Y-39079999D01*
X62884341Y-39079999D01*
X62884341Y-39080000D01*
X62904936Y-39315403D01*
X62904938Y-39315413D01*
X62966094Y-39543655D01*
X62966096Y-39543659D01*
X62966097Y-39543663D01*
X63006190Y-39629642D01*
X63065965Y-39757830D01*
X63065967Y-39757834D01*
X63102115Y-39809458D01*
X63201505Y-39951401D01*
X63368599Y-40118495D01*
X63548368Y-40244371D01*
X63554594Y-40248730D01*
X63598219Y-40303307D01*
X63605413Y-40372805D01*
X63573890Y-40435160D01*
X63554595Y-40451880D01*
X63368922Y-40581890D01*
X63368920Y-40581891D01*
X63201891Y-40748920D01*
X63201886Y-40748926D01*
X63066400Y-40942420D01*
X63066399Y-40942422D01*
X62966570Y-41156507D01*
X62966567Y-41156513D01*
X62909364Y-41369999D01*
X62909364Y-41370000D01*
X63806988Y-41370000D01*
X63774075Y-41427007D01*
X63740000Y-41554174D01*
X63740000Y-41685826D01*
X63774075Y-41812993D01*
X63806988Y-41870000D01*
X62909364Y-41870000D01*
X62966567Y-42083486D01*
X62966570Y-42083492D01*
X63066399Y-42297578D01*
X63201894Y-42491082D01*
X63368917Y-42658105D01*
X63562421Y-42793600D01*
X63776507Y-42893429D01*
X63776516Y-42893433D01*
X63990000Y-42950634D01*
X63990000Y-42053012D01*
X64047007Y-42085925D01*
X64174174Y-42120000D01*
X64305826Y-42120000D01*
X64432993Y-42085925D01*
X64490000Y-42053012D01*
X64490000Y-42950633D01*
X64703483Y-42893433D01*
X64703492Y-42893429D01*
X64917578Y-42793600D01*
X65111082Y-42658105D01*
X65278105Y-42491082D01*
X65413600Y-42297578D01*
X65513429Y-42083492D01*
X65513432Y-42083486D01*
X65570636Y-41870000D01*
X64673012Y-41870000D01*
X64705925Y-41812993D01*
X64740000Y-41685826D01*
X64740000Y-41554174D01*
X64705925Y-41427007D01*
X64673012Y-41370000D01*
X65570636Y-41370000D01*
X65570635Y-41369999D01*
X65513432Y-41156513D01*
X65513429Y-41156507D01*
X65413600Y-40942422D01*
X65413599Y-40942420D01*
X65278113Y-40748926D01*
X65278108Y-40748920D01*
X65111078Y-40581890D01*
X64925405Y-40451879D01*
X64881780Y-40397302D01*
X64874588Y-40327804D01*
X64906110Y-40265449D01*
X64925406Y-40248730D01*
X65111401Y-40118495D01*
X65278495Y-39951401D01*
X65414035Y-39757830D01*
X65513903Y-39543663D01*
X65575063Y-39315408D01*
X65595659Y-39080000D01*
X65575063Y-38844592D01*
X65513903Y-38616337D01*
X65414035Y-38402171D01*
X65349232Y-38309623D01*
X65278496Y-38208600D01*
X65245546Y-38175650D01*
X65156567Y-38086671D01*
X65123084Y-38025351D01*
X65128068Y-37955659D01*
X65169939Y-37899725D01*
X65200915Y-37882810D01*
X65332331Y-37833796D01*
X65447546Y-37747546D01*
X65533796Y-37632331D01*
X65584091Y-37497483D01*
X65590500Y-37437873D01*
X65590499Y-35642128D01*
X65584091Y-35582517D01*
X65551571Y-35495327D01*
X65533797Y-35447671D01*
X65533793Y-35447664D01*
X65447547Y-35332455D01*
X65447544Y-35332452D01*
X65332335Y-35246206D01*
X65332328Y-35246202D01*
X65197482Y-35195908D01*
X65197483Y-35195908D01*
X65137883Y-35189501D01*
X65137881Y-35189500D01*
X65137873Y-35189500D01*
X65137864Y-35189500D01*
X63342129Y-35189500D01*
X63342123Y-35189501D01*
X63282516Y-35195908D01*
X63147671Y-35246202D01*
X63147664Y-35246206D01*
X63032455Y-35332452D01*
X63032452Y-35332455D01*
X62946206Y-35447664D01*
X62946202Y-35447671D01*
X62895908Y-35582517D01*
X62889501Y-35642116D01*
X62889501Y-35642123D01*
X62889500Y-35642135D01*
X62889500Y-37437870D01*
X62889501Y-37437876D01*
X62895908Y-37497483D01*
X62946202Y-37632328D01*
X62946206Y-37632335D01*
X63032452Y-37747544D01*
X63032455Y-37747547D01*
X63147664Y-37833793D01*
X63147671Y-37833797D01*
X63279081Y-37882810D01*
X63335015Y-37924681D01*
X63359432Y-37990145D01*
X63344580Y-38058418D01*
X63323430Y-38086673D01*
X63201503Y-38208600D01*
X63065965Y-38402169D01*
X63065964Y-38402171D01*
X62966098Y-38616335D01*
X62966094Y-38616344D01*
X62904938Y-38844586D01*
X62904936Y-38844596D01*
X62884341Y-39079999D01*
X62110500Y-39079999D01*
X62110500Y-32528711D01*
X72589500Y-32528711D01*
X72589500Y-32771288D01*
X72621161Y-33011785D01*
X72683947Y-33246104D01*
X72770092Y-33454075D01*
X72776776Y-33470212D01*
X72898064Y-33680289D01*
X72898066Y-33680292D01*
X72898067Y-33680293D01*
X73045733Y-33872736D01*
X73045739Y-33872743D01*
X73217256Y-34044260D01*
X73217262Y-34044265D01*
X73409711Y-34191936D01*
X73619788Y-34313224D01*
X73843900Y-34406054D01*
X74078211Y-34468838D01*
X74258586Y-34492584D01*
X74318711Y-34500500D01*
X74318712Y-34500500D01*
X74561289Y-34500500D01*
X74609388Y-34494167D01*
X74801789Y-34468838D01*
X75036100Y-34406054D01*
X75260212Y-34313224D01*
X75470289Y-34191936D01*
X75662738Y-34044265D01*
X75834265Y-33872738D01*
X75981936Y-33680289D01*
X76103224Y-33470212D01*
X76196054Y-33246100D01*
X76258838Y-33011789D01*
X76290500Y-32771288D01*
X76290500Y-32528712D01*
X76290500Y-32528711D01*
X109249500Y-32528711D01*
X109249500Y-32771288D01*
X109281161Y-33011785D01*
X109343947Y-33246104D01*
X109430092Y-33454075D01*
X109436776Y-33470212D01*
X109558064Y-33680289D01*
X109558066Y-33680292D01*
X109558067Y-33680293D01*
X109705733Y-33872736D01*
X109705739Y-33872743D01*
X109877256Y-34044260D01*
X109877262Y-34044265D01*
X110069711Y-34191936D01*
X110279788Y-34313224D01*
X110503900Y-34406054D01*
X110738211Y-34468838D01*
X110918586Y-34492584D01*
X110978711Y-34500500D01*
X110978712Y-34500500D01*
X111221289Y-34500500D01*
X111269388Y-34494167D01*
X111461789Y-34468838D01*
X111696100Y-34406054D01*
X111920212Y-34313224D01*
X112130289Y-34191936D01*
X112322738Y-34044265D01*
X112494265Y-33872738D01*
X112641936Y-33680289D01*
X112763224Y-33470212D01*
X112856054Y-33246100D01*
X112918838Y-33011789D01*
X112950500Y-32771288D01*
X112950500Y-32528712D01*
X112918838Y-32288211D01*
X112856054Y-32053900D01*
X112763224Y-31829788D01*
X112641936Y-31619711D01*
X112494265Y-31427262D01*
X112494260Y-31427256D01*
X112322743Y-31255739D01*
X112322736Y-31255733D01*
X112130293Y-31108067D01*
X112130292Y-31108066D01*
X112130289Y-31108064D01*
X111920212Y-30986776D01*
X111920205Y-30986773D01*
X111696104Y-30893947D01*
X111461785Y-30831161D01*
X111221289Y-30799500D01*
X111221288Y-30799500D01*
X110978712Y-30799500D01*
X110978711Y-30799500D01*
X110738214Y-30831161D01*
X110503895Y-30893947D01*
X110279794Y-30986773D01*
X110279785Y-30986777D01*
X110069706Y-31108067D01*
X109877263Y-31255733D01*
X109877256Y-31255739D01*
X109705739Y-31427256D01*
X109705733Y-31427263D01*
X109558067Y-31619706D01*
X109436777Y-31829785D01*
X109436773Y-31829794D01*
X109343947Y-32053895D01*
X109281161Y-32288214D01*
X109249500Y-32528711D01*
X76290500Y-32528711D01*
X76258838Y-32288211D01*
X76196054Y-32053900D01*
X76103224Y-31829788D01*
X75981936Y-31619711D01*
X75834265Y-31427262D01*
X75834260Y-31427256D01*
X75662743Y-31255739D01*
X75662736Y-31255733D01*
X75470293Y-31108067D01*
X75470292Y-31108066D01*
X75470289Y-31108064D01*
X75260212Y-30986776D01*
X75260205Y-30986773D01*
X75036104Y-30893947D01*
X74801785Y-30831161D01*
X74561289Y-30799500D01*
X74561288Y-30799500D01*
X74318712Y-30799500D01*
X74318711Y-30799500D01*
X74078214Y-30831161D01*
X73843895Y-30893947D01*
X73619794Y-30986773D01*
X73619785Y-30986777D01*
X73409706Y-31108067D01*
X73217263Y-31255733D01*
X73217256Y-31255739D01*
X73045739Y-31427256D01*
X73045733Y-31427263D01*
X72898067Y-31619706D01*
X72776777Y-31829785D01*
X72776773Y-31829794D01*
X72683947Y-32053895D01*
X72621161Y-32288214D01*
X72589500Y-32528711D01*
X62110500Y-32528711D01*
X62110500Y-28424500D01*
X62130185Y-28357461D01*
X62182989Y-28311706D01*
X62234500Y-28300500D01*
X121685500Y-28300500D01*
X121752539Y-28320185D01*
G37*
G04 #@! TD.AperFunction*
G04 #@! TD*
M02*
