G04 #@! TF.GenerationSoftware,KiCad,Pcbnew,8.0.5-8.0.5-0~ubuntu22.04.1*
G04 #@! TF.CreationDate,2024-10-01T13:57:59+02:00*
G04 #@! TF.ProjectId,wire-cutter,77697265-2d63-4757-9474-65722e6b6963,rev?*
G04 #@! TF.SameCoordinates,Original*
G04 #@! TF.FileFunction,Legend,Top*
G04 #@! TF.FilePolarity,Positive*
%FSLAX46Y46*%
G04 Gerber Fmt 4.6, Leading zero omitted, Abs format (unit mm)*
G04 Created by KiCad (PCBNEW 8.0.5-8.0.5-0~ubuntu22.04.1) date 2024-10-01 13:57:59*
%MOMM*%
%LPD*%
G01*
G04 APERTURE LIST*
%ADD10C,0.000000*%
%ADD11C,0.100000*%
%ADD12C,0.150000*%
%ADD13C,0.120000*%
%ADD14C,0.127000*%
%ADD15C,0.200000*%
G04 APERTURE END LIST*
D10*
G36*
X91914624Y-101497253D02*
G01*
X91917646Y-101497477D01*
X91920653Y-101497847D01*
X91923640Y-101498358D01*
X91926604Y-101499007D01*
X91929539Y-101499789D01*
X91932441Y-101500703D01*
X91935305Y-101501742D01*
X91938128Y-101502905D01*
X91940905Y-101504187D01*
X91943630Y-101505584D01*
X91946301Y-101507093D01*
X91948911Y-101508710D01*
X91951458Y-101510432D01*
X91953935Y-101512254D01*
X91956340Y-101514173D01*
X91958667Y-101516186D01*
X91960911Y-101518288D01*
X91963069Y-101520475D01*
X91965136Y-101522745D01*
X91967108Y-101525094D01*
X91968979Y-101527517D01*
X91970746Y-101530011D01*
X91972403Y-101532572D01*
X91973948Y-101535197D01*
X91975374Y-101537882D01*
X91976678Y-101540623D01*
X91977855Y-101543416D01*
X91978900Y-101546259D01*
X91979810Y-101549146D01*
X91980580Y-101552075D01*
X91981204Y-101555041D01*
X92232427Y-102904655D01*
X92233061Y-102907645D01*
X92233832Y-102910646D01*
X92235763Y-102916657D01*
X92238187Y-102922650D01*
X92241070Y-102928585D01*
X92244377Y-102934422D01*
X92248074Y-102940123D01*
X92252129Y-102945649D01*
X92256507Y-102950960D01*
X92261174Y-102956017D01*
X92266096Y-102960780D01*
X92271241Y-102965212D01*
X92276573Y-102969272D01*
X92282059Y-102972921D01*
X92287665Y-102976121D01*
X92290502Y-102977539D01*
X92293357Y-102978831D01*
X92296225Y-102979991D01*
X92299102Y-102981013D01*
X93203659Y-103351297D01*
X93209278Y-103353771D01*
X93215238Y-103355838D01*
X93221485Y-103357500D01*
X93227968Y-103358762D01*
X93234634Y-103359628D01*
X93241429Y-103360100D01*
X93248303Y-103360183D01*
X93255202Y-103359880D01*
X93262075Y-103359195D01*
X93268867Y-103358131D01*
X93275528Y-103356691D01*
X93282005Y-103354881D01*
X93288245Y-103352702D01*
X93294196Y-103350159D01*
X93299805Y-103347256D01*
X93305020Y-103343995D01*
X94432542Y-102570248D01*
X94435082Y-102568593D01*
X94437697Y-102567068D01*
X94440381Y-102565670D01*
X94443129Y-102564400D01*
X94445935Y-102563258D01*
X94448794Y-102562242D01*
X94451699Y-102561353D01*
X94454644Y-102560589D01*
X94457625Y-102559950D01*
X94460635Y-102559435D01*
X94466719Y-102558778D01*
X94472852Y-102558614D01*
X94478986Y-102558937D01*
X94485078Y-102559743D01*
X94491079Y-102561029D01*
X94496945Y-102562791D01*
X94499813Y-102563849D01*
X94502629Y-102565024D01*
X94505389Y-102566315D01*
X94508086Y-102567723D01*
X94510715Y-102569247D01*
X94513270Y-102570886D01*
X94515745Y-102572639D01*
X94518134Y-102574507D01*
X94520432Y-102576488D01*
X94522633Y-102578582D01*
X95472196Y-103528145D01*
X95474290Y-103530346D01*
X95476270Y-103532645D01*
X95478135Y-103535035D01*
X95479886Y-103537512D01*
X95481522Y-103540068D01*
X95483041Y-103542699D01*
X95485732Y-103548161D01*
X95487955Y-103553851D01*
X95489707Y-103559724D01*
X95490984Y-103565733D01*
X95491782Y-103571831D01*
X95492099Y-103577973D01*
X95491930Y-103584113D01*
X95491272Y-103590204D01*
X95490122Y-103596200D01*
X95488477Y-103602056D01*
X95487467Y-103604916D01*
X95486332Y-103607724D01*
X95485071Y-103610474D01*
X95483684Y-103613159D01*
X95482170Y-103615775D01*
X95480530Y-103618315D01*
X94720276Y-104726390D01*
X94717006Y-104731628D01*
X94714104Y-104737246D01*
X94711573Y-104743194D01*
X94709416Y-104749420D01*
X94707638Y-104755874D01*
X94706240Y-104762504D01*
X94705226Y-104769259D01*
X94704599Y-104776089D01*
X94704363Y-104782942D01*
X94704522Y-104789767D01*
X94705077Y-104796513D01*
X94706033Y-104803129D01*
X94707392Y-104809565D01*
X94709159Y-104815769D01*
X94711335Y-104821689D01*
X94713926Y-104827276D01*
X95113897Y-105760408D01*
X95116181Y-105766138D01*
X95118990Y-105771815D01*
X95122283Y-105777406D01*
X95126020Y-105782877D01*
X95130163Y-105788194D01*
X95134671Y-105793324D01*
X95139505Y-105798231D01*
X95144626Y-105802884D01*
X95149992Y-105807247D01*
X95155566Y-105811286D01*
X95161306Y-105814969D01*
X95167175Y-105818261D01*
X95173131Y-105821129D01*
X95179135Y-105823538D01*
X95185148Y-105825454D01*
X95191129Y-105826845D01*
X96495974Y-106069494D01*
X96498934Y-106070133D01*
X96501856Y-106070915D01*
X96504736Y-106071837D01*
X96507573Y-106072893D01*
X96510361Y-106074079D01*
X96513096Y-106075391D01*
X96515776Y-106076825D01*
X96518396Y-106078376D01*
X96523443Y-106081811D01*
X96528206Y-106085661D01*
X96532656Y-106089892D01*
X96536763Y-106094468D01*
X96540497Y-106099353D01*
X96543828Y-106104513D01*
X96546726Y-106109912D01*
X96548004Y-106112690D01*
X96549162Y-106115515D01*
X96550197Y-106118383D01*
X96551105Y-106121287D01*
X96551882Y-106124226D01*
X96552526Y-106127193D01*
X96553031Y-106130185D01*
X96553394Y-106133197D01*
X96553612Y-106136225D01*
X96553680Y-106139264D01*
X96553521Y-107482210D01*
X96553445Y-107485243D01*
X96553220Y-107488266D01*
X96552849Y-107491275D01*
X96552337Y-107494265D01*
X96551687Y-107497232D01*
X96550902Y-107500171D01*
X96549987Y-107503077D01*
X96548945Y-107505947D01*
X96547780Y-107508775D01*
X96546495Y-107511557D01*
X96545096Y-107514288D01*
X96543584Y-107516965D01*
X96541965Y-107519581D01*
X96540241Y-107522133D01*
X96538416Y-107524617D01*
X96536495Y-107527027D01*
X96534481Y-107529359D01*
X96532378Y-107531609D01*
X96530189Y-107533772D01*
X96527918Y-107535843D01*
X96525570Y-107537818D01*
X96523147Y-107539693D01*
X96520653Y-107541462D01*
X96518093Y-107543121D01*
X96515470Y-107544667D01*
X96512787Y-107546093D01*
X96510049Y-107547396D01*
X96507259Y-107548571D01*
X96504422Y-107549614D01*
X96501539Y-107550519D01*
X96498617Y-107551283D01*
X96495657Y-107551901D01*
X95222879Y-107788756D01*
X95219882Y-107789370D01*
X95216880Y-107790123D01*
X95213875Y-107791011D01*
X95210874Y-107792029D01*
X95204900Y-107794437D01*
X95198995Y-107797314D01*
X95193198Y-107800624D01*
X95187546Y-107804333D01*
X95182077Y-107808406D01*
X95176831Y-107812807D01*
X95171843Y-107817502D01*
X95167153Y-107822457D01*
X95162799Y-107827635D01*
X95158819Y-107833003D01*
X95155250Y-107838525D01*
X95152130Y-107844167D01*
X95149498Y-107849893D01*
X95148377Y-107852777D01*
X95147392Y-107855669D01*
X94750042Y-108848253D01*
X94747584Y-108853899D01*
X94745534Y-108859878D01*
X94743890Y-108866139D01*
X94742646Y-108872630D01*
X94741799Y-108879299D01*
X94741345Y-108886094D01*
X94741279Y-108892964D01*
X94741598Y-108899857D01*
X94742297Y-108906721D01*
X94743373Y-108913504D01*
X94744821Y-108920156D01*
X94746637Y-108926623D01*
X94748817Y-108932854D01*
X94751358Y-108938798D01*
X94754254Y-108944402D01*
X94757502Y-108949615D01*
X95480529Y-110003160D01*
X95482183Y-110005700D01*
X95483709Y-110008317D01*
X95485106Y-110011003D01*
X95486376Y-110013754D01*
X95487518Y-110016564D01*
X95488534Y-110019427D01*
X95489424Y-110022336D01*
X95490188Y-110025287D01*
X95490827Y-110028273D01*
X95491341Y-110031289D01*
X95491998Y-110037387D01*
X95492163Y-110043534D01*
X95491840Y-110049684D01*
X95491033Y-110055789D01*
X95489747Y-110061805D01*
X95487986Y-110067684D01*
X95486928Y-110070558D01*
X95485753Y-110073381D01*
X95484461Y-110076146D01*
X95483053Y-110078848D01*
X95481530Y-110081481D01*
X95479891Y-110084039D01*
X95478138Y-110086517D01*
X95476270Y-110088909D01*
X95474289Y-110091208D01*
X95472195Y-110093409D01*
X94522473Y-111042972D01*
X94520286Y-111045052D01*
X94518000Y-111047020D01*
X94515621Y-111048875D01*
X94513155Y-111050616D01*
X94510608Y-111052245D01*
X94507985Y-111053758D01*
X94502536Y-111056441D01*
X94496855Y-111058661D01*
X94490989Y-111060413D01*
X94484983Y-111061694D01*
X94478886Y-111062499D01*
X94472743Y-111062823D01*
X94466601Y-111062664D01*
X94460507Y-111062017D01*
X94454507Y-111060876D01*
X94448648Y-111059239D01*
X94445786Y-111058233D01*
X94442976Y-111057102D01*
X94440226Y-111055844D01*
X94437539Y-111054459D01*
X94434923Y-111052947D01*
X94432383Y-111051307D01*
X93397412Y-110340980D01*
X93392209Y-110337741D01*
X93386637Y-110334902D01*
X93380746Y-110332462D01*
X93374586Y-110330423D01*
X93368209Y-110328786D01*
X93361665Y-110327552D01*
X93355005Y-110326722D01*
X93348279Y-110326296D01*
X93341538Y-110326275D01*
X93334833Y-110326662D01*
X93328214Y-110327455D01*
X93321733Y-110328657D01*
X93315439Y-110330269D01*
X93309384Y-110332290D01*
X93303619Y-110334723D01*
X93298193Y-110337567D01*
X92841787Y-110581248D01*
X92839058Y-110582546D01*
X92836306Y-110583687D01*
X92833536Y-110584672D01*
X92830753Y-110585505D01*
X92827962Y-110586185D01*
X92825167Y-110586716D01*
X92822373Y-110587099D01*
X92819585Y-110587335D01*
X92816808Y-110587427D01*
X92814046Y-110587376D01*
X92811304Y-110587183D01*
X92808586Y-110586852D01*
X92805899Y-110586382D01*
X92803246Y-110585777D01*
X92800631Y-110585037D01*
X92798061Y-110584165D01*
X92795539Y-110583163D01*
X92793071Y-110582031D01*
X92790661Y-110580772D01*
X92788313Y-110579388D01*
X92786034Y-110577880D01*
X92783826Y-110576250D01*
X92781696Y-110574500D01*
X92779647Y-110572631D01*
X92777686Y-110570646D01*
X92775815Y-110568546D01*
X92774041Y-110566332D01*
X92772367Y-110564007D01*
X92770800Y-110561572D01*
X92769342Y-110559029D01*
X92768000Y-110556380D01*
X92766778Y-110553626D01*
X91825787Y-108279691D01*
X91824698Y-108276862D01*
X91823754Y-108273991D01*
X91822953Y-108271081D01*
X91822292Y-108268140D01*
X91821770Y-108265172D01*
X91821384Y-108262182D01*
X91821134Y-108259177D01*
X91821017Y-108256161D01*
X91821031Y-108253140D01*
X91821175Y-108250120D01*
X91821446Y-108247104D01*
X91821843Y-108244101D01*
X91822365Y-108241113D01*
X91823009Y-108238148D01*
X91823773Y-108235209D01*
X91824655Y-108232304D01*
X91825655Y-108229437D01*
X91826769Y-108226613D01*
X91827996Y-108223838D01*
X91829335Y-108221118D01*
X91830783Y-108218457D01*
X91832339Y-108215861D01*
X91834000Y-108213337D01*
X91835765Y-108210888D01*
X91837633Y-108208520D01*
X91839600Y-108206239D01*
X91841666Y-108204051D01*
X91843829Y-108201960D01*
X91846087Y-108199972D01*
X91848437Y-108198092D01*
X91850878Y-108196327D01*
X91853409Y-108194680D01*
X91967630Y-108124751D01*
X91975851Y-108119516D01*
X91984628Y-108113540D01*
X91993796Y-108106953D01*
X92003190Y-108099887D01*
X92012642Y-108092471D01*
X92021989Y-108084835D01*
X92031064Y-108077111D01*
X92039702Y-108069427D01*
X92115314Y-108017672D01*
X92187475Y-107961479D01*
X92255989Y-107901043D01*
X92320658Y-107836560D01*
X92381285Y-107768227D01*
X92437673Y-107696238D01*
X92489626Y-107620790D01*
X92536947Y-107542079D01*
X92579438Y-107460300D01*
X92616903Y-107375649D01*
X92649144Y-107288322D01*
X92675965Y-107198515D01*
X92697169Y-107106423D01*
X92712558Y-107012242D01*
X92721936Y-106916168D01*
X92725106Y-106818398D01*
X92723173Y-106741969D01*
X92717438Y-106666543D01*
X92707993Y-106592215D01*
X92694933Y-106519076D01*
X92678349Y-106447221D01*
X92658336Y-106376743D01*
X92634988Y-106307735D01*
X92608396Y-106240290D01*
X92578655Y-106174501D01*
X92545857Y-106110463D01*
X92510097Y-106048268D01*
X92471468Y-105988009D01*
X92430062Y-105929781D01*
X92385973Y-105873675D01*
X92339295Y-105819786D01*
X92290121Y-105768207D01*
X92238543Y-105719031D01*
X92184657Y-105672351D01*
X92128554Y-105628261D01*
X92070328Y-105586854D01*
X92010072Y-105548224D01*
X91947880Y-105512463D01*
X91883846Y-105479665D01*
X91818061Y-105449923D01*
X91750621Y-105423331D01*
X91681617Y-105399982D01*
X91611144Y-105379969D01*
X91539294Y-105363385D01*
X91466162Y-105350324D01*
X91391840Y-105340880D01*
X91316421Y-105335144D01*
X91240000Y-105333212D01*
X91163578Y-105335144D01*
X91088158Y-105340880D01*
X91013835Y-105350324D01*
X90940701Y-105363385D01*
X90868850Y-105379969D01*
X90798374Y-105399982D01*
X90729368Y-105423331D01*
X90661925Y-105449923D01*
X90596138Y-105479665D01*
X90532100Y-105512463D01*
X90469905Y-105548224D01*
X90409646Y-105586854D01*
X90351416Y-105628261D01*
X90295310Y-105672351D01*
X90241419Y-105719031D01*
X90189838Y-105768207D01*
X90140660Y-105819786D01*
X90093979Y-105873675D01*
X90049886Y-105929781D01*
X90008477Y-105988009D01*
X89969844Y-106048268D01*
X89934081Y-106110463D01*
X89901280Y-106174501D01*
X89871536Y-106240290D01*
X89844942Y-106307735D01*
X89821590Y-106376743D01*
X89801575Y-106447221D01*
X89784990Y-106519076D01*
X89771928Y-106592215D01*
X89762482Y-106666543D01*
X89756747Y-106741969D01*
X89754814Y-106818398D01*
X89755611Y-106867483D01*
X89757985Y-106916168D01*
X89761911Y-106964430D01*
X89767365Y-107012242D01*
X89774322Y-107059581D01*
X89782758Y-107106423D01*
X89792647Y-107152742D01*
X89803966Y-107198515D01*
X89816689Y-107243716D01*
X89830791Y-107288322D01*
X89846249Y-107332308D01*
X89863037Y-107375649D01*
X89881132Y-107418321D01*
X89900507Y-107460300D01*
X89943002Y-107542079D01*
X89990326Y-107620791D01*
X90042281Y-107696239D01*
X90098670Y-107768227D01*
X90159295Y-107836560D01*
X90223960Y-107901043D01*
X90292467Y-107961479D01*
X90364618Y-108017672D01*
X90440217Y-108069427D01*
X90448904Y-108077111D01*
X90458011Y-108084835D01*
X90467376Y-108092471D01*
X90476839Y-108099887D01*
X90486239Y-108106953D01*
X90495414Y-108113539D01*
X90504204Y-108119515D01*
X90512449Y-108124751D01*
X90626669Y-108194680D01*
X90629214Y-108196327D01*
X90631669Y-108198092D01*
X90634030Y-108199972D01*
X90636298Y-108201960D01*
X90638470Y-108204051D01*
X90640544Y-108206239D01*
X90644391Y-108210888D01*
X90647826Y-108215861D01*
X90650834Y-108221118D01*
X90653401Y-108226613D01*
X90655512Y-108232304D01*
X90657154Y-108238148D01*
X90658312Y-108244101D01*
X90658971Y-108250120D01*
X90659118Y-108256161D01*
X90658737Y-108262182D01*
X90658345Y-108265172D01*
X90657816Y-108268140D01*
X90657148Y-108271081D01*
X90656339Y-108273991D01*
X90655388Y-108276862D01*
X90654292Y-108279691D01*
X89713223Y-110553547D01*
X89712000Y-110556301D01*
X89710657Y-110558951D01*
X89709199Y-110561495D01*
X89707629Y-110563931D01*
X89705954Y-110566258D01*
X89704178Y-110568474D01*
X89702306Y-110570576D01*
X89700341Y-110572564D01*
X89698291Y-110574435D01*
X89696158Y-110576187D01*
X89693948Y-110577820D01*
X89691666Y-110579330D01*
X89689316Y-110580717D01*
X89686903Y-110581978D01*
X89684433Y-110583112D01*
X89681909Y-110584116D01*
X89679337Y-110584990D01*
X89676721Y-110585731D01*
X89674067Y-110586338D01*
X89671378Y-110586808D01*
X89668661Y-110587140D01*
X89665919Y-110587332D01*
X89663157Y-110587383D01*
X89660381Y-110587290D01*
X89657594Y-110587052D01*
X89654803Y-110586667D01*
X89652011Y-110586133D01*
X89649223Y-110585449D01*
X89646445Y-110584612D01*
X89643681Y-110583621D01*
X89640935Y-110582474D01*
X89638213Y-110581170D01*
X89181807Y-110337488D01*
X89176394Y-110334645D01*
X89170638Y-110332215D01*
X89164590Y-110330197D01*
X89158301Y-110328590D01*
X89151821Y-110327393D01*
X89145202Y-110326604D01*
X89138495Y-110326222D01*
X89131751Y-110326247D01*
X89125021Y-110326676D01*
X89118356Y-110327508D01*
X89111807Y-110328743D01*
X89105425Y-110330378D01*
X89099261Y-110332413D01*
X89093366Y-110334846D01*
X89087791Y-110337676D01*
X89082588Y-110340902D01*
X88047697Y-111051228D01*
X88045149Y-111052868D01*
X88042527Y-111054380D01*
X88039835Y-111055765D01*
X88037080Y-111057023D01*
X88034267Y-111058155D01*
X88031401Y-111059161D01*
X88028490Y-111060042D01*
X88025537Y-111060798D01*
X88022550Y-111061430D01*
X88019535Y-111061938D01*
X88013439Y-111062585D01*
X88007296Y-111062745D01*
X88001153Y-111062420D01*
X87995056Y-111061615D01*
X87989050Y-111060334D01*
X87983182Y-111058582D01*
X87980314Y-111057531D01*
X87977498Y-111056363D01*
X87974740Y-111055079D01*
X87972045Y-111053680D01*
X87969419Y-111052166D01*
X87966867Y-111050538D01*
X87964397Y-111048796D01*
X87962013Y-111046941D01*
X87959721Y-111044973D01*
X87957527Y-111042894D01*
X87007805Y-110093330D01*
X87005718Y-110091129D01*
X87003743Y-110088830D01*
X87001882Y-110086438D01*
X87000135Y-110083960D01*
X86998501Y-110081402D01*
X86996982Y-110078769D01*
X86994291Y-110073302D01*
X86992065Y-110067606D01*
X86990308Y-110061726D01*
X86989025Y-110055711D01*
X86988219Y-110049605D01*
X86987895Y-110043455D01*
X86988057Y-110037308D01*
X86988710Y-110031211D01*
X86989856Y-110025208D01*
X86991502Y-110019348D01*
X86992512Y-110016485D01*
X86993650Y-110013675D01*
X86994913Y-110010924D01*
X86996304Y-110008238D01*
X86997823Y-110005621D01*
X86999471Y-110003081D01*
X87722418Y-108949536D01*
X87725693Y-108944323D01*
X87728612Y-108938719D01*
X87731169Y-108932775D01*
X87733363Y-108926544D01*
X87735189Y-108920077D01*
X87736643Y-108913426D01*
X87737722Y-108906642D01*
X87738422Y-108899778D01*
X87738740Y-108892886D01*
X87738672Y-108886016D01*
X87738214Y-108879220D01*
X87737364Y-108872552D01*
X87736117Y-108866061D01*
X87734469Y-108859800D01*
X87732417Y-108853821D01*
X87729958Y-108848175D01*
X87332607Y-107855591D01*
X87331629Y-107852698D01*
X87330512Y-107849814D01*
X87327886Y-107844088D01*
X87324765Y-107838446D01*
X87321191Y-107832924D01*
X87317201Y-107827556D01*
X87312835Y-107822378D01*
X87308131Y-107817423D01*
X87303129Y-107812728D01*
X87297868Y-107808327D01*
X87292386Y-107804254D01*
X87286722Y-107800545D01*
X87280915Y-107797235D01*
X87275005Y-107794358D01*
X87269030Y-107791950D01*
X87263030Y-107790045D01*
X87260032Y-107789292D01*
X87257042Y-107788677D01*
X85984264Y-107551823D01*
X85981298Y-107551205D01*
X85978369Y-107550441D01*
X85975482Y-107549535D01*
X85972639Y-107548493D01*
X85969846Y-107547317D01*
X85967105Y-107546014D01*
X85964420Y-107544588D01*
X85961795Y-107543043D01*
X85959233Y-107541383D01*
X85956739Y-107539614D01*
X85951968Y-107535764D01*
X85947510Y-107531530D01*
X85943396Y-107526948D01*
X85939655Y-107522054D01*
X85936316Y-107516886D01*
X85933410Y-107511478D01*
X85930965Y-107505868D01*
X85929925Y-107502998D01*
X85929012Y-107500092D01*
X85928229Y-107497153D01*
X85927581Y-107494186D01*
X85927070Y-107491196D01*
X85926700Y-107488187D01*
X85926475Y-107485164D01*
X85926400Y-107482131D01*
X85926320Y-106139185D01*
X85926396Y-106136153D01*
X85926620Y-106133132D01*
X85926988Y-106130126D01*
X85927498Y-106127140D01*
X85928145Y-106124178D01*
X85928926Y-106121245D01*
X85929837Y-106118345D01*
X85930875Y-106115482D01*
X85932035Y-106112661D01*
X85933314Y-106109886D01*
X85934709Y-106107162D01*
X85936216Y-106104494D01*
X85937830Y-106101884D01*
X85939550Y-106099339D01*
X85941370Y-106096862D01*
X85943287Y-106094458D01*
X85945298Y-106092131D01*
X85947398Y-106089885D01*
X85949585Y-106087726D01*
X85951854Y-106085657D01*
X85954202Y-106083683D01*
X85956625Y-106081808D01*
X85959120Y-106080037D01*
X85961682Y-106078374D01*
X85964309Y-106076824D01*
X85966996Y-106075391D01*
X85969740Y-106074079D01*
X85972537Y-106072892D01*
X85975384Y-106071837D01*
X85978277Y-106070915D01*
X85981211Y-106070133D01*
X85984185Y-106069494D01*
X87288951Y-105826845D01*
X87291950Y-105826217D01*
X87294960Y-105825454D01*
X87300995Y-105823538D01*
X87307016Y-105821129D01*
X87312984Y-105818261D01*
X87318861Y-105814969D01*
X87324606Y-105811286D01*
X87330180Y-105807247D01*
X87335544Y-105802884D01*
X87340659Y-105798231D01*
X87345486Y-105793324D01*
X87349984Y-105788194D01*
X87354115Y-105782877D01*
X87357840Y-105777406D01*
X87361119Y-105771815D01*
X87363913Y-105766138D01*
X87365116Y-105763277D01*
X87366183Y-105760408D01*
X87766233Y-104827276D01*
X87768809Y-104821689D01*
X87770974Y-104815769D01*
X87772731Y-104809565D01*
X87774082Y-104803129D01*
X87775033Y-104796513D01*
X87775585Y-104789767D01*
X87775743Y-104782942D01*
X87775510Y-104776089D01*
X87774889Y-104769259D01*
X87773883Y-104762504D01*
X87772496Y-104755874D01*
X87770731Y-104749420D01*
X87768592Y-104743194D01*
X87766082Y-104737246D01*
X87763204Y-104731628D01*
X87759962Y-104726390D01*
X86999629Y-103618315D01*
X86997975Y-103615775D01*
X86996450Y-103613159D01*
X86995054Y-103610474D01*
X86993785Y-103607724D01*
X86992644Y-103604916D01*
X86991631Y-103602056D01*
X86990743Y-103599149D01*
X86989981Y-103596200D01*
X86989345Y-103593217D01*
X86988833Y-103590204D01*
X86988181Y-103584113D01*
X86988021Y-103577973D01*
X86988348Y-103571831D01*
X86989158Y-103565733D01*
X86990446Y-103559724D01*
X86992208Y-103553851D01*
X86993265Y-103550981D01*
X86994439Y-103548161D01*
X86995729Y-103545399D01*
X86997134Y-103542699D01*
X86998655Y-103540068D01*
X87000290Y-103537512D01*
X87002039Y-103535035D01*
X87003901Y-103532645D01*
X87005876Y-103530346D01*
X87007963Y-103528145D01*
X87957607Y-102578582D01*
X87959801Y-102576488D01*
X87962093Y-102574507D01*
X87964477Y-102572639D01*
X87966947Y-102570886D01*
X87969498Y-102569247D01*
X87972124Y-102567723D01*
X87977578Y-102565024D01*
X87983262Y-102562791D01*
X87989130Y-102561030D01*
X87995136Y-102559743D01*
X88001233Y-102558937D01*
X88007376Y-102558614D01*
X88013519Y-102558779D01*
X88019614Y-102559436D01*
X88025617Y-102560589D01*
X88031481Y-102562242D01*
X88034347Y-102563258D01*
X88037160Y-102564401D01*
X88039915Y-102565670D01*
X88042607Y-102567068D01*
X88045230Y-102568593D01*
X88047777Y-102570248D01*
X89175219Y-103343995D01*
X89180420Y-103347256D01*
X89186017Y-103350159D01*
X89191958Y-103352702D01*
X89198189Y-103354881D01*
X89204659Y-103356691D01*
X89211316Y-103358131D01*
X89218106Y-103359195D01*
X89224977Y-103359880D01*
X89231877Y-103360183D01*
X89238754Y-103360100D01*
X89245554Y-103359628D01*
X89252226Y-103358763D01*
X89258717Y-103357501D01*
X89264975Y-103355838D01*
X89270947Y-103353772D01*
X89276581Y-103351298D01*
X90181218Y-102981013D01*
X90186976Y-102978831D01*
X90192677Y-102976121D01*
X90198290Y-102972921D01*
X90203780Y-102969272D01*
X90209113Y-102965212D01*
X90214257Y-102960780D01*
X90219178Y-102956017D01*
X90223842Y-102950960D01*
X90228215Y-102945649D01*
X90232265Y-102940123D01*
X90235958Y-102934422D01*
X90239260Y-102928585D01*
X90242138Y-102922650D01*
X90244559Y-102916657D01*
X90246488Y-102910646D01*
X90247892Y-102904655D01*
X90499035Y-101555041D01*
X90499660Y-101552075D01*
X90500429Y-101549146D01*
X90501339Y-101546259D01*
X90502384Y-101543416D01*
X90503561Y-101540623D01*
X90504865Y-101537882D01*
X90506291Y-101535197D01*
X90507834Y-101532572D01*
X90509492Y-101530011D01*
X90511258Y-101527517D01*
X90515099Y-101522745D01*
X90519321Y-101518288D01*
X90523889Y-101514173D01*
X90528767Y-101510432D01*
X90533919Y-101507093D01*
X90539309Y-101504187D01*
X90542081Y-101502905D01*
X90544900Y-101501742D01*
X90547760Y-101500703D01*
X90550658Y-101499789D01*
X90553587Y-101499007D01*
X90556545Y-101498358D01*
X90559527Y-101497847D01*
X90562527Y-101497477D01*
X90565542Y-101497253D01*
X90568567Y-101497177D01*
X91911592Y-101497177D01*
X91914624Y-101497253D01*
G37*
D11*
X66097693Y-132030038D02*
X66002455Y-131982419D01*
X66002455Y-131982419D02*
X65859598Y-131982419D01*
X65859598Y-131982419D02*
X65716741Y-132030038D01*
X65716741Y-132030038D02*
X65621503Y-132125276D01*
X65621503Y-132125276D02*
X65573884Y-132220514D01*
X65573884Y-132220514D02*
X65526265Y-132410990D01*
X65526265Y-132410990D02*
X65526265Y-132553847D01*
X65526265Y-132553847D02*
X65573884Y-132744323D01*
X65573884Y-132744323D02*
X65621503Y-132839561D01*
X65621503Y-132839561D02*
X65716741Y-132934800D01*
X65716741Y-132934800D02*
X65859598Y-132982419D01*
X65859598Y-132982419D02*
X65954836Y-132982419D01*
X65954836Y-132982419D02*
X66097693Y-132934800D01*
X66097693Y-132934800D02*
X66145312Y-132887180D01*
X66145312Y-132887180D02*
X66145312Y-132553847D01*
X66145312Y-132553847D02*
X65954836Y-132553847D01*
X66573884Y-132982419D02*
X66573884Y-131982419D01*
X66573884Y-131982419D02*
X67145312Y-132982419D01*
X67145312Y-132982419D02*
X67145312Y-131982419D01*
X67621503Y-132982419D02*
X67621503Y-131982419D01*
X67621503Y-131982419D02*
X67859598Y-131982419D01*
X67859598Y-131982419D02*
X68002455Y-132030038D01*
X68002455Y-132030038D02*
X68097693Y-132125276D01*
X68097693Y-132125276D02*
X68145312Y-132220514D01*
X68145312Y-132220514D02*
X68192931Y-132410990D01*
X68192931Y-132410990D02*
X68192931Y-132553847D01*
X68192931Y-132553847D02*
X68145312Y-132744323D01*
X68145312Y-132744323D02*
X68097693Y-132839561D01*
X68097693Y-132839561D02*
X68002455Y-132934800D01*
X68002455Y-132934800D02*
X67859598Y-132982419D01*
X67859598Y-132982419D02*
X67621503Y-132982419D01*
X63881027Y-33452419D02*
X64214360Y-34452419D01*
X64214360Y-34452419D02*
X64547693Y-33452419D01*
X82277693Y-113142419D02*
X81706265Y-113142419D01*
X81991979Y-113142419D02*
X81991979Y-112142419D01*
X81991979Y-112142419D02*
X81896741Y-112285276D01*
X81896741Y-112285276D02*
X81801503Y-112380514D01*
X81801503Y-112380514D02*
X81706265Y-112428133D01*
X82658646Y-112237657D02*
X82706265Y-112190038D01*
X82706265Y-112190038D02*
X82801503Y-112142419D01*
X82801503Y-112142419D02*
X83039598Y-112142419D01*
X83039598Y-112142419D02*
X83134836Y-112190038D01*
X83134836Y-112190038D02*
X83182455Y-112237657D01*
X83182455Y-112237657D02*
X83230074Y-112332895D01*
X83230074Y-112332895D02*
X83230074Y-112428133D01*
X83230074Y-112428133D02*
X83182455Y-112570990D01*
X83182455Y-112570990D02*
X82611027Y-113142419D01*
X82611027Y-113142419D02*
X83230074Y-113142419D01*
X83515789Y-112142419D02*
X83849122Y-113142419D01*
X83849122Y-113142419D02*
X84182455Y-112142419D01*
X85753884Y-112142419D02*
X85277694Y-112142419D01*
X85277694Y-112142419D02*
X85230075Y-112618609D01*
X85230075Y-112618609D02*
X85277694Y-112570990D01*
X85277694Y-112570990D02*
X85372932Y-112523371D01*
X85372932Y-112523371D02*
X85611027Y-112523371D01*
X85611027Y-112523371D02*
X85706265Y-112570990D01*
X85706265Y-112570990D02*
X85753884Y-112618609D01*
X85753884Y-112618609D02*
X85801503Y-112713847D01*
X85801503Y-112713847D02*
X85801503Y-112951942D01*
X85801503Y-112951942D02*
X85753884Y-113047180D01*
X85753884Y-113047180D02*
X85706265Y-113094800D01*
X85706265Y-113094800D02*
X85611027Y-113142419D01*
X85611027Y-113142419D02*
X85372932Y-113142419D01*
X85372932Y-113142419D02*
X85277694Y-113094800D01*
X85277694Y-113094800D02*
X85230075Y-113047180D01*
X86087218Y-112142419D02*
X86420551Y-113142419D01*
X86420551Y-113142419D02*
X86753884Y-112142419D01*
X87753885Y-112142419D02*
X88372932Y-112142419D01*
X88372932Y-112142419D02*
X88039599Y-112523371D01*
X88039599Y-112523371D02*
X88182456Y-112523371D01*
X88182456Y-112523371D02*
X88277694Y-112570990D01*
X88277694Y-112570990D02*
X88325313Y-112618609D01*
X88325313Y-112618609D02*
X88372932Y-112713847D01*
X88372932Y-112713847D02*
X88372932Y-112951942D01*
X88372932Y-112951942D02*
X88325313Y-113047180D01*
X88325313Y-113047180D02*
X88277694Y-113094800D01*
X88277694Y-113094800D02*
X88182456Y-113142419D01*
X88182456Y-113142419D02*
X87896742Y-113142419D01*
X87896742Y-113142419D02*
X87801504Y-113094800D01*
X87801504Y-113094800D02*
X87753885Y-113047180D01*
X88801504Y-113047180D02*
X88849123Y-113094800D01*
X88849123Y-113094800D02*
X88801504Y-113142419D01*
X88801504Y-113142419D02*
X88753885Y-113094800D01*
X88753885Y-113094800D02*
X88801504Y-113047180D01*
X88801504Y-113047180D02*
X88801504Y-113142419D01*
X89182456Y-112142419D02*
X89801503Y-112142419D01*
X89801503Y-112142419D02*
X89468170Y-112523371D01*
X89468170Y-112523371D02*
X89611027Y-112523371D01*
X89611027Y-112523371D02*
X89706265Y-112570990D01*
X89706265Y-112570990D02*
X89753884Y-112618609D01*
X89753884Y-112618609D02*
X89801503Y-112713847D01*
X89801503Y-112713847D02*
X89801503Y-112951942D01*
X89801503Y-112951942D02*
X89753884Y-113047180D01*
X89753884Y-113047180D02*
X89706265Y-113094800D01*
X89706265Y-113094800D02*
X89611027Y-113142419D01*
X89611027Y-113142419D02*
X89325313Y-113142419D01*
X89325313Y-113142419D02*
X89230075Y-113094800D01*
X89230075Y-113094800D02*
X89182456Y-113047180D01*
X90087218Y-112142419D02*
X90420551Y-113142419D01*
X90420551Y-113142419D02*
X90753884Y-112142419D01*
X92372932Y-112190038D02*
X92277694Y-112142419D01*
X92277694Y-112142419D02*
X92134837Y-112142419D01*
X92134837Y-112142419D02*
X91991980Y-112190038D01*
X91991980Y-112190038D02*
X91896742Y-112285276D01*
X91896742Y-112285276D02*
X91849123Y-112380514D01*
X91849123Y-112380514D02*
X91801504Y-112570990D01*
X91801504Y-112570990D02*
X91801504Y-112713847D01*
X91801504Y-112713847D02*
X91849123Y-112904323D01*
X91849123Y-112904323D02*
X91896742Y-112999561D01*
X91896742Y-112999561D02*
X91991980Y-113094800D01*
X91991980Y-113094800D02*
X92134837Y-113142419D01*
X92134837Y-113142419D02*
X92230075Y-113142419D01*
X92230075Y-113142419D02*
X92372932Y-113094800D01*
X92372932Y-113094800D02*
X92420551Y-113047180D01*
X92420551Y-113047180D02*
X92420551Y-112713847D01*
X92420551Y-112713847D02*
X92230075Y-112713847D01*
X92849123Y-113142419D02*
X92849123Y-112142419D01*
X92849123Y-112142419D02*
X93420551Y-113142419D01*
X93420551Y-113142419D02*
X93420551Y-112142419D01*
X93896742Y-113142419D02*
X93896742Y-112142419D01*
X93896742Y-112142419D02*
X94134837Y-112142419D01*
X94134837Y-112142419D02*
X94277694Y-112190038D01*
X94277694Y-112190038D02*
X94372932Y-112285276D01*
X94372932Y-112285276D02*
X94420551Y-112380514D01*
X94420551Y-112380514D02*
X94468170Y-112570990D01*
X94468170Y-112570990D02*
X94468170Y-112713847D01*
X94468170Y-112713847D02*
X94420551Y-112904323D01*
X94420551Y-112904323D02*
X94372932Y-112999561D01*
X94372932Y-112999561D02*
X94277694Y-113094800D01*
X94277694Y-113094800D02*
X94134837Y-113142419D01*
X94134837Y-113142419D02*
X93896742Y-113142419D01*
X96656265Y-113034800D02*
X96799122Y-113082419D01*
X96799122Y-113082419D02*
X97037217Y-113082419D01*
X97037217Y-113082419D02*
X97132455Y-113034800D01*
X97132455Y-113034800D02*
X97180074Y-112987180D01*
X97180074Y-112987180D02*
X97227693Y-112891942D01*
X97227693Y-112891942D02*
X97227693Y-112796704D01*
X97227693Y-112796704D02*
X97180074Y-112701466D01*
X97180074Y-112701466D02*
X97132455Y-112653847D01*
X97132455Y-112653847D02*
X97037217Y-112606228D01*
X97037217Y-112606228D02*
X96846741Y-112558609D01*
X96846741Y-112558609D02*
X96751503Y-112510990D01*
X96751503Y-112510990D02*
X96703884Y-112463371D01*
X96703884Y-112463371D02*
X96656265Y-112368133D01*
X96656265Y-112368133D02*
X96656265Y-112272895D01*
X96656265Y-112272895D02*
X96703884Y-112177657D01*
X96703884Y-112177657D02*
X96751503Y-112130038D01*
X96751503Y-112130038D02*
X96846741Y-112082419D01*
X96846741Y-112082419D02*
X97084836Y-112082419D01*
X97084836Y-112082419D02*
X97227693Y-112130038D01*
X97656265Y-113082419D02*
X97656265Y-112082419D01*
X97656265Y-112082419D02*
X97894360Y-112082419D01*
X97894360Y-112082419D02*
X98037217Y-112130038D01*
X98037217Y-112130038D02*
X98132455Y-112225276D01*
X98132455Y-112225276D02*
X98180074Y-112320514D01*
X98180074Y-112320514D02*
X98227693Y-112510990D01*
X98227693Y-112510990D02*
X98227693Y-112653847D01*
X98227693Y-112653847D02*
X98180074Y-112844323D01*
X98180074Y-112844323D02*
X98132455Y-112939561D01*
X98132455Y-112939561D02*
X98037217Y-113034800D01*
X98037217Y-113034800D02*
X97894360Y-113082419D01*
X97894360Y-113082419D02*
X97656265Y-113082419D01*
X98608646Y-112796704D02*
X99084836Y-112796704D01*
X98513408Y-113082419D02*
X98846741Y-112082419D01*
X98846741Y-112082419D02*
X99180074Y-113082419D01*
X100227694Y-113034800D02*
X100370551Y-113082419D01*
X100370551Y-113082419D02*
X100608646Y-113082419D01*
X100608646Y-113082419D02*
X100703884Y-113034800D01*
X100703884Y-113034800D02*
X100751503Y-112987180D01*
X100751503Y-112987180D02*
X100799122Y-112891942D01*
X100799122Y-112891942D02*
X100799122Y-112796704D01*
X100799122Y-112796704D02*
X100751503Y-112701466D01*
X100751503Y-112701466D02*
X100703884Y-112653847D01*
X100703884Y-112653847D02*
X100608646Y-112606228D01*
X100608646Y-112606228D02*
X100418170Y-112558609D01*
X100418170Y-112558609D02*
X100322932Y-112510990D01*
X100322932Y-112510990D02*
X100275313Y-112463371D01*
X100275313Y-112463371D02*
X100227694Y-112368133D01*
X100227694Y-112368133D02*
X100227694Y-112272895D01*
X100227694Y-112272895D02*
X100275313Y-112177657D01*
X100275313Y-112177657D02*
X100322932Y-112130038D01*
X100322932Y-112130038D02*
X100418170Y-112082419D01*
X100418170Y-112082419D02*
X100656265Y-112082419D01*
X100656265Y-112082419D02*
X100799122Y-112130038D01*
X101799122Y-112987180D02*
X101751503Y-113034800D01*
X101751503Y-113034800D02*
X101608646Y-113082419D01*
X101608646Y-113082419D02*
X101513408Y-113082419D01*
X101513408Y-113082419D02*
X101370551Y-113034800D01*
X101370551Y-113034800D02*
X101275313Y-112939561D01*
X101275313Y-112939561D02*
X101227694Y-112844323D01*
X101227694Y-112844323D02*
X101180075Y-112653847D01*
X101180075Y-112653847D02*
X101180075Y-112510990D01*
X101180075Y-112510990D02*
X101227694Y-112320514D01*
X101227694Y-112320514D02*
X101275313Y-112225276D01*
X101275313Y-112225276D02*
X101370551Y-112130038D01*
X101370551Y-112130038D02*
X101513408Y-112082419D01*
X101513408Y-112082419D02*
X101608646Y-112082419D01*
X101608646Y-112082419D02*
X101751503Y-112130038D01*
X101751503Y-112130038D02*
X101799122Y-112177657D01*
X102703884Y-113082419D02*
X102227694Y-113082419D01*
X102227694Y-113082419D02*
X102227694Y-112082419D01*
X104322932Y-112130038D02*
X104227694Y-112082419D01*
X104227694Y-112082419D02*
X104084837Y-112082419D01*
X104084837Y-112082419D02*
X103941980Y-112130038D01*
X103941980Y-112130038D02*
X103846742Y-112225276D01*
X103846742Y-112225276D02*
X103799123Y-112320514D01*
X103799123Y-112320514D02*
X103751504Y-112510990D01*
X103751504Y-112510990D02*
X103751504Y-112653847D01*
X103751504Y-112653847D02*
X103799123Y-112844323D01*
X103799123Y-112844323D02*
X103846742Y-112939561D01*
X103846742Y-112939561D02*
X103941980Y-113034800D01*
X103941980Y-113034800D02*
X104084837Y-113082419D01*
X104084837Y-113082419D02*
X104180075Y-113082419D01*
X104180075Y-113082419D02*
X104322932Y-113034800D01*
X104322932Y-113034800D02*
X104370551Y-112987180D01*
X104370551Y-112987180D02*
X104370551Y-112653847D01*
X104370551Y-112653847D02*
X104180075Y-112653847D01*
X104799123Y-113082419D02*
X104799123Y-112082419D01*
X104799123Y-112082419D02*
X105370551Y-113082419D01*
X105370551Y-113082419D02*
X105370551Y-112082419D01*
X105846742Y-113082419D02*
X105846742Y-112082419D01*
X105846742Y-112082419D02*
X106084837Y-112082419D01*
X106084837Y-112082419D02*
X106227694Y-112130038D01*
X106227694Y-112130038D02*
X106322932Y-112225276D01*
X106322932Y-112225276D02*
X106370551Y-112320514D01*
X106370551Y-112320514D02*
X106418170Y-112510990D01*
X106418170Y-112510990D02*
X106418170Y-112653847D01*
X106418170Y-112653847D02*
X106370551Y-112844323D01*
X106370551Y-112844323D02*
X106322932Y-112939561D01*
X106322932Y-112939561D02*
X106227694Y-113034800D01*
X106227694Y-113034800D02*
X106084837Y-113082419D01*
X106084837Y-113082419D02*
X105846742Y-113082419D01*
X107513409Y-112082419D02*
X108132456Y-112082419D01*
X108132456Y-112082419D02*
X107799123Y-112463371D01*
X107799123Y-112463371D02*
X107941980Y-112463371D01*
X107941980Y-112463371D02*
X108037218Y-112510990D01*
X108037218Y-112510990D02*
X108084837Y-112558609D01*
X108084837Y-112558609D02*
X108132456Y-112653847D01*
X108132456Y-112653847D02*
X108132456Y-112891942D01*
X108132456Y-112891942D02*
X108084837Y-112987180D01*
X108084837Y-112987180D02*
X108037218Y-113034800D01*
X108037218Y-113034800D02*
X107941980Y-113082419D01*
X107941980Y-113082419D02*
X107656266Y-113082419D01*
X107656266Y-113082419D02*
X107561028Y-113034800D01*
X107561028Y-113034800D02*
X107513409Y-112987180D01*
X108561028Y-112987180D02*
X108608647Y-113034800D01*
X108608647Y-113034800D02*
X108561028Y-113082419D01*
X108561028Y-113082419D02*
X108513409Y-113034800D01*
X108513409Y-113034800D02*
X108561028Y-112987180D01*
X108561028Y-112987180D02*
X108561028Y-113082419D01*
X108941980Y-112082419D02*
X109561027Y-112082419D01*
X109561027Y-112082419D02*
X109227694Y-112463371D01*
X109227694Y-112463371D02*
X109370551Y-112463371D01*
X109370551Y-112463371D02*
X109465789Y-112510990D01*
X109465789Y-112510990D02*
X109513408Y-112558609D01*
X109513408Y-112558609D02*
X109561027Y-112653847D01*
X109561027Y-112653847D02*
X109561027Y-112891942D01*
X109561027Y-112891942D02*
X109513408Y-112987180D01*
X109513408Y-112987180D02*
X109465789Y-113034800D01*
X109465789Y-113034800D02*
X109370551Y-113082419D01*
X109370551Y-113082419D02*
X109084837Y-113082419D01*
X109084837Y-113082419D02*
X108989599Y-113034800D01*
X108989599Y-113034800D02*
X108941980Y-112987180D01*
X69776265Y-56496704D02*
X70252455Y-56496704D01*
X69681027Y-56782419D02*
X70014360Y-55782419D01*
X70014360Y-55782419D02*
X70347693Y-56782419D01*
X70633408Y-55877657D02*
X70681027Y-55830038D01*
X70681027Y-55830038D02*
X70776265Y-55782419D01*
X70776265Y-55782419D02*
X71014360Y-55782419D01*
X71014360Y-55782419D02*
X71109598Y-55830038D01*
X71109598Y-55830038D02*
X71157217Y-55877657D01*
X71157217Y-55877657D02*
X71204836Y-55972895D01*
X71204836Y-55972895D02*
X71204836Y-56068133D01*
X71204836Y-56068133D02*
X71157217Y-56210990D01*
X71157217Y-56210990D02*
X70585789Y-56782419D01*
X70585789Y-56782419D02*
X71204836Y-56782419D01*
X72347694Y-56496704D02*
X72823884Y-56496704D01*
X72252456Y-56782419D02*
X72585789Y-55782419D01*
X72585789Y-55782419D02*
X72919122Y-56782419D01*
X73776265Y-56782419D02*
X73204837Y-56782419D01*
X73490551Y-56782419D02*
X73490551Y-55782419D01*
X73490551Y-55782419D02*
X73395313Y-55925276D01*
X73395313Y-55925276D02*
X73300075Y-56020514D01*
X73300075Y-56020514D02*
X73204837Y-56068133D01*
X75300075Y-56258609D02*
X75442932Y-56306228D01*
X75442932Y-56306228D02*
X75490551Y-56353847D01*
X75490551Y-56353847D02*
X75538170Y-56449085D01*
X75538170Y-56449085D02*
X75538170Y-56591942D01*
X75538170Y-56591942D02*
X75490551Y-56687180D01*
X75490551Y-56687180D02*
X75442932Y-56734800D01*
X75442932Y-56734800D02*
X75347694Y-56782419D01*
X75347694Y-56782419D02*
X74966742Y-56782419D01*
X74966742Y-56782419D02*
X74966742Y-55782419D01*
X74966742Y-55782419D02*
X75300075Y-55782419D01*
X75300075Y-55782419D02*
X75395313Y-55830038D01*
X75395313Y-55830038D02*
X75442932Y-55877657D01*
X75442932Y-55877657D02*
X75490551Y-55972895D01*
X75490551Y-55972895D02*
X75490551Y-56068133D01*
X75490551Y-56068133D02*
X75442932Y-56163371D01*
X75442932Y-56163371D02*
X75395313Y-56210990D01*
X75395313Y-56210990D02*
X75300075Y-56258609D01*
X75300075Y-56258609D02*
X74966742Y-56258609D01*
X76490551Y-56782419D02*
X75919123Y-56782419D01*
X76204837Y-56782419D02*
X76204837Y-55782419D01*
X76204837Y-55782419D02*
X76109599Y-55925276D01*
X76109599Y-55925276D02*
X76014361Y-56020514D01*
X76014361Y-56020514D02*
X75919123Y-56068133D01*
X78014361Y-56258609D02*
X78157218Y-56306228D01*
X78157218Y-56306228D02*
X78204837Y-56353847D01*
X78204837Y-56353847D02*
X78252456Y-56449085D01*
X78252456Y-56449085D02*
X78252456Y-56591942D01*
X78252456Y-56591942D02*
X78204837Y-56687180D01*
X78204837Y-56687180D02*
X78157218Y-56734800D01*
X78157218Y-56734800D02*
X78061980Y-56782419D01*
X78061980Y-56782419D02*
X77681028Y-56782419D01*
X77681028Y-56782419D02*
X77681028Y-55782419D01*
X77681028Y-55782419D02*
X78014361Y-55782419D01*
X78014361Y-55782419D02*
X78109599Y-55830038D01*
X78109599Y-55830038D02*
X78157218Y-55877657D01*
X78157218Y-55877657D02*
X78204837Y-55972895D01*
X78204837Y-55972895D02*
X78204837Y-56068133D01*
X78204837Y-56068133D02*
X78157218Y-56163371D01*
X78157218Y-56163371D02*
X78109599Y-56210990D01*
X78109599Y-56210990D02*
X78014361Y-56258609D01*
X78014361Y-56258609D02*
X77681028Y-56258609D01*
X78633409Y-55877657D02*
X78681028Y-55830038D01*
X78681028Y-55830038D02*
X78776266Y-55782419D01*
X78776266Y-55782419D02*
X79014361Y-55782419D01*
X79014361Y-55782419D02*
X79109599Y-55830038D01*
X79109599Y-55830038D02*
X79157218Y-55877657D01*
X79157218Y-55877657D02*
X79204837Y-55972895D01*
X79204837Y-55972895D02*
X79204837Y-56068133D01*
X79204837Y-56068133D02*
X79157218Y-56210990D01*
X79157218Y-56210990D02*
X78585790Y-56782419D01*
X78585790Y-56782419D02*
X79204837Y-56782419D01*
X115416265Y-110086704D02*
X115892455Y-110086704D01*
X115321027Y-110372419D02*
X115654360Y-109372419D01*
X115654360Y-109372419D02*
X115987693Y-110372419D01*
X115797217Y-107118609D02*
X115940074Y-107166228D01*
X115940074Y-107166228D02*
X115987693Y-107213847D01*
X115987693Y-107213847D02*
X116035312Y-107309085D01*
X116035312Y-107309085D02*
X116035312Y-107451942D01*
X116035312Y-107451942D02*
X115987693Y-107547180D01*
X115987693Y-107547180D02*
X115940074Y-107594800D01*
X115940074Y-107594800D02*
X115844836Y-107642419D01*
X115844836Y-107642419D02*
X115463884Y-107642419D01*
X115463884Y-107642419D02*
X115463884Y-106642419D01*
X115463884Y-106642419D02*
X115797217Y-106642419D01*
X115797217Y-106642419D02*
X115892455Y-106690038D01*
X115892455Y-106690038D02*
X115940074Y-106737657D01*
X115940074Y-106737657D02*
X115987693Y-106832895D01*
X115987693Y-106832895D02*
X115987693Y-106928133D01*
X115987693Y-106928133D02*
X115940074Y-107023371D01*
X115940074Y-107023371D02*
X115892455Y-107070990D01*
X115892455Y-107070990D02*
X115797217Y-107118609D01*
X115797217Y-107118609D02*
X115463884Y-107118609D01*
X69676265Y-63726704D02*
X70152455Y-63726704D01*
X69581027Y-64012419D02*
X69914360Y-63012419D01*
X69914360Y-63012419D02*
X70247693Y-64012419D01*
X70533408Y-63107657D02*
X70581027Y-63060038D01*
X70581027Y-63060038D02*
X70676265Y-63012419D01*
X70676265Y-63012419D02*
X70914360Y-63012419D01*
X70914360Y-63012419D02*
X71009598Y-63060038D01*
X71009598Y-63060038D02*
X71057217Y-63107657D01*
X71057217Y-63107657D02*
X71104836Y-63202895D01*
X71104836Y-63202895D02*
X71104836Y-63298133D01*
X71104836Y-63298133D02*
X71057217Y-63440990D01*
X71057217Y-63440990D02*
X70485789Y-64012419D01*
X70485789Y-64012419D02*
X71104836Y-64012419D01*
X72247694Y-63726704D02*
X72723884Y-63726704D01*
X72152456Y-64012419D02*
X72485789Y-63012419D01*
X72485789Y-63012419D02*
X72819122Y-64012419D01*
X73676265Y-64012419D02*
X73104837Y-64012419D01*
X73390551Y-64012419D02*
X73390551Y-63012419D01*
X73390551Y-63012419D02*
X73295313Y-63155276D01*
X73295313Y-63155276D02*
X73200075Y-63250514D01*
X73200075Y-63250514D02*
X73104837Y-63298133D01*
X75200075Y-63488609D02*
X75342932Y-63536228D01*
X75342932Y-63536228D02*
X75390551Y-63583847D01*
X75390551Y-63583847D02*
X75438170Y-63679085D01*
X75438170Y-63679085D02*
X75438170Y-63821942D01*
X75438170Y-63821942D02*
X75390551Y-63917180D01*
X75390551Y-63917180D02*
X75342932Y-63964800D01*
X75342932Y-63964800D02*
X75247694Y-64012419D01*
X75247694Y-64012419D02*
X74866742Y-64012419D01*
X74866742Y-64012419D02*
X74866742Y-63012419D01*
X74866742Y-63012419D02*
X75200075Y-63012419D01*
X75200075Y-63012419D02*
X75295313Y-63060038D01*
X75295313Y-63060038D02*
X75342932Y-63107657D01*
X75342932Y-63107657D02*
X75390551Y-63202895D01*
X75390551Y-63202895D02*
X75390551Y-63298133D01*
X75390551Y-63298133D02*
X75342932Y-63393371D01*
X75342932Y-63393371D02*
X75295313Y-63440990D01*
X75295313Y-63440990D02*
X75200075Y-63488609D01*
X75200075Y-63488609D02*
X74866742Y-63488609D01*
X76390551Y-64012419D02*
X75819123Y-64012419D01*
X76104837Y-64012419D02*
X76104837Y-63012419D01*
X76104837Y-63012419D02*
X76009599Y-63155276D01*
X76009599Y-63155276D02*
X75914361Y-63250514D01*
X75914361Y-63250514D02*
X75819123Y-63298133D01*
X77914361Y-63488609D02*
X78057218Y-63536228D01*
X78057218Y-63536228D02*
X78104837Y-63583847D01*
X78104837Y-63583847D02*
X78152456Y-63679085D01*
X78152456Y-63679085D02*
X78152456Y-63821942D01*
X78152456Y-63821942D02*
X78104837Y-63917180D01*
X78104837Y-63917180D02*
X78057218Y-63964800D01*
X78057218Y-63964800D02*
X77961980Y-64012419D01*
X77961980Y-64012419D02*
X77581028Y-64012419D01*
X77581028Y-64012419D02*
X77581028Y-63012419D01*
X77581028Y-63012419D02*
X77914361Y-63012419D01*
X77914361Y-63012419D02*
X78009599Y-63060038D01*
X78009599Y-63060038D02*
X78057218Y-63107657D01*
X78057218Y-63107657D02*
X78104837Y-63202895D01*
X78104837Y-63202895D02*
X78104837Y-63298133D01*
X78104837Y-63298133D02*
X78057218Y-63393371D01*
X78057218Y-63393371D02*
X78009599Y-63440990D01*
X78009599Y-63440990D02*
X77914361Y-63488609D01*
X77914361Y-63488609D02*
X77581028Y-63488609D01*
X78533409Y-63107657D02*
X78581028Y-63060038D01*
X78581028Y-63060038D02*
X78676266Y-63012419D01*
X78676266Y-63012419D02*
X78914361Y-63012419D01*
X78914361Y-63012419D02*
X79009599Y-63060038D01*
X79009599Y-63060038D02*
X79057218Y-63107657D01*
X79057218Y-63107657D02*
X79104837Y-63202895D01*
X79104837Y-63202895D02*
X79104837Y-63298133D01*
X79104837Y-63298133D02*
X79057218Y-63440990D01*
X79057218Y-63440990D02*
X78485790Y-64012419D01*
X78485790Y-64012419D02*
X79104837Y-64012419D01*
D12*
X63596779Y-30796009D02*
X63930112Y-30796009D01*
X64072969Y-31319819D02*
X63596779Y-31319819D01*
X63596779Y-31319819D02*
X63596779Y-30319819D01*
X63596779Y-30319819D02*
X64072969Y-30319819D01*
X64406303Y-30319819D02*
X65072969Y-31319819D01*
X65072969Y-30319819D02*
X64406303Y-31319819D01*
X65311065Y-30319819D02*
X65882493Y-30319819D01*
X65596779Y-31319819D02*
X65596779Y-30319819D01*
X66787255Y-31319819D02*
X66453922Y-30843628D01*
X66215827Y-31319819D02*
X66215827Y-30319819D01*
X66215827Y-30319819D02*
X66596779Y-30319819D01*
X66596779Y-30319819D02*
X66692017Y-30367438D01*
X66692017Y-30367438D02*
X66739636Y-30415057D01*
X66739636Y-30415057D02*
X66787255Y-30510295D01*
X66787255Y-30510295D02*
X66787255Y-30653152D01*
X66787255Y-30653152D02*
X66739636Y-30748390D01*
X66739636Y-30748390D02*
X66692017Y-30796009D01*
X66692017Y-30796009D02*
X66596779Y-30843628D01*
X66596779Y-30843628D02*
X66215827Y-30843628D01*
X67215827Y-30319819D02*
X67215827Y-31129342D01*
X67215827Y-31129342D02*
X67263446Y-31224580D01*
X67263446Y-31224580D02*
X67311065Y-31272200D01*
X67311065Y-31272200D02*
X67406303Y-31319819D01*
X67406303Y-31319819D02*
X67596779Y-31319819D01*
X67596779Y-31319819D02*
X67692017Y-31272200D01*
X67692017Y-31272200D02*
X67739636Y-31224580D01*
X67739636Y-31224580D02*
X67787255Y-31129342D01*
X67787255Y-31129342D02*
X67787255Y-30319819D01*
X68263446Y-31319819D02*
X68263446Y-30319819D01*
X68263446Y-30319819D02*
X68501541Y-30319819D01*
X68501541Y-30319819D02*
X68644398Y-30367438D01*
X68644398Y-30367438D02*
X68739636Y-30462676D01*
X68739636Y-30462676D02*
X68787255Y-30557914D01*
X68787255Y-30557914D02*
X68834874Y-30748390D01*
X68834874Y-30748390D02*
X68834874Y-30891247D01*
X68834874Y-30891247D02*
X68787255Y-31081723D01*
X68787255Y-31081723D02*
X68739636Y-31176961D01*
X68739636Y-31176961D02*
X68644398Y-31272200D01*
X68644398Y-31272200D02*
X68501541Y-31319819D01*
X68501541Y-31319819D02*
X68263446Y-31319819D01*
X69263446Y-30796009D02*
X69596779Y-30796009D01*
X69739636Y-31319819D02*
X69263446Y-31319819D01*
X69263446Y-31319819D02*
X69263446Y-30319819D01*
X69263446Y-30319819D02*
X69739636Y-30319819D01*
X70739636Y-31319819D02*
X70406303Y-30843628D01*
X70168208Y-31319819D02*
X70168208Y-30319819D01*
X70168208Y-30319819D02*
X70549160Y-30319819D01*
X70549160Y-30319819D02*
X70644398Y-30367438D01*
X70644398Y-30367438D02*
X70692017Y-30415057D01*
X70692017Y-30415057D02*
X70739636Y-30510295D01*
X70739636Y-30510295D02*
X70739636Y-30653152D01*
X70739636Y-30653152D02*
X70692017Y-30748390D01*
X70692017Y-30748390D02*
X70644398Y-30796009D01*
X70644398Y-30796009D02*
X70549160Y-30843628D01*
X70549160Y-30843628D02*
X70168208Y-30843628D01*
D11*
X85653884Y-118752419D02*
X85653884Y-117752419D01*
X85653884Y-117752419D02*
X86034836Y-117752419D01*
X86034836Y-117752419D02*
X86130074Y-117800038D01*
X86130074Y-117800038D02*
X86177693Y-117847657D01*
X86177693Y-117847657D02*
X86225312Y-117942895D01*
X86225312Y-117942895D02*
X86225312Y-118085752D01*
X86225312Y-118085752D02*
X86177693Y-118180990D01*
X86177693Y-118180990D02*
X86130074Y-118228609D01*
X86130074Y-118228609D02*
X86034836Y-118276228D01*
X86034836Y-118276228D02*
X85653884Y-118276228D01*
X86844360Y-117752419D02*
X87034836Y-117752419D01*
X87034836Y-117752419D02*
X87130074Y-117800038D01*
X87130074Y-117800038D02*
X87225312Y-117895276D01*
X87225312Y-117895276D02*
X87272931Y-118085752D01*
X87272931Y-118085752D02*
X87272931Y-118419085D01*
X87272931Y-118419085D02*
X87225312Y-118609561D01*
X87225312Y-118609561D02*
X87130074Y-118704800D01*
X87130074Y-118704800D02*
X87034836Y-118752419D01*
X87034836Y-118752419D02*
X86844360Y-118752419D01*
X86844360Y-118752419D02*
X86749122Y-118704800D01*
X86749122Y-118704800D02*
X86653884Y-118609561D01*
X86653884Y-118609561D02*
X86606265Y-118419085D01*
X86606265Y-118419085D02*
X86606265Y-118085752D01*
X86606265Y-118085752D02*
X86653884Y-117895276D01*
X86653884Y-117895276D02*
X86749122Y-117800038D01*
X86749122Y-117800038D02*
X86844360Y-117752419D01*
X87606265Y-117752419D02*
X87844360Y-118752419D01*
X87844360Y-118752419D02*
X88034836Y-118038133D01*
X88034836Y-118038133D02*
X88225312Y-118752419D01*
X88225312Y-118752419D02*
X88463408Y-117752419D01*
X88844360Y-118228609D02*
X89177693Y-118228609D01*
X89320550Y-118752419D02*
X88844360Y-118752419D01*
X88844360Y-118752419D02*
X88844360Y-117752419D01*
X88844360Y-117752419D02*
X89320550Y-117752419D01*
X90320550Y-118752419D02*
X89987217Y-118276228D01*
X89749122Y-118752419D02*
X89749122Y-117752419D01*
X89749122Y-117752419D02*
X90130074Y-117752419D01*
X90130074Y-117752419D02*
X90225312Y-117800038D01*
X90225312Y-117800038D02*
X90272931Y-117847657D01*
X90272931Y-117847657D02*
X90320550Y-117942895D01*
X90320550Y-117942895D02*
X90320550Y-118085752D01*
X90320550Y-118085752D02*
X90272931Y-118180990D01*
X90272931Y-118180990D02*
X90225312Y-118228609D01*
X90225312Y-118228609D02*
X90130074Y-118276228D01*
X90130074Y-118276228D02*
X89749122Y-118276228D01*
X88066265Y-63726704D02*
X88542455Y-63726704D01*
X87971027Y-64012419D02*
X88304360Y-63012419D01*
X88304360Y-63012419D02*
X88637693Y-64012419D01*
X88923408Y-63107657D02*
X88971027Y-63060038D01*
X88971027Y-63060038D02*
X89066265Y-63012419D01*
X89066265Y-63012419D02*
X89304360Y-63012419D01*
X89304360Y-63012419D02*
X89399598Y-63060038D01*
X89399598Y-63060038D02*
X89447217Y-63107657D01*
X89447217Y-63107657D02*
X89494836Y-63202895D01*
X89494836Y-63202895D02*
X89494836Y-63298133D01*
X89494836Y-63298133D02*
X89447217Y-63440990D01*
X89447217Y-63440990D02*
X88875789Y-64012419D01*
X88875789Y-64012419D02*
X89494836Y-64012419D01*
X90637694Y-63726704D02*
X91113884Y-63726704D01*
X90542456Y-64012419D02*
X90875789Y-63012419D01*
X90875789Y-63012419D02*
X91209122Y-64012419D01*
X92066265Y-64012419D02*
X91494837Y-64012419D01*
X91780551Y-64012419D02*
X91780551Y-63012419D01*
X91780551Y-63012419D02*
X91685313Y-63155276D01*
X91685313Y-63155276D02*
X91590075Y-63250514D01*
X91590075Y-63250514D02*
X91494837Y-63298133D01*
X93590075Y-63488609D02*
X93732932Y-63536228D01*
X93732932Y-63536228D02*
X93780551Y-63583847D01*
X93780551Y-63583847D02*
X93828170Y-63679085D01*
X93828170Y-63679085D02*
X93828170Y-63821942D01*
X93828170Y-63821942D02*
X93780551Y-63917180D01*
X93780551Y-63917180D02*
X93732932Y-63964800D01*
X93732932Y-63964800D02*
X93637694Y-64012419D01*
X93637694Y-64012419D02*
X93256742Y-64012419D01*
X93256742Y-64012419D02*
X93256742Y-63012419D01*
X93256742Y-63012419D02*
X93590075Y-63012419D01*
X93590075Y-63012419D02*
X93685313Y-63060038D01*
X93685313Y-63060038D02*
X93732932Y-63107657D01*
X93732932Y-63107657D02*
X93780551Y-63202895D01*
X93780551Y-63202895D02*
X93780551Y-63298133D01*
X93780551Y-63298133D02*
X93732932Y-63393371D01*
X93732932Y-63393371D02*
X93685313Y-63440990D01*
X93685313Y-63440990D02*
X93590075Y-63488609D01*
X93590075Y-63488609D02*
X93256742Y-63488609D01*
X94780551Y-64012419D02*
X94209123Y-64012419D01*
X94494837Y-64012419D02*
X94494837Y-63012419D01*
X94494837Y-63012419D02*
X94399599Y-63155276D01*
X94399599Y-63155276D02*
X94304361Y-63250514D01*
X94304361Y-63250514D02*
X94209123Y-63298133D01*
X96304361Y-63488609D02*
X96447218Y-63536228D01*
X96447218Y-63536228D02*
X96494837Y-63583847D01*
X96494837Y-63583847D02*
X96542456Y-63679085D01*
X96542456Y-63679085D02*
X96542456Y-63821942D01*
X96542456Y-63821942D02*
X96494837Y-63917180D01*
X96494837Y-63917180D02*
X96447218Y-63964800D01*
X96447218Y-63964800D02*
X96351980Y-64012419D01*
X96351980Y-64012419D02*
X95971028Y-64012419D01*
X95971028Y-64012419D02*
X95971028Y-63012419D01*
X95971028Y-63012419D02*
X96304361Y-63012419D01*
X96304361Y-63012419D02*
X96399599Y-63060038D01*
X96399599Y-63060038D02*
X96447218Y-63107657D01*
X96447218Y-63107657D02*
X96494837Y-63202895D01*
X96494837Y-63202895D02*
X96494837Y-63298133D01*
X96494837Y-63298133D02*
X96447218Y-63393371D01*
X96447218Y-63393371D02*
X96399599Y-63440990D01*
X96399599Y-63440990D02*
X96304361Y-63488609D01*
X96304361Y-63488609D02*
X95971028Y-63488609D01*
X96923409Y-63107657D02*
X96971028Y-63060038D01*
X96971028Y-63060038D02*
X97066266Y-63012419D01*
X97066266Y-63012419D02*
X97304361Y-63012419D01*
X97304361Y-63012419D02*
X97399599Y-63060038D01*
X97399599Y-63060038D02*
X97447218Y-63107657D01*
X97447218Y-63107657D02*
X97494837Y-63202895D01*
X97494837Y-63202895D02*
X97494837Y-63298133D01*
X97494837Y-63298133D02*
X97447218Y-63440990D01*
X97447218Y-63440990D02*
X96875790Y-64012419D01*
X96875790Y-64012419D02*
X97494837Y-64012419D01*
X106336265Y-63726704D02*
X106812455Y-63726704D01*
X106241027Y-64012419D02*
X106574360Y-63012419D01*
X106574360Y-63012419D02*
X106907693Y-64012419D01*
X107193408Y-63107657D02*
X107241027Y-63060038D01*
X107241027Y-63060038D02*
X107336265Y-63012419D01*
X107336265Y-63012419D02*
X107574360Y-63012419D01*
X107574360Y-63012419D02*
X107669598Y-63060038D01*
X107669598Y-63060038D02*
X107717217Y-63107657D01*
X107717217Y-63107657D02*
X107764836Y-63202895D01*
X107764836Y-63202895D02*
X107764836Y-63298133D01*
X107764836Y-63298133D02*
X107717217Y-63440990D01*
X107717217Y-63440990D02*
X107145789Y-64012419D01*
X107145789Y-64012419D02*
X107764836Y-64012419D01*
X108907694Y-63726704D02*
X109383884Y-63726704D01*
X108812456Y-64012419D02*
X109145789Y-63012419D01*
X109145789Y-63012419D02*
X109479122Y-64012419D01*
X110336265Y-64012419D02*
X109764837Y-64012419D01*
X110050551Y-64012419D02*
X110050551Y-63012419D01*
X110050551Y-63012419D02*
X109955313Y-63155276D01*
X109955313Y-63155276D02*
X109860075Y-63250514D01*
X109860075Y-63250514D02*
X109764837Y-63298133D01*
X111860075Y-63488609D02*
X112002932Y-63536228D01*
X112002932Y-63536228D02*
X112050551Y-63583847D01*
X112050551Y-63583847D02*
X112098170Y-63679085D01*
X112098170Y-63679085D02*
X112098170Y-63821942D01*
X112098170Y-63821942D02*
X112050551Y-63917180D01*
X112050551Y-63917180D02*
X112002932Y-63964800D01*
X112002932Y-63964800D02*
X111907694Y-64012419D01*
X111907694Y-64012419D02*
X111526742Y-64012419D01*
X111526742Y-64012419D02*
X111526742Y-63012419D01*
X111526742Y-63012419D02*
X111860075Y-63012419D01*
X111860075Y-63012419D02*
X111955313Y-63060038D01*
X111955313Y-63060038D02*
X112002932Y-63107657D01*
X112002932Y-63107657D02*
X112050551Y-63202895D01*
X112050551Y-63202895D02*
X112050551Y-63298133D01*
X112050551Y-63298133D02*
X112002932Y-63393371D01*
X112002932Y-63393371D02*
X111955313Y-63440990D01*
X111955313Y-63440990D02*
X111860075Y-63488609D01*
X111860075Y-63488609D02*
X111526742Y-63488609D01*
X113050551Y-64012419D02*
X112479123Y-64012419D01*
X112764837Y-64012419D02*
X112764837Y-63012419D01*
X112764837Y-63012419D02*
X112669599Y-63155276D01*
X112669599Y-63155276D02*
X112574361Y-63250514D01*
X112574361Y-63250514D02*
X112479123Y-63298133D01*
X114574361Y-63488609D02*
X114717218Y-63536228D01*
X114717218Y-63536228D02*
X114764837Y-63583847D01*
X114764837Y-63583847D02*
X114812456Y-63679085D01*
X114812456Y-63679085D02*
X114812456Y-63821942D01*
X114812456Y-63821942D02*
X114764837Y-63917180D01*
X114764837Y-63917180D02*
X114717218Y-63964800D01*
X114717218Y-63964800D02*
X114621980Y-64012419D01*
X114621980Y-64012419D02*
X114241028Y-64012419D01*
X114241028Y-64012419D02*
X114241028Y-63012419D01*
X114241028Y-63012419D02*
X114574361Y-63012419D01*
X114574361Y-63012419D02*
X114669599Y-63060038D01*
X114669599Y-63060038D02*
X114717218Y-63107657D01*
X114717218Y-63107657D02*
X114764837Y-63202895D01*
X114764837Y-63202895D02*
X114764837Y-63298133D01*
X114764837Y-63298133D02*
X114717218Y-63393371D01*
X114717218Y-63393371D02*
X114669599Y-63440990D01*
X114669599Y-63440990D02*
X114574361Y-63488609D01*
X114574361Y-63488609D02*
X114241028Y-63488609D01*
X115193409Y-63107657D02*
X115241028Y-63060038D01*
X115241028Y-63060038D02*
X115336266Y-63012419D01*
X115336266Y-63012419D02*
X115574361Y-63012419D01*
X115574361Y-63012419D02*
X115669599Y-63060038D01*
X115669599Y-63060038D02*
X115717218Y-63107657D01*
X115717218Y-63107657D02*
X115764837Y-63202895D01*
X115764837Y-63202895D02*
X115764837Y-63298133D01*
X115764837Y-63298133D02*
X115717218Y-63440990D01*
X115717218Y-63440990D02*
X115145790Y-64012419D01*
X115145790Y-64012419D02*
X115764837Y-64012419D01*
X115797217Y-112408609D02*
X115940074Y-112456228D01*
X115940074Y-112456228D02*
X115987693Y-112503847D01*
X115987693Y-112503847D02*
X116035312Y-112599085D01*
X116035312Y-112599085D02*
X116035312Y-112741942D01*
X116035312Y-112741942D02*
X115987693Y-112837180D01*
X115987693Y-112837180D02*
X115940074Y-112884800D01*
X115940074Y-112884800D02*
X115844836Y-112932419D01*
X115844836Y-112932419D02*
X115463884Y-112932419D01*
X115463884Y-112932419D02*
X115463884Y-111932419D01*
X115463884Y-111932419D02*
X115797217Y-111932419D01*
X115797217Y-111932419D02*
X115892455Y-111980038D01*
X115892455Y-111980038D02*
X115940074Y-112027657D01*
X115940074Y-112027657D02*
X115987693Y-112122895D01*
X115987693Y-112122895D02*
X115987693Y-112218133D01*
X115987693Y-112218133D02*
X115940074Y-112313371D01*
X115940074Y-112313371D02*
X115892455Y-112360990D01*
X115892455Y-112360990D02*
X115797217Y-112408609D01*
X115797217Y-112408609D02*
X115463884Y-112408609D01*
X116321027Y-111932419D02*
X116892455Y-111932419D01*
X116606741Y-112932419D02*
X116606741Y-111932419D01*
X117225789Y-112932419D02*
X117225789Y-111932419D01*
X117225789Y-111932419D02*
X117797217Y-112932419D01*
X117797217Y-112932419D02*
X117797217Y-111932419D01*
D12*
X100292969Y-30889819D02*
X99816779Y-30889819D01*
X99816779Y-30889819D02*
X99816779Y-29889819D01*
X100626303Y-30889819D02*
X100626303Y-29889819D01*
X101102493Y-30889819D02*
X101102493Y-29889819D01*
X101102493Y-29889819D02*
X101673921Y-30889819D01*
X101673921Y-30889819D02*
X101673921Y-29889819D01*
X102150112Y-30889819D02*
X102150112Y-29889819D01*
X102150112Y-29889819D02*
X102483445Y-30604104D01*
X102483445Y-30604104D02*
X102816778Y-29889819D01*
X102816778Y-29889819D02*
X102816778Y-30889819D01*
X103483445Y-29889819D02*
X103673921Y-29889819D01*
X103673921Y-29889819D02*
X103769159Y-29937438D01*
X103769159Y-29937438D02*
X103864397Y-30032676D01*
X103864397Y-30032676D02*
X103912016Y-30223152D01*
X103912016Y-30223152D02*
X103912016Y-30556485D01*
X103912016Y-30556485D02*
X103864397Y-30746961D01*
X103864397Y-30746961D02*
X103769159Y-30842200D01*
X103769159Y-30842200D02*
X103673921Y-30889819D01*
X103673921Y-30889819D02*
X103483445Y-30889819D01*
X103483445Y-30889819D02*
X103388207Y-30842200D01*
X103388207Y-30842200D02*
X103292969Y-30746961D01*
X103292969Y-30746961D02*
X103245350Y-30556485D01*
X103245350Y-30556485D02*
X103245350Y-30223152D01*
X103245350Y-30223152D02*
X103292969Y-30032676D01*
X103292969Y-30032676D02*
X103388207Y-29937438D01*
X103388207Y-29937438D02*
X103483445Y-29889819D01*
X104197731Y-29889819D02*
X104769159Y-29889819D01*
X104483445Y-30889819D02*
X104483445Y-29889819D01*
D11*
X66137693Y-127702419D02*
X65566265Y-127702419D01*
X65851979Y-127702419D02*
X65851979Y-126702419D01*
X65851979Y-126702419D02*
X65756741Y-126845276D01*
X65756741Y-126845276D02*
X65661503Y-126940514D01*
X65661503Y-126940514D02*
X65566265Y-126988133D01*
X66518646Y-126797657D02*
X66566265Y-126750038D01*
X66566265Y-126750038D02*
X66661503Y-126702419D01*
X66661503Y-126702419D02*
X66899598Y-126702419D01*
X66899598Y-126702419D02*
X66994836Y-126750038D01*
X66994836Y-126750038D02*
X67042455Y-126797657D01*
X67042455Y-126797657D02*
X67090074Y-126892895D01*
X67090074Y-126892895D02*
X67090074Y-126988133D01*
X67090074Y-126988133D02*
X67042455Y-127130990D01*
X67042455Y-127130990D02*
X66471027Y-127702419D01*
X66471027Y-127702419D02*
X67090074Y-127702419D01*
X67375789Y-126702419D02*
X67709122Y-127702419D01*
X67709122Y-127702419D02*
X68042455Y-126702419D01*
X88186265Y-56496704D02*
X88662455Y-56496704D01*
X88091027Y-56782419D02*
X88424360Y-55782419D01*
X88424360Y-55782419D02*
X88757693Y-56782419D01*
X89043408Y-55877657D02*
X89091027Y-55830038D01*
X89091027Y-55830038D02*
X89186265Y-55782419D01*
X89186265Y-55782419D02*
X89424360Y-55782419D01*
X89424360Y-55782419D02*
X89519598Y-55830038D01*
X89519598Y-55830038D02*
X89567217Y-55877657D01*
X89567217Y-55877657D02*
X89614836Y-55972895D01*
X89614836Y-55972895D02*
X89614836Y-56068133D01*
X89614836Y-56068133D02*
X89567217Y-56210990D01*
X89567217Y-56210990D02*
X88995789Y-56782419D01*
X88995789Y-56782419D02*
X89614836Y-56782419D01*
X90757694Y-56496704D02*
X91233884Y-56496704D01*
X90662456Y-56782419D02*
X90995789Y-55782419D01*
X90995789Y-55782419D02*
X91329122Y-56782419D01*
X92186265Y-56782419D02*
X91614837Y-56782419D01*
X91900551Y-56782419D02*
X91900551Y-55782419D01*
X91900551Y-55782419D02*
X91805313Y-55925276D01*
X91805313Y-55925276D02*
X91710075Y-56020514D01*
X91710075Y-56020514D02*
X91614837Y-56068133D01*
X93710075Y-56258609D02*
X93852932Y-56306228D01*
X93852932Y-56306228D02*
X93900551Y-56353847D01*
X93900551Y-56353847D02*
X93948170Y-56449085D01*
X93948170Y-56449085D02*
X93948170Y-56591942D01*
X93948170Y-56591942D02*
X93900551Y-56687180D01*
X93900551Y-56687180D02*
X93852932Y-56734800D01*
X93852932Y-56734800D02*
X93757694Y-56782419D01*
X93757694Y-56782419D02*
X93376742Y-56782419D01*
X93376742Y-56782419D02*
X93376742Y-55782419D01*
X93376742Y-55782419D02*
X93710075Y-55782419D01*
X93710075Y-55782419D02*
X93805313Y-55830038D01*
X93805313Y-55830038D02*
X93852932Y-55877657D01*
X93852932Y-55877657D02*
X93900551Y-55972895D01*
X93900551Y-55972895D02*
X93900551Y-56068133D01*
X93900551Y-56068133D02*
X93852932Y-56163371D01*
X93852932Y-56163371D02*
X93805313Y-56210990D01*
X93805313Y-56210990D02*
X93710075Y-56258609D01*
X93710075Y-56258609D02*
X93376742Y-56258609D01*
X94900551Y-56782419D02*
X94329123Y-56782419D01*
X94614837Y-56782419D02*
X94614837Y-55782419D01*
X94614837Y-55782419D02*
X94519599Y-55925276D01*
X94519599Y-55925276D02*
X94424361Y-56020514D01*
X94424361Y-56020514D02*
X94329123Y-56068133D01*
X96424361Y-56258609D02*
X96567218Y-56306228D01*
X96567218Y-56306228D02*
X96614837Y-56353847D01*
X96614837Y-56353847D02*
X96662456Y-56449085D01*
X96662456Y-56449085D02*
X96662456Y-56591942D01*
X96662456Y-56591942D02*
X96614837Y-56687180D01*
X96614837Y-56687180D02*
X96567218Y-56734800D01*
X96567218Y-56734800D02*
X96471980Y-56782419D01*
X96471980Y-56782419D02*
X96091028Y-56782419D01*
X96091028Y-56782419D02*
X96091028Y-55782419D01*
X96091028Y-55782419D02*
X96424361Y-55782419D01*
X96424361Y-55782419D02*
X96519599Y-55830038D01*
X96519599Y-55830038D02*
X96567218Y-55877657D01*
X96567218Y-55877657D02*
X96614837Y-55972895D01*
X96614837Y-55972895D02*
X96614837Y-56068133D01*
X96614837Y-56068133D02*
X96567218Y-56163371D01*
X96567218Y-56163371D02*
X96519599Y-56210990D01*
X96519599Y-56210990D02*
X96424361Y-56258609D01*
X96424361Y-56258609D02*
X96091028Y-56258609D01*
X97043409Y-55877657D02*
X97091028Y-55830038D01*
X97091028Y-55830038D02*
X97186266Y-55782419D01*
X97186266Y-55782419D02*
X97424361Y-55782419D01*
X97424361Y-55782419D02*
X97519599Y-55830038D01*
X97519599Y-55830038D02*
X97567218Y-55877657D01*
X97567218Y-55877657D02*
X97614837Y-55972895D01*
X97614837Y-55972895D02*
X97614837Y-56068133D01*
X97614837Y-56068133D02*
X97567218Y-56210990D01*
X97567218Y-56210990D02*
X96995790Y-56782419D01*
X96995790Y-56782419D02*
X97614837Y-56782419D01*
X106416265Y-56496704D02*
X106892455Y-56496704D01*
X106321027Y-56782419D02*
X106654360Y-55782419D01*
X106654360Y-55782419D02*
X106987693Y-56782419D01*
X107273408Y-55877657D02*
X107321027Y-55830038D01*
X107321027Y-55830038D02*
X107416265Y-55782419D01*
X107416265Y-55782419D02*
X107654360Y-55782419D01*
X107654360Y-55782419D02*
X107749598Y-55830038D01*
X107749598Y-55830038D02*
X107797217Y-55877657D01*
X107797217Y-55877657D02*
X107844836Y-55972895D01*
X107844836Y-55972895D02*
X107844836Y-56068133D01*
X107844836Y-56068133D02*
X107797217Y-56210990D01*
X107797217Y-56210990D02*
X107225789Y-56782419D01*
X107225789Y-56782419D02*
X107844836Y-56782419D01*
X108987694Y-56496704D02*
X109463884Y-56496704D01*
X108892456Y-56782419D02*
X109225789Y-55782419D01*
X109225789Y-55782419D02*
X109559122Y-56782419D01*
X110416265Y-56782419D02*
X109844837Y-56782419D01*
X110130551Y-56782419D02*
X110130551Y-55782419D01*
X110130551Y-55782419D02*
X110035313Y-55925276D01*
X110035313Y-55925276D02*
X109940075Y-56020514D01*
X109940075Y-56020514D02*
X109844837Y-56068133D01*
X111940075Y-56258609D02*
X112082932Y-56306228D01*
X112082932Y-56306228D02*
X112130551Y-56353847D01*
X112130551Y-56353847D02*
X112178170Y-56449085D01*
X112178170Y-56449085D02*
X112178170Y-56591942D01*
X112178170Y-56591942D02*
X112130551Y-56687180D01*
X112130551Y-56687180D02*
X112082932Y-56734800D01*
X112082932Y-56734800D02*
X111987694Y-56782419D01*
X111987694Y-56782419D02*
X111606742Y-56782419D01*
X111606742Y-56782419D02*
X111606742Y-55782419D01*
X111606742Y-55782419D02*
X111940075Y-55782419D01*
X111940075Y-55782419D02*
X112035313Y-55830038D01*
X112035313Y-55830038D02*
X112082932Y-55877657D01*
X112082932Y-55877657D02*
X112130551Y-55972895D01*
X112130551Y-55972895D02*
X112130551Y-56068133D01*
X112130551Y-56068133D02*
X112082932Y-56163371D01*
X112082932Y-56163371D02*
X112035313Y-56210990D01*
X112035313Y-56210990D02*
X111940075Y-56258609D01*
X111940075Y-56258609D02*
X111606742Y-56258609D01*
X113130551Y-56782419D02*
X112559123Y-56782419D01*
X112844837Y-56782419D02*
X112844837Y-55782419D01*
X112844837Y-55782419D02*
X112749599Y-55925276D01*
X112749599Y-55925276D02*
X112654361Y-56020514D01*
X112654361Y-56020514D02*
X112559123Y-56068133D01*
X114654361Y-56258609D02*
X114797218Y-56306228D01*
X114797218Y-56306228D02*
X114844837Y-56353847D01*
X114844837Y-56353847D02*
X114892456Y-56449085D01*
X114892456Y-56449085D02*
X114892456Y-56591942D01*
X114892456Y-56591942D02*
X114844837Y-56687180D01*
X114844837Y-56687180D02*
X114797218Y-56734800D01*
X114797218Y-56734800D02*
X114701980Y-56782419D01*
X114701980Y-56782419D02*
X114321028Y-56782419D01*
X114321028Y-56782419D02*
X114321028Y-55782419D01*
X114321028Y-55782419D02*
X114654361Y-55782419D01*
X114654361Y-55782419D02*
X114749599Y-55830038D01*
X114749599Y-55830038D02*
X114797218Y-55877657D01*
X114797218Y-55877657D02*
X114844837Y-55972895D01*
X114844837Y-55972895D02*
X114844837Y-56068133D01*
X114844837Y-56068133D02*
X114797218Y-56163371D01*
X114797218Y-56163371D02*
X114749599Y-56210990D01*
X114749599Y-56210990D02*
X114654361Y-56258609D01*
X114654361Y-56258609D02*
X114321028Y-56258609D01*
X115273409Y-55877657D02*
X115321028Y-55830038D01*
X115321028Y-55830038D02*
X115416266Y-55782419D01*
X115416266Y-55782419D02*
X115654361Y-55782419D01*
X115654361Y-55782419D02*
X115749599Y-55830038D01*
X115749599Y-55830038D02*
X115797218Y-55877657D01*
X115797218Y-55877657D02*
X115844837Y-55972895D01*
X115844837Y-55972895D02*
X115844837Y-56068133D01*
X115844837Y-56068133D02*
X115797218Y-56210990D01*
X115797218Y-56210990D02*
X115225790Y-56782419D01*
X115225790Y-56782419D02*
X115844837Y-56782419D01*
X99603884Y-118802419D02*
X99603884Y-117802419D01*
X99603884Y-117802419D02*
X99841979Y-117802419D01*
X99841979Y-117802419D02*
X99984836Y-117850038D01*
X99984836Y-117850038D02*
X100080074Y-117945276D01*
X100080074Y-117945276D02*
X100127693Y-118040514D01*
X100127693Y-118040514D02*
X100175312Y-118230990D01*
X100175312Y-118230990D02*
X100175312Y-118373847D01*
X100175312Y-118373847D02*
X100127693Y-118564323D01*
X100127693Y-118564323D02*
X100080074Y-118659561D01*
X100080074Y-118659561D02*
X99984836Y-118754800D01*
X99984836Y-118754800D02*
X99841979Y-118802419D01*
X99841979Y-118802419D02*
X99603884Y-118802419D01*
X100603884Y-118802419D02*
X100603884Y-117802419D01*
X101032455Y-118754800D02*
X101175312Y-118802419D01*
X101175312Y-118802419D02*
X101413407Y-118802419D01*
X101413407Y-118802419D02*
X101508645Y-118754800D01*
X101508645Y-118754800D02*
X101556264Y-118707180D01*
X101556264Y-118707180D02*
X101603883Y-118611942D01*
X101603883Y-118611942D02*
X101603883Y-118516704D01*
X101603883Y-118516704D02*
X101556264Y-118421466D01*
X101556264Y-118421466D02*
X101508645Y-118373847D01*
X101508645Y-118373847D02*
X101413407Y-118326228D01*
X101413407Y-118326228D02*
X101222931Y-118278609D01*
X101222931Y-118278609D02*
X101127693Y-118230990D01*
X101127693Y-118230990D02*
X101080074Y-118183371D01*
X101080074Y-118183371D02*
X101032455Y-118088133D01*
X101032455Y-118088133D02*
X101032455Y-117992895D01*
X101032455Y-117992895D02*
X101080074Y-117897657D01*
X101080074Y-117897657D02*
X101127693Y-117850038D01*
X101127693Y-117850038D02*
X101222931Y-117802419D01*
X101222931Y-117802419D02*
X101461026Y-117802419D01*
X101461026Y-117802419D02*
X101603883Y-117850038D01*
X102032455Y-118802419D02*
X102032455Y-117802419D01*
X102032455Y-117802419D02*
X102413407Y-117802419D01*
X102413407Y-117802419D02*
X102508645Y-117850038D01*
X102508645Y-117850038D02*
X102556264Y-117897657D01*
X102556264Y-117897657D02*
X102603883Y-117992895D01*
X102603883Y-117992895D02*
X102603883Y-118135752D01*
X102603883Y-118135752D02*
X102556264Y-118230990D01*
X102556264Y-118230990D02*
X102508645Y-118278609D01*
X102508645Y-118278609D02*
X102413407Y-118326228D01*
X102413407Y-118326228D02*
X102032455Y-118326228D01*
X103508645Y-118802419D02*
X103032455Y-118802419D01*
X103032455Y-118802419D02*
X103032455Y-117802419D01*
X103794360Y-118516704D02*
X104270550Y-118516704D01*
X103699122Y-118802419D02*
X104032455Y-117802419D01*
X104032455Y-117802419D02*
X104365788Y-118802419D01*
X104889598Y-118326228D02*
X104889598Y-118802419D01*
X104556265Y-117802419D02*
X104889598Y-118326228D01*
X104889598Y-118326228D02*
X105222931Y-117802419D01*
X64487693Y-43730038D02*
X64392455Y-43682419D01*
X64392455Y-43682419D02*
X64249598Y-43682419D01*
X64249598Y-43682419D02*
X64106741Y-43730038D01*
X64106741Y-43730038D02*
X64011503Y-43825276D01*
X64011503Y-43825276D02*
X63963884Y-43920514D01*
X63963884Y-43920514D02*
X63916265Y-44110990D01*
X63916265Y-44110990D02*
X63916265Y-44253847D01*
X63916265Y-44253847D02*
X63963884Y-44444323D01*
X63963884Y-44444323D02*
X64011503Y-44539561D01*
X64011503Y-44539561D02*
X64106741Y-44634800D01*
X64106741Y-44634800D02*
X64249598Y-44682419D01*
X64249598Y-44682419D02*
X64344836Y-44682419D01*
X64344836Y-44682419D02*
X64487693Y-44634800D01*
X64487693Y-44634800D02*
X64535312Y-44587180D01*
X64535312Y-44587180D02*
X64535312Y-44253847D01*
X64535312Y-44253847D02*
X64344836Y-44253847D01*
D12*
X111073333Y-117191009D02*
X111406666Y-117191009D01*
X111549523Y-117714819D02*
X111073333Y-117714819D01*
X111073333Y-117714819D02*
X111073333Y-116714819D01*
X111073333Y-116714819D02*
X111549523Y-116714819D01*
X112549523Y-117619580D02*
X112501904Y-117667200D01*
X112501904Y-117667200D02*
X112359047Y-117714819D01*
X112359047Y-117714819D02*
X112263809Y-117714819D01*
X112263809Y-117714819D02*
X112120952Y-117667200D01*
X112120952Y-117667200D02*
X112025714Y-117571961D01*
X112025714Y-117571961D02*
X111978095Y-117476723D01*
X111978095Y-117476723D02*
X111930476Y-117286247D01*
X111930476Y-117286247D02*
X111930476Y-117143390D01*
X111930476Y-117143390D02*
X111978095Y-116952914D01*
X111978095Y-116952914D02*
X112025714Y-116857676D01*
X112025714Y-116857676D02*
X112120952Y-116762438D01*
X112120952Y-116762438D02*
X112263809Y-116714819D01*
X112263809Y-116714819D02*
X112359047Y-116714819D01*
X112359047Y-116714819D02*
X112501904Y-116762438D01*
X112501904Y-116762438D02*
X112549523Y-116810057D01*
X113501904Y-117714819D02*
X112930476Y-117714819D01*
X113216190Y-117714819D02*
X113216190Y-116714819D01*
X113216190Y-116714819D02*
X113120952Y-116857676D01*
X113120952Y-116857676D02*
X113025714Y-116952914D01*
X113025714Y-116952914D02*
X112930476Y-117000533D01*
X114454285Y-117714819D02*
X113882857Y-117714819D01*
X114168571Y-117714819D02*
X114168571Y-116714819D01*
X114168571Y-116714819D02*
X114073333Y-116857676D01*
X114073333Y-116857676D02*
X113978095Y-116952914D01*
X113978095Y-116952914D02*
X113882857Y-117000533D01*
D13*
G04 #@! TO.C,EXTRUDER2*
X69470000Y-59630000D02*
X69470000Y-62290000D01*
X77150000Y-59630000D02*
X69470000Y-59630000D01*
X77150000Y-59630000D02*
X77150000Y-62290000D01*
X77150000Y-62290000D02*
X69470000Y-62290000D01*
X79750000Y-60960000D02*
X79750000Y-62290000D01*
X79750000Y-62290000D02*
X78420000Y-62290000D01*
G04 #@! TO.C,5VOUT1*
X118435000Y-119540000D02*
X119765000Y-119540000D01*
X118435000Y-120870000D02*
X118435000Y-119540000D01*
X118435000Y-122140000D02*
X118435000Y-122200000D01*
X118435000Y-122140000D02*
X121095000Y-122140000D01*
X118435000Y-122200000D02*
X121095000Y-122200000D01*
X121095000Y-122140000D02*
X121095000Y-122200000D01*
D14*
G04 #@! TO.C,U4*
X63160000Y-72120000D02*
X114110000Y-72120000D01*
X63160000Y-72120000D02*
X114110000Y-72120000D01*
X63160000Y-82850000D02*
X63160000Y-72120000D01*
X63160000Y-89561000D02*
X63160000Y-82850000D01*
X63160000Y-100630000D02*
X63160000Y-72120000D01*
X63160000Y-100630000D02*
X63160000Y-89561000D01*
X114110000Y-72120000D02*
X114110000Y-100630000D01*
X114110000Y-77570000D02*
X114110000Y-72120000D01*
X114110000Y-95260000D02*
X114110000Y-77570000D01*
X114110000Y-100630000D02*
X63160000Y-100630000D01*
X114110000Y-100630000D02*
X63160000Y-100630000D01*
X114110000Y-100630000D02*
X114110000Y-95260000D01*
D15*
X73220000Y-101200000D02*
G75*
G02*
X73020000Y-101200000I-100000J0D01*
G01*
X73020000Y-101200000D02*
G75*
G02*
X73220000Y-101200000I100000J0D01*
G01*
D13*
G04 #@! TO.C,LIN2*
X105960000Y-59630000D02*
X105960000Y-62290000D01*
X113640000Y-59630000D02*
X105960000Y-59630000D01*
X113640000Y-59630000D02*
X113640000Y-62290000D01*
X113640000Y-62290000D02*
X105960000Y-62290000D01*
X116240000Y-60960000D02*
X116240000Y-62290000D01*
X116240000Y-62290000D02*
X114910000Y-62290000D01*
G04 #@! TO.C,12V_INPUT1*
X69690000Y-124710000D02*
X69690000Y-134870000D01*
X69690000Y-134870000D02*
X77310000Y-134870000D01*
X76040000Y-124710000D02*
X76040000Y-134870000D01*
X77310000Y-124710000D02*
X69690000Y-124710000D01*
X77310000Y-134870000D02*
X77310000Y-124710000D01*
G04 #@! TO.C,12V_INPUT2*
X62010000Y-111400000D02*
X76710000Y-111400000D01*
X62010000Y-120600000D02*
X62010000Y-111400000D01*
X70810000Y-120600000D02*
X62010000Y-120600000D01*
X75860000Y-111200000D02*
X76910000Y-111200000D01*
X76710000Y-111400000D02*
X76710000Y-114000000D01*
X76710000Y-117900000D02*
X76710000Y-120600000D01*
X76710000Y-120600000D02*
X74810000Y-120600000D01*
X76910000Y-112250000D02*
X76910000Y-111200000D01*
G04 #@! TO.C,POWER1*
X82630000Y-114230000D02*
X82630000Y-116890000D01*
X90310000Y-114230000D02*
X82630000Y-114230000D01*
X90310000Y-114230000D02*
X90310000Y-116890000D01*
X90310000Y-116890000D02*
X82630000Y-116890000D01*
X91580000Y-114230000D02*
X92910000Y-114230000D01*
X92910000Y-114230000D02*
X92910000Y-115560000D01*
G04 #@! TO.C,LIN1*
X87700000Y-59790000D02*
X87700000Y-62450000D01*
X95380000Y-59790000D02*
X87700000Y-59790000D01*
X95380000Y-59790000D02*
X95380000Y-62450000D01*
X95380000Y-62450000D02*
X87700000Y-62450000D01*
X97980000Y-61120000D02*
X97980000Y-62450000D01*
X97980000Y-62450000D02*
X96650000Y-62450000D01*
G04 #@! TO.C,ADDRESS_SELECTOR1*
X62910000Y-35210000D02*
X64240000Y-35210000D01*
X62910000Y-36540000D02*
X62910000Y-35210000D01*
X62910000Y-37810000D02*
X62910000Y-42950000D01*
X62910000Y-37810000D02*
X65570000Y-37810000D01*
X62910000Y-42950000D02*
X65570000Y-42950000D01*
X65570000Y-37810000D02*
X65570000Y-42950000D01*
D14*
G04 #@! TO.C,LINMOT2*
X103480000Y-52970000D02*
X103480000Y-32650000D01*
X118720000Y-32650000D02*
X118720000Y-52970000D01*
X118720000Y-52970000D02*
X103480000Y-52970000D01*
D15*
X103000000Y-33920000D02*
G75*
G02*
X102800000Y-33920000I-100000J0D01*
G01*
X102800000Y-33920000D02*
G75*
G02*
X103000000Y-33920000I100000J0D01*
G01*
D13*
G04 #@! TO.C,12VIN1*
X78385000Y-119540000D02*
X79715000Y-119540000D01*
X78385000Y-120870000D02*
X78385000Y-119540000D01*
X78385000Y-122140000D02*
X78385000Y-122200000D01*
X78385000Y-122140000D02*
X81045000Y-122140000D01*
X78385000Y-122200000D02*
X81045000Y-122200000D01*
X81045000Y-122140000D02*
X81045000Y-122200000D01*
D14*
G04 #@! TO.C,LINMOT1*
X85410000Y-32650000D02*
X100650000Y-32650000D01*
X85410000Y-52970000D02*
X85410000Y-32650000D01*
X100650000Y-32650000D02*
X100650000Y-52970000D01*
X100650000Y-52970000D02*
X85410000Y-52970000D01*
D15*
X84930000Y-33920000D02*
G75*
G02*
X84730000Y-33920000I-100000J0D01*
G01*
X84730000Y-33920000D02*
G75*
G02*
X84930000Y-33920000I100000J0D01*
G01*
D14*
G04 #@! TO.C,EXTRUDER1*
X66820000Y-52970000D02*
X66820000Y-32650000D01*
X82060000Y-32650000D02*
X82060000Y-52970000D01*
X82060000Y-52970000D02*
X66820000Y-52970000D01*
D15*
X66340000Y-33920000D02*
G75*
G02*
X66140000Y-33920000I-100000J0D01*
G01*
X66140000Y-33920000D02*
G75*
G02*
X66340000Y-33920000I100000J0D01*
G01*
D13*
G04 #@! TO.C,DISPLAY1*
X97490000Y-114230000D02*
X97490000Y-116890000D01*
X105170000Y-114230000D02*
X97490000Y-114230000D01*
X105170000Y-114230000D02*
X105170000Y-116890000D01*
X105170000Y-116890000D02*
X97490000Y-116890000D01*
X106440000Y-114230000D02*
X107770000Y-114230000D01*
X107770000Y-114230000D02*
X107770000Y-115560000D01*
G04 #@! TO.C,J3*
X118435000Y-137050000D02*
X119765000Y-137050000D01*
X118435000Y-138380000D02*
X118435000Y-137050000D01*
X118435000Y-139650000D02*
X118435000Y-139710000D01*
X118435000Y-139650000D02*
X121095000Y-139650000D01*
X118435000Y-139710000D02*
X121095000Y-139710000D01*
X121095000Y-139650000D02*
X121095000Y-139710000D01*
G04 #@! TO.C,J1*
X78385000Y-137050000D02*
X79715000Y-137050000D01*
X78385000Y-138380000D02*
X78385000Y-137050000D01*
X78385000Y-139650000D02*
X78385000Y-139710000D01*
X78385000Y-139650000D02*
X81045000Y-139650000D01*
X78385000Y-139710000D02*
X81045000Y-139710000D01*
X81045000Y-139650000D02*
X81045000Y-139710000D01*
G04 #@! TO.C,EC11*
X111410000Y-113660000D02*
X111410000Y-105980000D01*
X114070000Y-105980000D02*
X111410000Y-105980000D01*
X114070000Y-113660000D02*
X111410000Y-113660000D01*
X114070000Y-113660000D02*
X114070000Y-105980000D01*
X114070000Y-114930000D02*
X114070000Y-116260000D01*
X114070000Y-116260000D02*
X112740000Y-116260000D01*
G04 #@! TD*
M02*
