M48
; DRILL file {KiCad 8.0.5-8.0.5-0~ubuntu22.04.1} date 2024-10-01T13:57:59+0200
; FORMAT={-:-/ absolute / metric / decimal}
; #@! TF.CreationDate,2024-10-01T13:57:59+02:00
; #@! TF.GenerationSoftware,Kicad,Pcbnew,8.0.5-8.0.5-0~ubuntu22.04.1
; #@! TF.FileFunction,MixedPlating,1,2
FMAT,2
METRIC
; #@! TA.AperFunction,Plated,PTH,ViaDrill
T1C0.300
; #@! TA.AperFunction,Plated,PTH,ComponentDrill
T2C1.000
; #@! TA.AperFunction,Plated,PTH,ComponentDrill
T3C1.020
; #@! TA.AperFunction,Plated,PTH,ComponentDrill
T4C1.520
; #@! TA.AperFunction,NonPlated,NPTH,ComponentDrill
T5C3.000
; #@! TA.AperFunction,NonPlated,NPTH,ComponentDrill
T6C3.200
%
G90
G05
T1
X64.015Y-64.545
X70.34Y-70.87
X94.19Y-70.45
X115.86Y-68.44
X117.55Y-72.81
X119.75Y-70.6
T2
X64.24Y-36.54
X64.24Y-39.08
X64.24Y-41.62
X68.09Y-33.92
X68.09Y-36.46
X68.09Y-39.0
X68.09Y-41.54
X68.09Y-44.08
X68.09Y-46.62
X68.09Y-49.16
X68.09Y-51.7
X70.8Y-60.96
X73.34Y-60.96
X75.71Y-51.7
X75.88Y-60.96
X78.25Y-51.7
X78.42Y-60.96
X79.715Y-120.87
X79.715Y-138.38
X80.79Y-33.92
X80.79Y-36.46
X80.79Y-39.0
X80.79Y-41.54
X80.79Y-44.08
X80.79Y-46.62
X80.79Y-49.16
X80.79Y-51.7
X83.96Y-115.56
X86.5Y-115.56
X86.68Y-33.92
X86.68Y-36.46
X86.68Y-39.0
X86.68Y-41.54
X86.68Y-44.08
X86.68Y-46.62
X86.68Y-49.16
X86.68Y-51.7
X89.03Y-61.12
X89.04Y-115.56
X91.57Y-61.12
X91.58Y-115.56
X94.11Y-61.12
X94.3Y-51.7
X96.65Y-60.96
X96.84Y-51.7
X98.82Y-115.56
X99.38Y-33.92
X99.38Y-36.46
X99.38Y-39.0
X99.38Y-41.54
X99.38Y-44.08
X99.38Y-46.62
X99.38Y-49.16
X99.38Y-51.7
X101.36Y-115.56
X103.9Y-115.56
X104.75Y-33.92
X104.75Y-36.46
X104.75Y-39.0
X104.75Y-41.54
X104.75Y-44.08
X104.75Y-46.62
X104.75Y-49.16
X104.75Y-51.7
X106.44Y-115.56
X107.29Y-60.96
X109.83Y-60.96
X112.37Y-51.7
X112.37Y-60.96
X112.74Y-107.31
X112.74Y-109.85
X112.74Y-112.39
X112.74Y-114.93
X114.91Y-51.7
X114.91Y-60.96
X117.45Y-33.92
X117.45Y-36.46
X117.45Y-39.0
X117.45Y-41.54
X117.45Y-44.08
X117.45Y-46.62
X117.45Y-49.16
X117.45Y-51.7
X119.765Y-120.87
X119.765Y-138.38
T3
X73.12Y-73.65
X73.12Y-99.05
X75.66Y-73.65
X75.66Y-99.05
X78.2Y-73.65
X78.2Y-99.05
X80.74Y-73.65
X80.74Y-99.05
X83.28Y-73.65
X83.28Y-99.05
X85.82Y-73.65
X85.82Y-99.05
X88.36Y-73.65
X88.36Y-99.05
X90.9Y-73.65
X90.9Y-99.05
X93.44Y-73.65
X93.44Y-99.05
X95.98Y-73.65
X95.98Y-99.05
X98.52Y-73.65
X98.52Y-99.05
X101.06Y-73.65
X101.06Y-99.05
X103.6Y-73.65
X103.6Y-99.05
X106.14Y-73.65
X106.14Y-99.05
X108.68Y-73.65
X108.68Y-99.05
T4
X73.5Y-127.25
X73.5Y-132.33
T5
X65.16Y-74.12
X65.16Y-98.63
X112.11Y-74.12
X112.11Y-98.63
T6
X66.02Y-136.6
X74.44Y-32.65
X111.08Y-136.6
X111.1Y-32.65
T2
X69.81Y-115.0G85X69.81Y-117.0
G05
X71.81Y-120.7G85X73.81Y-120.7
G05
X75.81Y-115.0G85X75.81Y-117.0
G05
M30
