G04 #@! TF.GenerationSoftware,KiCad,Pcbnew,8.0.5-8.0.5-0~ubuntu22.04.1*
G04 #@! TF.CreationDate,2024-10-01T13:57:59+02:00*
G04 #@! TF.ProjectId,wire-cutter,77697265-2d63-4757-9474-65722e6b6963,rev?*
G04 #@! TF.SameCoordinates,Original*
G04 #@! TF.FileFunction,Soldermask,Bot*
G04 #@! TF.FilePolarity,Negative*
%FSLAX46Y46*%
G04 Gerber Fmt 4.6, Leading zero omitted, Abs format (unit mm)*
G04 Created by KiCad (PCBNEW 8.0.5-8.0.5-0~ubuntu22.04.1) date 2024-10-01 13:57:59*
%MOMM*%
%LPD*%
G01*
G04 APERTURE LIST*
G04 Aperture macros list*
%AMRoundRect*
0 Rectangle with rounded corners*
0 $1 Rounding radius*
0 $2 $3 $4 $5 $6 $7 $8 $9 X,Y pos of 4 corners*
0 Add a 4 corners polygon primitive as box body*
4,1,4,$2,$3,$4,$5,$6,$7,$8,$9,$2,$3,0*
0 Add four circle primitives for the rounded corners*
1,1,$1+$1,$2,$3*
1,1,$1+$1,$4,$5*
1,1,$1+$1,$6,$7*
1,1,$1+$1,$8,$9*
0 Add four rect primitives between the rounded corners*
20,1,$1+$1,$2,$3,$4,$5,0*
20,1,$1+$1,$4,$5,$6,$7,0*
20,1,$1+$1,$6,$7,$8,$9,0*
20,1,$1+$1,$8,$9,$2,$3,0*%
G04 Aperture macros list end*
%ADD10R,1.700000X1.700000*%
%ADD11O,1.700000X1.700000*%
%ADD12C,3.200000*%
%ADD13C,3.000000*%
%ADD14RoundRect,0.102000X1.000000X-1.000000X1.000000X1.000000X-1.000000X1.000000X-1.000000X-1.000000X0*%
%ADD15C,2.204000*%
%ADD16R,3.000000X3.000000*%
%ADD17R,3.500000X3.500000*%
%ADD18RoundRect,0.750000X-0.750000X-1.000000X0.750000X-1.000000X0.750000X1.000000X-0.750000X1.000000X0*%
%ADD19RoundRect,0.875000X-0.875000X-0.875000X0.875000X-0.875000X0.875000X0.875000X-0.875000X0.875000X0*%
%ADD20RoundRect,0.102000X-0.754000X-0.754000X0.754000X-0.754000X0.754000X0.754000X-0.754000X0.754000X0*%
%ADD21C,1.712000*%
G04 APERTURE END LIST*
D10*
G04 #@! TO.C,EXTRUDER2*
X78420000Y-60960000D03*
D11*
X75880000Y-60960000D03*
X73340000Y-60960000D03*
X70800000Y-60960000D03*
G04 #@! TD*
D12*
G04 #@! TO.C,REF\u002A\u002A*
X74440000Y-32650000D03*
G04 #@! TD*
D10*
G04 #@! TO.C,5VOUT1*
X119765000Y-120870000D03*
G04 #@! TD*
D13*
G04 #@! TO.C,U4*
X65160000Y-98630000D03*
X112110000Y-98630000D03*
X65160000Y-74120000D03*
X112110000Y-74120000D03*
D14*
X73120000Y-99050000D03*
D15*
X75660000Y-99050000D03*
X78200000Y-99050000D03*
X80740000Y-99050000D03*
X83280000Y-99050000D03*
X85820000Y-99050000D03*
X88360000Y-99050000D03*
X90900000Y-99050000D03*
X93440000Y-99050000D03*
X95980000Y-99050000D03*
X98520000Y-99050000D03*
X101060000Y-99050000D03*
X103600000Y-99050000D03*
X106140000Y-99050000D03*
X108680000Y-99050000D03*
X108680000Y-73650000D03*
X106140000Y-73650000D03*
X103600000Y-73650000D03*
X101060000Y-73650000D03*
X98520000Y-73650000D03*
X95980000Y-73650000D03*
X93440000Y-73650000D03*
X90900000Y-73650000D03*
X88360000Y-73650000D03*
X85820000Y-73650000D03*
X83280000Y-73650000D03*
X80740000Y-73650000D03*
X78200000Y-73650000D03*
X75660000Y-73650000D03*
X73120000Y-73650000D03*
G04 #@! TD*
D10*
G04 #@! TO.C,LIN2*
X114910000Y-60960000D03*
D11*
X112370000Y-60960000D03*
X109830000Y-60960000D03*
X107290000Y-60960000D03*
G04 #@! TD*
D16*
G04 #@! TO.C,12V_INPUT1*
X73500000Y-132330000D03*
D13*
X73500000Y-127250000D03*
G04 #@! TD*
D17*
G04 #@! TO.C,12V_INPUT2*
X75810000Y-116000000D03*
D18*
X69810000Y-116000000D03*
D19*
X72810000Y-120700000D03*
G04 #@! TD*
D10*
G04 #@! TO.C,POWER1*
X91580000Y-115560000D03*
D11*
X89040000Y-115560000D03*
X86500000Y-115560000D03*
X83960000Y-115560000D03*
G04 #@! TD*
D12*
G04 #@! TO.C,REF\u002A\u002A*
X111100000Y-32650000D03*
G04 #@! TD*
D10*
G04 #@! TO.C,LIN1*
X96650000Y-60960000D03*
D11*
X94110000Y-61120000D03*
X91570000Y-61120000D03*
X89030000Y-61120000D03*
G04 #@! TD*
D10*
G04 #@! TO.C,ADDRESS_SELECTOR1*
X64240000Y-36540000D03*
D11*
X64240000Y-39080000D03*
X64240000Y-41620000D03*
G04 #@! TD*
D20*
G04 #@! TO.C,LINMOT2*
X104750000Y-33920000D03*
D21*
X104750000Y-36460000D03*
X104750000Y-39000000D03*
X104750000Y-41540000D03*
X104750000Y-44080000D03*
X104750000Y-46620000D03*
X104750000Y-49160000D03*
X104750000Y-51700000D03*
X117450000Y-33920000D03*
X117450000Y-36460000D03*
X117450000Y-39000000D03*
X117450000Y-41540000D03*
X117450000Y-44080000D03*
X117450000Y-46620000D03*
X117450000Y-49160000D03*
X117450000Y-51700000D03*
X112370000Y-51700000D03*
X114910000Y-51700000D03*
G04 #@! TD*
D10*
G04 #@! TO.C,12VIN1*
X79715000Y-120870000D03*
G04 #@! TD*
D20*
G04 #@! TO.C,LINMOT1*
X86680000Y-33920000D03*
D21*
X86680000Y-36460000D03*
X86680000Y-39000000D03*
X86680000Y-41540000D03*
X86680000Y-44080000D03*
X86680000Y-46620000D03*
X86680000Y-49160000D03*
X86680000Y-51700000D03*
X99380000Y-33920000D03*
X99380000Y-36460000D03*
X99380000Y-39000000D03*
X99380000Y-41540000D03*
X99380000Y-44080000D03*
X99380000Y-46620000D03*
X99380000Y-49160000D03*
X99380000Y-51700000D03*
X94300000Y-51700000D03*
X96840000Y-51700000D03*
G04 #@! TD*
D12*
G04 #@! TO.C,REF\u002A\u002A*
X66020000Y-136600000D03*
G04 #@! TD*
D20*
G04 #@! TO.C,EXTRUDER1*
X68090000Y-33920000D03*
D21*
X68090000Y-36460000D03*
X68090000Y-39000000D03*
X68090000Y-41540000D03*
X68090000Y-44080000D03*
X68090000Y-46620000D03*
X68090000Y-49160000D03*
X68090000Y-51700000D03*
X80790000Y-33920000D03*
X80790000Y-36460000D03*
X80790000Y-39000000D03*
X80790000Y-41540000D03*
X80790000Y-44080000D03*
X80790000Y-46620000D03*
X80790000Y-49160000D03*
X80790000Y-51700000D03*
X75710000Y-51700000D03*
X78250000Y-51700000D03*
G04 #@! TD*
D10*
G04 #@! TO.C,DISPLAY1*
X106440000Y-115560000D03*
D11*
X103900000Y-115560000D03*
X101360000Y-115560000D03*
X98820000Y-115560000D03*
G04 #@! TD*
D10*
G04 #@! TO.C,J3*
X119765000Y-138380000D03*
G04 #@! TD*
G04 #@! TO.C,J1*
X79715000Y-138380000D03*
G04 #@! TD*
G04 #@! TO.C,EC11*
X112740000Y-114930000D03*
D11*
X112740000Y-112390000D03*
X112740000Y-109850000D03*
X112740000Y-107310000D03*
G04 #@! TD*
D12*
G04 #@! TO.C,REF\u002A\u002A*
X111080000Y-136600000D03*
G04 #@! TD*
M02*
